<svg width="103" height="65" viewBox="0 0 103 65" fill="none" xmlns="http://www.w3.org/2000/svg">
<path d="M67.1418 61.8059C67.1418 61.9628 67.1157 62.2897 66.9326 62.4205C66.7627 62.5512 66.4227 62.512 65.9912 62.3159L64.8275 61.7928C63.9645 60.1192 63.18 58.5502 62.9839 58.171L64.8144 46.9262C65.1413 46.9 65.7559 46.8216 66.5535 46.6777L66.4096 47.7499L64.9321 56.7065C64.9321 56.7065 64.9321 56.8242 64.9583 56.8765L67.1549 61.8059H67.1418Z" fill="white"/>
<path d="M16.7359 55.4382L18.9195 60.4853C18.8411 60.7991 18.6057 61.4529 18.2657 61.5967C18.2134 61.6229 18.0435 61.6882 17.7427 61.466C17.6904 61.4267 17.6381 61.4137 17.5728 61.4137H16.3829C16.0168 60.6684 15.4938 59.8054 14.8008 58.7986L16.6183 45.2002C16.9713 45.4225 17.5335 45.7756 18.2527 46.1286L17.8473 48.8221L16.7359 55.2813C16.7359 55.2813 16.7359 55.399 16.7621 55.4513L16.7359 55.4382Z" fill="white"/>
<path d="M101.217 17.3759C102.642 22.253 99.0983 23.7436 98.6538 23.9136L88.7296 24.0182C84.8723 23.2598 81.9696 26.9078 81.8519 27.0647C81.8519 27.0778 81.8258 27.104 81.8127 27.117C81.7735 27.2086 77.5371 36.1521 75.1966 41.0031C72.9346 45.6971 64.6187 46.3639 64.5271 46.3639C64.3964 46.3639 64.2787 46.4816 64.2525 46.6124L62.4089 57.9487L60.9445 58.0402C60.7876 58.0402 60.6568 58.184 60.6699 58.354C60.6699 58.5109 60.8137 58.6417 60.9837 58.6286L62.5004 58.5371C62.7489 59.047 63.5334 60.5768 64.3571 62.1851C64.8017 63.0481 64.6971 63.375 64.6317 63.4665C64.5271 63.6234 64.2656 63.6234 64.2264 63.6234L59.9246 63.1657L58.3948 58.2363L58.1594 41.3169C58.1594 41.16 58.0287 41.0292 57.8718 41.0292L28.6222 40.82C28.4653 40.82 28.3215 40.9507 28.3215 41.1207C28.3215 41.2907 28.4523 41.4215 28.6092 41.4215L32.4402 41.4476C32.4402 41.4476 32.4272 41.4738 32.4141 41.4999C31.0543 44.468 29.1191 46.2986 26.6871 46.9523C22.8168 47.9722 18.6327 45.7363 17.129 44.821C18.1227 44.5726 20.0579 43.9973 22.2153 42.912C25.0396 41.4738 28.7661 38.8456 30.4659 34.4523C30.5182 34.2954 30.4528 34.1254 30.2959 34.0731C30.139 34.0208 29.969 34.0862 29.9167 34.2431C28.2954 38.4534 24.6996 40.99 21.9669 42.376C18.9857 43.8927 16.3576 44.4026 16.3314 44.4026C16.3184 44.4026 16.3053 44.4026 16.2791 44.4026C16.2791 44.4026 16.253 44.4026 16.2399 44.4157C16.2399 44.4157 16.2399 44.4157 16.2268 44.4157C16.2268 44.4157 16.2007 44.4157 16.2007 44.4419C16.2007 44.4419 16.2007 44.4419 16.1876 44.4419C16.1876 44.4419 16.1614 44.468 16.1614 44.4811C16.1614 44.4942 16.1484 44.5072 16.1353 44.5334C16.1353 44.5334 16.1353 44.5595 16.1353 44.5726C16.1353 44.5726 16.1353 44.5726 16.1353 44.5857C16.1353 44.5857 16.1353 44.5857 16.1353 44.5988L14.2786 58.4586L12.4481 58.0533C12.2911 58.0141 12.1342 58.1187 12.095 58.2756C12.0558 58.4325 12.1604 58.5894 12.3173 58.6286L14.344 59.0862C16.7106 62.4989 16.4753 63.4273 16.3445 63.6365C16.2007 63.8587 15.8346 63.7934 15.8346 63.7934C15.8346 63.7934 15.8346 63.7934 15.8215 63.7934L11.7158 63.2311L10.2383 57.308C9.54533 39.7609 11.1144 21.1285 11.1797 20.2394C12.4088 16.2645 14.5532 14.2509 16.1222 13.2572C17.8351 12.185 19.2734 12.0412 19.2865 12.0412C19.378 12.0412 19.4564 11.9889 19.5087 11.9104C21.6923 11.7535 24.242 11.7797 27.2232 12.0543C27.2232 12.0543 27.2363 12.0543 27.2493 12.0543L51.3995 12.4465C71.6793 12.8126 75.4712 11.7143 76.5172 10.5898C76.9618 10.1191 76.9095 9.60916 76.8702 9.19075C76.8702 9.08615 76.8572 8.99462 76.8572 8.90309C77.1187 9.02077 77.3802 9.13845 77.6809 9.22998C77.7071 9.22998 77.7463 9.24305 77.7724 9.24305C77.8901 9.24305 78.0078 9.1646 78.047 9.04692C78.0993 8.89002 78.0209 8.72004 77.864 8.66774C75.6019 7.87014 74.1506 6.4057 73.523 4.30057C73.1438 3.01919 73.2091 1.88164 73.2353 1.4763C77.1187 -0.249643 81.4597 6.98102 81.4989 7.05947C81.5774 7.2033 81.7604 7.24252 81.9043 7.16407C82.0481 7.08562 82.0873 6.90257 82.0089 6.75874C81.9435 6.65414 81.3812 5.71271 80.5052 4.60131L82.4796 2.94074C84.8854 0.783307 88.3373 0.482578 90.5863 0.574105C87.7358 1.89471 84.4147 5.67348 84.2317 5.88269C84.1271 6.00037 84.1401 6.1965 84.2578 6.3011C84.3101 6.3534 84.3886 6.37955 84.4539 6.37955C84.5324 6.37955 84.6239 6.34033 84.6762 6.27495C85.1862 5.68656 86.0099 4.82359 86.9513 3.93447L98.3138 16.0422C97.5293 16.4476 96.784 17.2452 96.0779 18.435C95.9995 18.5788 96.0387 18.7619 96.1825 18.8403C96.3264 18.9188 96.5094 18.8796 96.5879 18.7357C97.5162 17.1929 98.4576 16.3822 99.4121 16.3299C100.38 16.2776 101.086 17.0752 101.243 17.2582L101.217 17.3759Z" fill="white"/>
<path d="M101.766 17.1536C103.466 22.8545 98.85 24.4758 98.7977 24.4889C98.7715 24.4889 98.7323 24.502 98.7062 24.502L88.7035 24.6066C88.7035 24.6066 88.6643 24.6066 88.6381 24.6066C85.2778 23.9267 82.5843 27.0909 82.3358 27.4047C82.0612 27.9931 77.9948 36.5574 75.7328 41.2646C74.1376 44.5726 69.9404 45.9848 67.1684 46.5731L66.9985 47.8415L65.534 56.7196L67.7176 61.6229C67.7176 61.6229 67.7438 61.6882 67.7438 61.7144C67.7438 61.7928 67.8091 62.5381 67.2992 62.9042C67.1292 63.0219 66.92 63.0873 66.6847 63.0873C66.4231 63.0873 66.1093 63.0088 65.7694 62.865L65.1941 62.6166C65.351 63.1265 65.3379 63.5188 65.1418 63.8064C64.9195 64.1464 64.5141 64.2379 64.2657 64.2379C64.2396 64.2379 64.2265 64.2379 64.2003 64.2379L59.6893 63.7541C59.5717 63.7541 59.4671 63.6626 59.4409 63.5449L57.8327 58.3933C57.8327 58.3933 57.8327 58.3409 57.8327 58.3148L57.5973 41.6437L32.9503 41.4738C33.0026 41.5522 33.0157 41.6699 32.9764 41.7614C31.9566 43.9842 30.6359 45.6056 29.0146 46.5993L29.6553 47.9591C29.7207 48.103 29.6553 48.286 29.5115 48.3514C29.4722 48.3645 29.433 48.3775 29.3807 48.3775C29.2761 48.3775 29.1584 48.3122 29.1192 48.2076L28.4916 46.9C27.9686 47.1746 27.4194 47.3838 26.8441 47.5407C26.1903 47.7107 25.5235 47.8022 24.8566 47.8284L24.9743 49.5543C24.9743 49.7112 24.8566 49.8551 24.6997 49.8681H24.6736C24.5167 49.8681 24.3859 49.7505 24.3729 49.5935L24.2552 47.8284C22.9084 47.7892 21.614 47.4884 20.4633 47.0962L20.1757 48.9398C20.1495 49.0836 20.0318 49.1882 19.888 49.1882C19.8749 49.1882 19.8619 49.1882 19.8357 49.1882C19.6788 49.1621 19.5611 49.0052 19.5873 48.8483L19.9011 46.887C19.5088 46.7431 19.1427 46.5862 18.8028 46.4162L18.4236 48.9267L17.3252 55.2944L19.5088 60.3415C19.5088 60.3415 19.535 60.4592 19.5219 60.5115C19.4958 60.6422 19.2342 61.8321 18.489 62.1328C18.3974 62.172 18.2797 62.1982 18.1359 62.1982C17.9529 62.1982 17.7306 62.1459 17.4822 61.989H16.6453C17.0245 62.9042 17.0768 63.5711 16.8022 64.0026C16.58 64.3425 16.2008 64.4471 15.9131 64.4471C15.8347 64.4471 15.7562 64.4471 15.7039 64.4341L11.4021 63.8457C11.2844 63.8326 11.1798 63.7411 11.1537 63.6234L9.62387 57.478C9.62387 57.478 9.62387 57.4388 9.62387 57.4126C8.91781 39.4732 10.5522 20.3963 10.5784 20.2133C10.5784 20.1871 10.5784 20.174 10.5784 20.1479C11.8728 15.9638 14.1349 13.8325 15.8085 12.7865C16.1354 12.5903 16.4492 12.4204 16.7369 12.2765C13.3373 12.8126 11.1014 13.8194 9.65003 14.7739C7.03496 16.5129 6.42042 18.4481 6.35504 18.6965L6.08046 39.1987C6.08046 39.1987 6.08046 39.2248 6.08046 39.2379C8.06791 39.9047 4.95598 48.8352 0.405762 48.0507C0.405762 48.0507 3.02083 39.944 5.50514 39.2379C5.50514 39.2248 5.50514 39.1987 5.50514 39.1856L5.77973 18.6442C5.77973 18.6442 5.77973 18.605 5.77973 18.5788C5.80588 18.4873 6.32889 16.2776 9.27084 14.3032C13.1542 11.7012 19.2081 10.7598 27.2364 11.5051L51.3734 11.8974C66.8939 12.1719 74.7391 11.6489 76.0466 10.2368C76.295 9.9622 76.282 9.70069 76.2558 9.29536C76.2427 9.09923 76.2166 8.87695 76.2558 8.66774C74.203 7.51711 73.3139 5.83039 72.9216 4.50978C72.4247 2.79691 72.6339 1.35863 72.647 1.30632C72.6601 1.2148 72.7255 1.13635 72.8039 1.08405C75.5367 -0.288865 78.3217 2.10392 80.1 4.20905L82.0612 2.56156C85.4478 -0.484998 90.6125 -0.0665871 92.3385 0.181844C92.5607 0.181844 92.7569 0.221073 92.953 0.286449C93.0968 0.338751 93.1884 0.495656 93.1361 0.639484C93.0968 0.796388 92.9399 0.887915 92.7961 0.848689C92.7961 0.848689 92.5738 0.809464 92.2208 0.757162C90.8871 0.770238 88.9912 2.13007 87.3568 3.58144L98.8761 15.8723C99.033 15.833 99.1899 15.8069 99.3468 15.8069C100.759 15.7415 101.661 16.9575 101.7 17.0098C101.727 17.036 101.74 17.0621 101.74 17.1013L101.766 17.1536ZM98.6539 23.9136C99.1115 23.7436 102.642 22.253 101.217 17.3759C101.073 17.1929 100.354 16.3953 99.3861 16.4476C98.4316 16.4999 97.4901 17.2975 96.5618 18.8534C96.4833 18.9973 96.3003 19.0365 96.1565 18.958C96.0126 18.8796 95.9734 18.6965 96.0519 18.5527C96.7579 17.3628 97.5163 16.5522 98.2878 16.1599L86.9253 4.05215C85.9708 4.9282 85.147 5.80424 84.6502 6.39263C84.5848 6.45801 84.5063 6.49723 84.4279 6.49723C84.3625 6.49723 84.2841 6.47108 84.2318 6.41878C84.1141 6.31418 84.101 6.11805 84.2056 6.00037C84.3887 5.79117 87.6967 2.01239 90.5602 0.691782C88.3113 0.61333 84.8463 0.900989 82.4535 3.05842L80.4791 4.71899C81.3552 5.83039 81.9174 6.75874 81.9828 6.87642C82.0612 7.02025 82.022 7.2033 81.8782 7.28175C81.7344 7.36021 81.5513 7.32098 81.4729 7.17715C81.4336 7.0987 77.0926 -0.131961 73.2092 1.59398C73.17 1.99932 73.1046 3.13687 73.4969 4.41826C74.1245 6.52339 75.5759 7.98782 77.8379 8.78542C77.9948 8.83772 78.0733 9.0077 78.021 9.16461C77.9817 9.28228 77.8641 9.36073 77.7464 9.36073C77.7202 9.36073 77.681 9.36073 77.6549 9.34766C77.3672 9.24306 77.0926 9.13845 76.8311 9.02078C76.8311 9.1123 76.8311 9.20383 76.8442 9.30843C76.8834 9.71377 76.9226 10.2237 76.4912 10.7075C75.4451 11.832 71.6533 12.9172 51.3734 12.5642L27.2233 12.1719C27.2233 12.1719 27.2102 12.1719 27.1971 12.1719C24.216 11.8974 21.6663 11.8712 19.4827 12.0281C19.4304 12.0935 19.3519 12.1458 19.2604 12.1589C19.2473 12.1589 17.809 12.3027 16.0962 13.3749C14.5141 14.3686 12.3828 16.3822 11.1537 20.3571C11.0752 21.2462 9.51927 39.8786 10.2123 57.4257L11.6898 63.3488L15.7954 63.911C15.7954 63.911 15.7954 63.911 15.8085 63.911C15.8085 63.911 16.1746 63.9764 16.3184 63.7541C16.4492 63.5449 16.6846 62.6166 14.3179 59.2039L12.2912 58.7463C12.1343 58.7071 12.0297 58.5502 12.069 58.3933C12.1082 58.2364 12.2651 58.1317 12.422 58.171L14.2525 58.5763L16.1092 44.7164C16.1092 44.7164 16.1092 44.7164 16.1092 44.7034C16.1092 44.7034 16.1092 44.7034 16.1092 44.6903C16.1092 44.6903 16.1092 44.6641 16.1092 44.6511C16.1092 44.638 16.1223 44.6249 16.1354 44.5988C16.1354 44.5988 16.1485 44.5726 16.1615 44.5595C16.1615 44.5595 16.1615 44.5595 16.1746 44.5595C16.1746 44.5595 16.1877 44.5465 16.2008 44.5334C16.2008 44.5334 16.2008 44.5334 16.2138 44.5334C16.2138 44.5334 16.24 44.5334 16.2531 44.5203C16.2661 44.5203 16.2792 44.5203 16.3054 44.5203C16.3315 44.5203 18.9597 44.0104 21.9408 42.4936C24.6736 41.1077 28.2693 38.571 29.8907 34.3608C29.956 34.2039 30.126 34.1254 30.2698 34.1908C30.4137 34.2562 30.4921 34.4262 30.4398 34.57C28.7531 38.9633 25.0266 41.5914 22.1893 43.0297C20.0318 44.1281 18.0967 44.6903 17.103 44.9387C18.5936 45.8671 22.7777 48.103 26.661 47.07C29.1061 46.4293 31.0282 44.5857 32.388 41.6176C32.388 41.6045 32.4011 41.5914 32.4142 41.5653L28.5831 41.5391C28.4262 41.5391 28.2824 41.4084 28.2955 41.2384C28.3085 41.0684 28.4262 40.9377 28.5962 40.9377L57.8457 41.1469C58.0026 41.1469 58.1334 41.2776 58.1334 41.4345L58.3687 58.354L59.8986 63.2834L64.2003 63.7411C64.2003 63.7411 64.5011 63.7411 64.6057 63.5842C64.6711 63.4796 64.7757 63.1527 64.3311 62.3028C63.4943 60.6945 62.7228 59.1647 62.4744 58.6548L60.9577 58.7463C60.7877 58.7594 60.6569 58.6286 60.6438 58.4717C60.6438 58.3148 60.7615 58.171 60.9184 58.1579L62.3829 58.0664L64.2265 46.73C64.2526 46.5993 64.3572 46.4947 64.5011 46.4816C64.5795 46.4816 72.9085 45.8148 75.1705 41.1207C77.511 36.2698 81.7474 27.3132 81.7867 27.2347C81.7867 27.2086 81.8128 27.1955 81.8259 27.1824C81.9436 27.0255 84.8463 23.3775 88.7035 24.1359L98.6277 24.0313L98.6539 23.9136ZM66.9331 62.4335C67.1161 62.3028 67.1554 61.9759 67.1423 61.819L64.9456 56.8896C64.9456 56.8896 64.9195 56.7719 64.9195 56.7196L66.397 47.763L66.5408 46.6908C65.7432 46.8346 65.1287 46.9131 64.8018 46.9393L62.9713 58.184C63.1543 58.5632 63.9519 60.1323 64.8149 61.8059L65.9786 62.3289C66.4101 62.5251 66.75 62.5643 66.92 62.4335H66.9331ZM18.9335 60.4853L16.7499 55.4382C16.7499 55.4382 16.7238 55.3206 16.7238 55.2682L17.8352 48.809L18.2405 46.1155C17.5214 45.7494 16.9591 45.4094 16.6061 45.1872L14.7886 58.7855C15.4816 59.7923 16.0177 60.6553 16.3708 61.3875H17.5606C17.5606 61.3875 17.6783 61.4267 17.7306 61.4529C18.0444 61.6752 18.2013 61.5967 18.2536 61.5836C18.6066 61.4398 18.8289 60.786 18.9074 60.4722L18.9335 60.4853Z" fill="white"/>
<path d="M16.8671 45.0041L25.3399 41.0161C25.4576 40.9638 25.6014 40.9246 25.7322 40.9246H32.4529C33.1198 40.9246 33.5774 41.6176 33.2897 42.2321C31.8776 45.331 27.3143 52.457 16.8017 46.6516C16.1349 46.2855 16.1741 45.331 16.854 45.0041H16.8671Z" fill="#FBCAC3"/>
<path d="M62.0293 12.3158C62.0293 12.3158 64.7098 15.5584 61.6763 23.1029C58.6428 30.6474 48.7317 28.15 48.7317 28.15C48.7317 28.15 42.8216 36.4267 38.4676 29.3922C34.1135 22.3576 41.1088 19.2457 41.1088 19.2457C39.9843 15.7415 41.5795 12.3027 41.5795 12.3027H62.0293V12.3158Z" fill="#C7C1B5"/>
<path d="M80.1129 30.4643L74.6082 42.3106C74.6082 42.3106 66.9199 39.0548 69.9926 32.6741C73.0653 26.2933 80.1129 30.4643 80.1129 30.4643Z" fill="#C7C1B5"/>
<path d="M10.0684 38.6756L10.7744 22.4099C10.7744 22.4099 19.6657 22.4361 19.1819 31.2488C18.6981 40.0616 10.0814 38.6756 10.0814 38.6756H10.0684Z" fill="#C7C1B5"/>
<path d="M0.928349 48.456C0.719144 48.456 0.509938 48.4429 0.300733 48.4037C0.19613 48.3906 0.104603 48.3252 0.0523014 48.2337C0 48.1422 -0.0130753 48.0376 0.0130753 47.9461C0.313808 47.0308 2.99425 38.9502 5.727 38.8456C6.18464 38.8325 6.55075 39.0418 6.77303 39.4471C7.43987 40.6892 6.6292 43.6966 5.04708 45.8802C3.83107 47.5538 2.39279 48.4429 0.928349 48.4429V48.456ZM0.836822 47.7499C2.52354 47.8022 3.818 46.377 4.47177 45.4748C5.97543 43.3958 6.61612 40.6631 6.14541 39.7871C6.05388 39.6171 5.9362 39.5517 5.75315 39.5517C4.14488 39.604 1.94823 44.4419 0.836822 47.7369V47.7499Z" fill="#231F20"/>
<path d="M5.75294 39.5517C5.55681 39.5517 5.3999 39.3817 5.3999 39.1856L5.67448 18.6442C5.67448 18.6442 5.67448 18.5919 5.67448 18.5658C5.70064 18.4743 6.22365 16.2384 9.19175 14.2509C13.0882 11.6359 19.1421 10.6944 27.1965 11.4528L51.3336 11.8451C66.8409 12.1196 74.66 11.5966 75.9675 10.1976C76.2029 9.94913 76.1898 9.7007 76.1506 9.30844C76.1244 9.02079 76.0983 8.6939 76.229 8.38009C76.3075 8.19704 76.5167 8.11859 76.6997 8.19704C76.8828 8.27549 76.9612 8.4847 76.8828 8.66775C76.8174 8.82466 76.8305 9.02079 76.8566 9.24307C76.8959 9.63533 76.9482 10.1845 76.4774 10.6814C75.4314 11.8058 71.6134 12.9172 51.3205 12.5511L27.1703 12.1589C27.1703 12.1589 27.1573 12.1589 27.1442 12.1589C17.3246 11.2436 12.1729 13.1134 9.58401 14.8393C7.03432 16.5522 6.44593 18.422 6.36748 18.6835L6.0929 39.1725C6.0929 39.3686 5.93599 39.5256 5.73986 39.5256L5.75294 39.5517Z" fill="#231F20"/>
<path d="M15.8733 64.4995C15.7948 64.4995 15.7164 64.4995 15.651 64.4864L11.3492 63.898C11.2054 63.8849 11.0877 63.7672 11.0485 63.6365L9.51864 57.4911C9.51864 57.4911 9.51864 57.4388 9.51864 57.4257C8.81257 39.4863 10.447 20.4094 10.4731 20.2133C10.4731 20.1871 10.4731 20.161 10.4862 20.1348C11.7807 15.9376 14.0558 13.7933 15.7425 12.7473C17.5861 11.5966 19.1029 11.4528 19.1682 11.4528C19.3644 11.4397 19.5344 11.5836 19.5474 11.7797C19.5605 11.9758 19.4167 12.1458 19.2205 12.1589C19.2075 12.1589 17.7692 12.3027 16.0694 13.3749C14.5003 14.3555 12.3821 16.3691 11.1661 20.3179C11.0877 21.2724 9.53172 39.8524 10.2247 57.3603L11.6891 63.2311L15.7556 63.7803C15.7556 63.7803 15.7556 63.7803 15.7687 63.7803C15.7687 63.7803 16.0955 63.8326 16.2132 63.6496C16.344 63.4534 16.5532 62.5512 14.2258 59.1909L12.2252 58.7463C12.0291 58.7071 11.9114 58.5109 11.9507 58.3279C11.9899 58.1318 12.186 58.0141 12.3691 58.0533L14.5134 58.5371C14.6049 58.5502 14.6703 58.6025 14.7226 58.6809C16.6709 61.4529 17.3508 63.2181 16.8016 64.0549C16.5662 64.421 16.1609 64.5256 15.8602 64.5256L15.8733 64.4995Z" fill="#231F20"/>
<path d="M14.4482 59.217C14.4482 59.217 14.422 59.217 14.3959 59.217C14.1997 59.1908 14.069 59.0078 14.0951 58.8117L15.991 44.6249C16.0172 44.468 16.1218 44.3503 16.2787 44.3242C16.3049 44.3242 18.933 43.8142 21.9011 42.2975C24.6208 40.9115 28.2034 38.388 29.8117 34.1908C29.8771 34.0077 30.0863 33.9162 30.2693 33.9816C30.4524 34.047 30.5439 34.2562 30.4785 34.4392C29.1318 37.9303 26.2683 40.8723 22.2018 42.9251C19.6521 44.2196 17.4032 44.7818 16.6579 44.9518L14.8012 58.8901C14.775 59.0732 14.6312 59.2039 14.4482 59.2039V59.217Z" fill="#231F20"/>
<path d="M18.0964 62.2636C17.8872 62.2636 17.6257 62.1982 17.3249 61.989C17.168 61.8713 17.1288 61.6621 17.2334 61.4921C17.3511 61.3352 17.5603 61.296 17.7303 61.4006C18.0179 61.5967 18.1618 61.5444 18.201 61.5183C18.5017 61.4006 18.7371 60.8122 18.8155 60.4722L16.645 55.4513C16.645 55.4513 16.6058 55.3205 16.6189 55.2552L17.7303 48.796C17.7695 48.5998 17.9526 48.4691 18.1356 48.5083C18.3317 48.5475 18.4625 48.7306 18.4233 48.9136L17.3249 55.2683L19.5085 60.3023C19.5347 60.3676 19.5478 60.4461 19.5347 60.5115C19.5085 60.6553 19.2339 61.8713 18.4625 62.1851C18.3579 62.2243 18.2402 62.2636 18.0833 62.2636H18.0964Z" fill="#231F20"/>
<path d="M24.5034 47.8676C20.2147 47.8676 16.3182 45.1087 16.1352 44.9649C15.9783 44.8472 15.939 44.6249 16.0567 44.468C16.1744 44.3111 16.3967 44.2719 16.5536 44.3896C16.6059 44.4288 21.8622 48.1553 26.6347 46.887C29.0536 46.2463 30.9757 44.4288 32.3224 41.4738C32.4009 41.2907 32.6101 41.2123 32.7931 41.3038C32.9762 41.3823 33.0546 41.5914 32.9631 41.7745C31.5118 44.9257 29.4459 46.887 26.8046 47.58C26.0332 47.7761 25.2617 47.8676 24.5034 47.8676Z" fill="#231F20"/>
<path d="M29.3277 48.4298C29.1969 48.4298 29.0662 48.3514 29.0008 48.2206L28.2424 46.6255C28.164 46.4424 28.2424 46.2332 28.4124 46.1547C28.5955 46.0763 28.8047 46.1547 28.8831 46.3247L29.6415 47.9199C29.72 48.103 29.6415 48.3122 29.4715 48.3906C29.4192 48.4168 29.3669 48.4298 29.3146 48.4298H29.3277Z" fill="#231F20"/>
<path d="M24.6344 49.9073C24.4514 49.9073 24.2944 49.7635 24.2814 49.5805L24.1375 47.5407C24.1245 47.3446 24.2683 47.1746 24.4644 47.1615C24.6606 47.1484 24.8305 47.2923 24.8436 47.4884L24.9874 49.5282C25.0005 49.7243 24.8567 49.8943 24.6606 49.9073C24.6606 49.9073 24.6475 49.9073 24.6344 49.9073Z" fill="#231F20"/>
<path d="M19.8481 49.2144C19.8481 49.2144 19.8088 49.2144 19.7958 49.2144C19.5996 49.1882 19.4689 49.0052 19.495 48.809L19.8481 46.6124C19.8742 46.4162 20.0573 46.2855 20.2534 46.3116C20.4495 46.3378 20.5803 46.5209 20.5541 46.717L20.2011 48.9136C20.1749 49.0836 20.018 49.2144 19.8481 49.2144Z" fill="#231F20"/>
<path d="M64.2132 64.2902C64.2132 64.2902 64.1609 64.2902 64.1478 64.2902L59.6368 63.8064C59.493 63.7934 59.3753 63.6888 59.3361 63.558L57.7278 58.4063C57.7278 58.4063 57.7148 58.3409 57.7148 58.3017L57.4794 41.683L28.5698 41.4868C28.3737 41.4868 28.2168 41.3299 28.2168 41.1338C28.2168 40.9377 28.3737 40.7808 28.5698 40.7808L57.8194 40.99C58.0155 40.99 58.1724 41.1469 58.1724 41.343L58.4078 58.2494L59.9245 63.1265L64.1871 63.5841C64.1871 63.5841 64.4486 63.5841 64.527 63.4534C64.5793 63.388 64.6839 63.0873 64.2524 62.2243C63.4418 60.6553 62.6834 59.1516 62.4088 58.6024L60.9313 58.694C60.7352 58.707 60.5652 58.5632 60.5521 58.3671C60.5521 58.171 60.6959 58.001 60.879 57.9879L62.5919 57.8833C62.7357 57.8833 62.8664 57.9487 62.9318 58.0794C62.9318 58.0925 63.8602 59.9492 64.8801 61.8974C65.3246 62.7735 65.4031 63.4011 65.1154 63.8457C64.8801 64.2118 64.4486 64.3033 64.1871 64.3033L64.2132 64.2902Z" fill="#231F20"/>
<path d="M62.6311 58.5894C62.6311 58.5894 62.5919 58.5894 62.5788 58.5894C62.3827 58.5632 62.2519 58.3802 62.2911 58.184L64.174 46.6124C64.2001 46.4555 64.3309 46.3247 64.5009 46.3116C64.5793 46.3116 72.8691 45.6448 75.118 40.9769C77.4585 36.126 81.6949 27.1693 81.7342 27.0909C81.7342 27.0647 81.7603 27.0386 81.7734 27.0255C81.8911 26.8686 84.8199 23.1944 88.7033 23.9528L98.6144 23.8482C99.0982 23.6651 102.524 22.1746 101.138 17.389C100.981 17.1929 100.301 16.4476 99.3728 16.4868C98.4575 16.526 97.503 17.3498 96.6008 18.8665C96.4962 19.0365 96.287 19.0888 96.117 18.9842C95.9471 18.8796 95.8948 18.6704 95.9994 18.5004C97.0454 16.7483 98.1699 15.833 99.3597 15.7807C100.798 15.7153 101.726 16.9575 101.766 17.0098C101.792 17.049 101.805 17.0752 101.818 17.1144C103.531 22.8676 98.8629 24.515 98.8106 24.5281C98.7713 24.5281 98.7321 24.5412 98.706 24.5412L88.7033 24.6458C88.7033 24.6458 88.651 24.6458 88.6249 24.6458C85.3168 23.979 82.6494 27.0909 82.3749 27.4178C82.0741 28.0585 78.0338 36.5836 75.7718 41.2776C73.5621 45.8671 66.3837 46.8216 64.8408 46.9785L63.0103 58.2756C62.9841 58.4456 62.8272 58.5763 62.6572 58.5763L62.6311 58.5894Z" fill="#231F20"/>
<path d="M98.6667 16.4999C98.5752 16.4999 98.4837 16.4606 98.4052 16.3822L86.742 3.94754C86.6112 3.80371 86.6112 3.58143 86.7551 3.45067C86.8989 3.31992 87.1212 3.31992 87.2519 3.46375L98.9151 15.8984C99.0459 16.0422 99.0459 16.2645 98.9021 16.3953C98.8367 16.4606 98.7452 16.4868 98.6536 16.4868L98.6667 16.4999Z" fill="#231F20"/>
<path d="M66.6187 63.1527C66.3441 63.1527 66.0303 63.0742 65.6773 62.9173C65.4942 62.8389 65.4158 62.6297 65.4942 62.4466C65.5727 62.2636 65.7819 62.1851 65.9649 62.2636C66.3833 62.4466 66.6971 62.4858 66.8541 62.3812C67.011 62.2636 67.0371 61.9759 67.0371 61.819L64.8535 56.8896C64.8535 56.8896 64.8143 56.7588 64.8274 56.6935L66.3049 47.7369C66.331 47.5407 66.5141 47.41 66.7102 47.4492C66.9064 47.4754 67.0371 47.6584 66.9979 47.8545L65.5334 56.7065L67.704 61.5967C67.704 61.5967 67.7301 61.6752 67.7301 61.7013C67.7301 61.7929 67.7955 62.5643 67.2594 62.9566C67.0763 63.0873 66.8671 63.1527 66.6056 63.1527H66.6187Z" fill="#231F20"/>
<path d="M75.4185 41.4868C75.3532 41.4868 75.2747 41.4607 75.2224 41.4215C75.157 41.3822 73.7057 40.3754 72.542 38.741C70.9729 36.5313 70.7376 34.23 71.849 32.0857C72.9604 29.9544 74.8563 28.8037 77.3406 28.7514C79.1842 28.7253 80.6879 29.3006 80.7533 29.3268C80.9363 29.4052 81.0279 29.6013 80.9494 29.7844C80.8709 29.9675 80.6748 30.059 80.4918 29.9805C80.4787 29.9805 79.0404 29.4183 77.3406 29.4575C75.1047 29.4967 73.4703 30.4905 72.4897 32.3995C71.4959 34.3085 71.7182 36.2959 73.1303 38.2964C74.2156 39.8393 75.6277 40.8069 75.6408 40.82C75.7977 40.9246 75.85 41.1469 75.7323 41.3168C75.667 41.4214 75.5493 41.4738 75.4447 41.4738L75.4185 41.4868Z" fill="#231F20"/>
<path d="M84.4012 6.52338C84.3228 6.52338 84.2313 6.49723 84.1659 6.43186C84.022 6.3011 83.9959 6.07882 84.1267 5.93499C84.1397 5.92192 85.578 4.26135 87.3432 2.75769C88.4284 1.82934 89.396 1.14942 90.259 0.71793C88.0231 0.665629 84.7412 1.01867 82.453 3.08457C82.3092 3.21532 82.0869 3.20225 81.9561 3.05842C81.8254 2.91459 81.8385 2.69231 81.9823 2.56155C85.3688 -0.485001 90.5336 -0.0796628 92.2987 0.168769C92.5341 0.168769 92.7564 0.207995 92.9525 0.286447C93.1356 0.351824 93.2271 0.534876 93.1748 0.71793C93.1225 0.900985 92.9394 1.00559 92.7564 0.966365C92.7564 0.966365 92.5341 0.927139 92.1811 0.874838C89.9582 0.914064 86.0749 4.79744 84.6627 6.41878C84.5974 6.49723 84.4928 6.53646 84.3882 6.53646L84.4012 6.52338Z" fill="#231F20"/>
<path d="M77.6934 9.38688C77.6934 9.38688 77.615 9.38688 77.5758 9.36073C74.49 8.27548 73.2871 6.1442 72.8163 4.54901C72.3064 2.82306 72.5287 1.3717 72.5418 1.3194C72.5548 1.20172 72.6333 1.11019 72.7379 1.05789C77.1966 -1.19106 81.8122 6.49723 81.9952 6.82412C82.0998 6.9941 82.0345 7.21638 81.8645 7.3079C81.6945 7.41251 81.4722 7.34713 81.3807 7.17715C81.3415 7.0987 77.0528 -0.0535128 73.2217 1.60706C73.1825 2.02547 73.1432 3.13687 73.5093 4.37903C74.1239 6.45801 75.5752 7.90937 77.8111 8.69389C77.9942 8.75927 78.0988 8.9554 78.0334 9.15153C77.9811 9.29535 77.8504 9.38688 77.6934 9.38688Z" fill="#231F20"/>
<path d="M9.87191 37.7081C9.715 37.7081 9.57118 37.6035 9.53195 37.4466C9.47965 37.2635 9.58425 37.0674 9.78038 37.002C9.84576 36.9889 16.4619 34.9884 17.2464 28.843C17.5733 26.3064 16.5926 24.1489 14.3306 22.423C12.6047 21.1155 10.761 20.5663 10.7349 20.5532C10.5518 20.5009 10.4341 20.3048 10.4995 20.1087C10.5518 19.9256 10.748 19.8079 10.9441 19.8733C11.0225 19.8995 12.9185 20.4617 14.749 21.8477C17.2072 23.7044 18.3055 26.1625 17.9525 28.9345C17.5994 31.6803 16.1088 34.06 13.6376 35.8252C11.7809 37.1458 10.055 37.6558 9.97651 37.6819C9.93728 37.6819 9.91113 37.695 9.87191 37.695V37.7081Z" fill="#231F20"/>
<path d="M41.2525 30.2813C41.2525 30.2813 41.174 30.2813 41.1348 30.2813C39.6704 30.229 38.389 29.3399 37.3168 27.6139C36.0747 25.6003 35.7085 23.7305 36.2316 22.0307C36.8984 19.8602 38.8074 18.6704 39.5265 18.2781C38.6767 15.1923 39.9842 12.3027 40.0365 12.1719C40.1149 11.9889 40.3241 11.9104 40.5072 12.002C40.6903 12.0804 40.7687 12.2896 40.6772 12.4727C40.6641 12.5119 39.3435 15.4408 40.2849 18.3566C40.3372 18.5266 40.2588 18.7096 40.0888 18.7881C40.0626 18.7881 37.6175 19.9125 36.8984 22.253C36.4408 23.7436 36.7807 25.4303 37.9052 27.2478C38.8336 28.7515 39.9319 29.5491 41.1348 29.5883C43.8153 29.6798 46.365 26.1625 46.3911 26.1364C46.4696 26.0187 46.6265 25.9664 46.7703 25.9926C46.7964 25.9926 48.9408 26.5287 51.3859 26.2541C54.5893 25.888 56.7468 24.3712 57.8059 21.7431C60.3556 15.3885 58.1981 12.5903 58.172 12.5642C58.0543 12.4073 58.0674 12.185 58.2243 12.0673C58.3812 11.9497 58.6035 11.9627 58.7211 12.1196C58.8258 12.2373 61.1924 15.2316 58.4727 22.0177C57.3221 24.8681 54.9031 26.581 51.4513 26.9732C49.3461 27.2086 47.4764 26.8817 46.8357 26.7509C46.2342 27.5224 43.9068 30.3205 41.2525 30.3205V30.2813Z" fill="#231F20"/>
<path d="M87.0035 11.6751C87.4873 11.6751 87.8795 11.2829 87.8795 10.799C87.8795 10.3152 87.4873 9.92299 87.0035 9.92299C86.5197 9.92299 86.1274 10.3152 86.1274 10.799C86.1274 11.2829 86.5197 11.6751 87.0035 11.6751Z" fill="#231F20"/>
</svg>
