<svg width="20" height="20" viewBox="0 0 21 20" fill="none" xmlns="http://www.w3.org/2000/svg">
<path fill-rule="evenodd" clip-rule="evenodd" d="M13.2879 2.28556C11.5874 2.28556 10.209 3.86449 10.209 5.8122C10.209 6.05056 10.2295 6.28228 10.2683 6.50556C10.3307 6.86519 10.2387 7.23733 10.0209 7.50608C9.80314 7.77486 9.48598 7.90754 9.16821 7.86285C6.96505 7.55327 4.961 6.51055 3.34722 4.95619C3.37866 5.64405 3.58684 6.37473 4.03864 7.1402L4.71586 8.28763L3.60376 8.83125L3.38919 8.93615C3.54868 9.14505 3.74044 9.35967 3.95453 9.57051C4.19745 9.8097 4.43221 10.0085 4.6066 10.1475C4.69322 10.2165 4.7635 10.2697 4.81058 10.3045C4.83408 10.3219 4.85171 10.3346 4.86258 10.3423L4.87367 10.3502L4.8745 10.3509L6.41963 11.4239L4.80285 12.3499C4.72281 12.3957 4.64292 12.4366 4.56337 12.4729C4.88793 12.7862 5.28295 13.0746 5.70321 13.3022L7.08984 14.053L5.92855 15.2005C5.29465 15.827 4.657 16.294 3.83059 16.5408C5.05511 17.2892 6.45821 17.7144 7.95103 17.7144C12.7451 17.7144 16.6062 13.3323 16.6062 7.96193V7.36803L17.0305 7.02669C17.6927 6.494 18.161 5.7736 18.4962 4.95006H16.9706H16.3407L16.0699 4.29856C15.5741 3.10594 14.5137 2.28556 13.2879 2.28556ZM2.0341 10.6275C1.84602 10.8742 1.75684 11.2058 1.79775 11.5385C1.9103 12.4539 2.38887 13.2423 2.91768 13.8441C3.06128 14.0075 3.21487 14.1644 3.37614 14.314C3.35149 14.3219 3.32666 14.3294 3.3016 14.3366C2.82135 14.4743 2.17421 14.503 1.09499 14.3819C0.677745 14.335 0.279465 14.592 0.0981532 15.025C-0.0831583 15.4579 -0.00880995 15.9745 0.284234 16.318C2.22177 18.5885 4.94269 20 7.95103 20C13.6505 20 18.3255 14.931 18.5899 8.53378C19.8762 7.29603 20.5202 5.62052 20.8676 4.09594C20.9457 3.75343 20.8808 3.38883 20.6918 3.10869C20.503 2.82855 20.2113 2.6645 19.9023 2.6645H17.5542C16.6516 1.06288 15.0789 0 13.2879 0C10.625 0 8.44121 2.34945 8.23027 5.33733C6.3656 4.78381 4.72955 3.57591 3.52047 1.93774C3.29994 1.63893 2.96128 1.49013 2.62286 1.54335C2.28444 1.59657 1.99331 1.8444 1.85125 2.20023C1.24796 3.71121 1.1317 5.45403 1.80696 7.22468L1.5738 7.33866C1.11206 7.56436 0.868695 8.14798 1.00555 8.7012C1.18998 9.44686 1.60755 10.1052 2.0341 10.6275Z" fill="black"/>
</svg>
