<svg width="62" height="70" viewBox="0 0 62 70" fill="none" xmlns="http://www.w3.org/2000/svg">
<path d="M61.9359 17.8777C61.9359 17.8777 61.9039 18.1684 61.8077 18.2653C61.7116 18.3622 61.5834 18.4267 61.4553 18.4267C61.4553 18.4267 59.0201 18.5559 57.5462 20.5904C56.1685 22.4635 55.9442 25.3376 56.9054 29.1483C59.693 40.1928 57.8346 47.4589 57.7385 47.7818C57.7385 47.911 56.9054 51.6894 53.7333 55.6292C51.3302 58.6002 47.1008 62.1203 40.1478 63.6381V63.2182C40.1478 62.9276 39.9235 62.7015 39.6351 62.7015C39.6031 62.7015 39.571 62.7015 39.539 62.7015C46.4279 61.3129 50.5612 57.8898 52.9002 55.0156C55.9442 51.2695 56.7452 47.588 56.7452 47.5558C56.7452 47.4589 58.6036 40.1928 55.9121 29.4389C54.8868 25.3053 55.1431 22.1405 56.7452 20.0091C58.0589 18.233 59.9493 17.684 60.8785 17.5225C60.2057 14.8098 55.3995 11.9034 53.509 10.9346C53.2847 10.8377 53.1886 10.5793 53.2207 10.3533C54.1819 5.83215 53.9576 2.958 52.5157 2.02148C50.5292 0.72973 46.3638 3.21635 44.954 4.31434C44.8258 4.41122 44.6656 4.44352 44.5375 4.41122C42.7111 3.9914 41.3013 4.21746 40.308 5.08939C38.1933 6.99473 38.6739 11.3544 38.6739 11.3867C38.6739 11.5482 38.6418 11.7096 38.5137 11.8388C34.7969 15.3265 37.3922 18.6851 37.5204 18.8466C37.5204 18.8466 37.5204 18.8788 37.5524 18.9111L39.6351 22.3989C39.5711 23.0448 39.539 23.6906 39.539 24.2396L36.6873 19.4601C36.399 19.0403 33.6754 15.1328 37.6165 11.2575C37.5204 10.1918 37.3922 6.31656 39.6031 4.31434C40.7886 3.24865 42.4548 2.92571 44.5054 3.34553C45.5307 2.60277 50.3369 -0.594316 53.0605 1.14955C54.8868 2.34442 55.3033 5.28316 54.3101 10.1918C55.8801 11.0315 61.7757 14.3577 61.9679 17.9423L61.9359 17.8777Z" fill="white"/>
<path d="M60.8145 17.458C59.8853 17.6194 58.0269 18.1684 56.6811 19.9446C55.1111 22.076 54.8227 25.2731 55.8481 29.3744C58.5716 40.1282 56.7132 47.3943 56.6811 47.4912C56.6811 47.5235 55.8801 51.205 52.8362 54.9511C50.4972 57.8252 46.3638 61.2484 39.4749 62.637C38.1292 62.8954 36.6553 63.0891 35.0853 63.186C35.0212 63.186 31.3364 63.3152 26.4982 62.2172C21.2754 61.0546 14.6749 58.5357 9.6124 53.078C7.56176 49.881 2.91576 41.1293 5.41498 38.1906C5.54315 38.0614 5.57519 37.8677 5.51111 37.7062C5.51111 37.5447 5.44703 37.3833 5.35091 37.2864C5.35091 37.2864 2.97984 35.155 2.97984 32.7652C2.97984 31.6672 3.49251 30.6661 4.48579 29.7619C4.61395 29.665 4.67803 29.5036 4.67803 29.3744C4.67803 29.2452 4.61395 29.0837 4.48579 28.9869C4.48579 28.9869 1.8584 26.7909 1.8584 24.4334C1.8584 23.4323 2.33901 22.5281 3.30026 21.7208C3.55659 21.6239 4.64599 21.3332 5.79948 22.0114C7.40155 22.9156 8.49095 25.2731 9.00362 28.7931C9.00362 28.89 9.35607 31.3766 10.4134 34.5414C10.4775 34.7029 10.5096 34.8643 10.5736 34.9935C12.0475 39.224 14.739 44.4879 19.5452 46.6193C22.2367 47.8142 25.0243 48.3954 27.6517 48.3954C30.2791 48.3954 32.586 47.8142 34.5406 46.6839C37.5845 44.9077 39.3788 41.8721 39.7633 37.9C40.2119 33.3142 36.7194 28.89 30.8878 26.6617C27.4274 25.3377 23.262 24.9501 19.6413 26.0804C21.0512 25.2085 22.7173 24.4334 24.6398 24.0459C29.3178 23.0448 34.4124 24.3366 39.6992 27.8566C39.8594 27.9535 40.0837 27.9858 40.2439 27.8566C40.4041 27.7597 40.5002 27.5659 40.5002 27.3722C40.5002 27.3399 40.4362 25.9512 40.5002 24.0459C40.5002 24.0459 40.5002 24.0136 40.5002 23.9813C40.6605 20.1707 41.3974 14.3255 44.4734 12.7754C44.7297 12.6462 44.8258 12.3233 44.6977 12.0649C44.5695 11.8066 44.2491 11.7097 43.9928 11.8389C40.9168 13.4212 39.8915 18.3622 39.539 22.2698L37.4563 18.782C37.4563 18.782 37.4563 18.7497 37.4243 18.7174C37.2961 18.5883 34.7008 15.1974 38.4176 11.7097C38.5457 11.5805 38.6098 11.419 38.5778 11.2576C38.5778 11.2253 38.0971 6.86561 40.2119 4.96027C41.1731 4.08834 42.615 3.86228 44.4413 4.2821C44.6016 4.3144 44.7617 4.2821 44.8579 4.18522C46.2997 3.11953 50.4331 0.600609 52.4196 1.89236C53.8615 2.82888 54.0858 5.70303 53.1245 10.2242C53.0605 10.4502 53.1886 10.7086 53.4129 10.8055C55.3034 11.742 60.1096 14.6807 60.7824 17.3934L60.8145 17.458Z" fill="white"/>
<path d="M44.7297 12.1294C44.8579 12.3878 44.7297 12.7107 44.5054 12.8399C41.4294 14.4223 40.6925 20.2675 40.5323 24.0458C40.5323 23.949 40.5323 23.8521 40.4682 23.7875L39.6031 22.3343C39.9235 18.4267 40.9809 13.4858 44.0568 11.9034C44.3132 11.7742 44.6336 11.9034 44.7617 12.1294H44.7297Z" fill="white"/>
<path d="M40.5002 24.0459C40.5002 24.0459 40.5002 24.0782 40.5002 24.1105C40.5002 24.2719 40.4041 24.4011 40.2439 24.498C39.9876 24.6594 39.6672 24.5626 39.539 24.3042L39.4429 24.1427C39.4429 23.5615 39.5069 22.9479 39.539 22.302L40.4041 23.7552C40.4041 23.7552 40.4682 23.949 40.4682 24.0136L40.5002 24.0459Z" fill="white"/>
<path d="M40.5002 27.4368C40.5002 27.6305 40.4041 27.8243 40.2439 27.9212C40.0837 28.018 39.8594 28.018 39.6992 27.9212C34.3803 24.4011 29.3178 23.1094 24.6398 24.1105C22.7173 24.5303 21.0511 25.2731 19.6413 26.145C23.294 24.9824 27.4273 25.4022 30.8878 26.7263C36.7514 28.9546 40.2118 33.3788 39.7633 37.9645C39.3788 41.9367 37.5524 44.9723 34.5405 46.7484C32.586 47.8787 30.215 48.46 27.6516 48.46C25.0883 48.46 22.2367 47.8787 19.5452 46.6839C14.739 44.5525 12.0155 39.2886 10.5736 35.0581C10.6056 35.155 10.6697 35.2519 10.7659 35.3164C10.862 35.381 10.9581 35.4133 11.0542 35.4133C11.2144 35.4133 11.3746 35.3487 11.4708 35.1873L11.631 34.9612C13.0408 38.9333 15.5721 43.7774 19.9617 45.7473C24.9602 47.9756 30.3431 48.0402 33.9958 45.8765C36.7193 44.2618 38.3535 41.5169 38.7059 37.8999C39.1224 33.7986 35.8863 29.7942 30.4713 27.7274C25.1524 25.6929 18.0713 25.9512 14.2904 31.1828C14.4506 30.9568 14.3865 30.6338 14.1622 30.4724C13.938 30.3109 13.6175 30.3432 13.4253 30.6015C13.6816 30.214 17.3984 24.6272 24.3514 23.1417C29.0615 22.1406 34.124 23.2709 39.3788 26.5648C39.3788 25.9835 39.3788 25.1762 39.3788 24.2397L39.4749 24.4011C39.6351 24.6595 39.9555 24.7241 40.1798 24.5949C40.308 24.498 40.4041 24.3688 40.4361 24.2074C40.3721 26.1127 40.4361 27.469 40.4361 27.5336L40.5002 27.4368Z" fill="white"/>
<path d="M40.1157 63.5735V68.9666C40.1157 69.2572 39.8914 69.4833 39.6031 69.4833C39.3147 69.4833 39.0904 69.2572 39.0904 68.9666V63.7672C39.4428 63.7027 39.7953 63.6381 40.1157 63.5735Z" fill="white"/>
<path d="M40.1157 63.1537V63.5735C39.7633 63.6381 39.4428 63.735 39.0904 63.7672V63.1537C39.0904 62.8953 39.2826 62.7016 39.5069 62.637C39.539 62.637 39.571 62.637 39.6031 62.637C39.8914 62.637 40.1157 62.863 40.1157 63.1537Z" fill="white"/>
<path d="M39.507 62.637C39.2827 62.7016 39.0904 62.8953 39.0904 63.1537V63.7673C37.8728 63.9933 36.5592 64.1548 35.1493 64.2194C35.1493 64.2194 34.9891 64.2194 34.7648 64.2194C33.7395 64.2194 30.7276 64.1548 26.9147 63.3474V62.7339C26.9147 62.4755 26.7225 62.2818 26.4982 62.2172C31.3685 63.2829 35.0212 63.1537 35.0852 63.1537C36.6553 63.0568 38.1292 62.863 39.4749 62.6047L39.507 62.637Z" fill="white"/>
<path d="M30.5354 27.6951C35.9504 29.7619 39.1545 33.734 38.77 37.8676C38.4176 41.4845 36.7834 44.2295 34.0599 45.8442C30.4072 47.9756 25.0563 47.9433 20.0258 45.715C15.6361 43.7774 13.1049 38.9333 11.6951 34.9289L14.3865 31.1505C18.1674 25.9189 25.2165 25.6606 30.5674 27.6951H30.5354Z" fill="white"/>
<path d="M26.9147 63.3797V68.9666C26.9147 69.2572 26.6904 69.4833 26.4021 69.4833C26.1137 69.4833 25.8894 69.2572 25.8894 68.9666V63.1537C26.2419 63.2506 26.5943 63.3152 26.9147 63.3797Z" fill="white"/>
<path d="M26.9147 62.7661V63.3797C26.5623 63.3151 26.2419 63.2505 25.8894 63.1536V62.7661C25.8894 62.4754 26.1137 62.2494 26.4021 62.2494C26.4341 62.2494 26.4661 62.2494 26.4982 62.2494C26.7225 62.314 26.9147 62.5077 26.9147 62.7661Z" fill="white"/>
<path d="M26.4982 62.2494C26.4982 62.2494 26.4341 62.2494 26.4021 62.2494C26.1137 62.2494 25.8894 62.4755 25.8894 62.7661V63.1536C20.5705 61.9265 13.938 59.3107 8.84341 53.7561C8.84341 53.7561 8.81137 53.7238 8.77933 53.6915C8.45892 53.2071 1.44186 42.2272 4.42171 37.8353C4.58191 37.9968 4.67804 38.0613 4.67804 38.0936C4.90233 38.2874 5.22274 38.2551 5.41499 38.0613C5.47907 37.9645 5.54315 37.8676 5.54315 37.7384C5.5752 37.8999 5.54315 38.0613 5.44703 38.2228C2.9478 41.1615 7.5938 49.9455 9.64444 53.1103C14.707 58.5679 21.3075 61.0868 26.5302 62.2494H26.4982Z" fill="white"/>
<path d="M14.2263 30.4078C14.4506 30.5692 14.5147 30.8922 14.3545 31.1182C14.1943 31.3443 13.8739 31.4089 13.6496 31.2474C13.4253 31.0859 13.3612 30.7953 13.4894 30.5369V30.5046C13.6496 30.2786 13.97 30.214 14.2263 30.3755V30.4078Z" fill="white"/>
<path d="M14.3545 31.1505L11.663 34.9289C11.5669 34.7028 11.5028 34.4445 11.4387 34.2184C11.3746 34.0247 11.3105 33.8632 11.2785 33.7017L13.4894 30.5692C13.3612 30.7953 13.4253 31.1182 13.6496 31.2797C13.8739 31.4411 14.1943 31.3766 14.3545 31.1505Z" fill="white"/>
<path d="M11.663 34.9288L11.5028 35.1549C11.5028 35.1549 11.2464 35.3809 11.0862 35.3809C10.9901 35.3809 10.8619 35.3809 10.7979 35.2841C10.7017 35.2195 10.6376 35.1226 10.6056 35.0257C10.5415 34.8642 10.5736 34.6705 10.6697 34.5413L11.2785 33.7017C11.3426 33.8631 11.3746 34.0569 11.4387 34.2184C11.5028 34.4444 11.5989 34.6705 11.663 34.9288Z" fill="white"/>
<path d="M11.2785 33.7017L10.6698 34.5413C10.6698 34.5413 10.5416 34.8643 10.6057 35.0258C10.5416 34.8643 10.5096 34.7028 10.4455 34.5736C9.38811 31.4088 9.0677 28.9222 9.03566 28.8253C8.523 25.3053 7.40155 22.9479 5.83152 22.0436C4.67803 21.3978 3.58863 21.6884 3.3323 21.753C2.37106 22.5603 1.89043 23.4646 1.89043 24.4657C1.89043 26.8231 4.48579 28.9868 4.51783 29.0191C4.64599 29.116 4.71007 29.2775 4.71007 29.4066C4.71007 29.5358 4.64599 29.6973 4.51783 29.7942C3.52455 30.6984 3.01188 31.6995 3.01188 32.7975C3.01188 35.1872 5.3509 37.2863 5.38294 37.3186C5.51111 37.4155 5.57519 37.577 5.54315 37.7384C5.54315 37.6416 5.47906 37.5447 5.38294 37.4801C5.15865 37.2863 4.83824 37.3186 4.64599 37.5447C4.54987 37.6416 4.48578 37.7384 4.4217 37.8676C3.74883 37.1894 1.98656 35.1872 1.98656 32.8298C1.98656 31.6026 2.46718 30.4723 3.42842 29.4712C2.59535 28.6639 0.86511 26.7262 0.833069 24.498C0.833069 23.1416 1.4739 21.9468 2.72351 20.9134C2.75555 20.9134 2.81964 20.8488 2.85168 20.8488C2.91576 20.8488 4.58191 20.1383 6.34418 21.1394C8.23462 22.2374 9.51628 24.7563 10.093 28.6639C10.093 28.6639 10.4134 30.8921 11.2785 33.7017Z" fill="white"/>
<path d="M5.54308 37.7384C5.54308 37.7384 5.51103 37.9645 5.41491 38.0614C5.22266 38.2874 4.90225 38.2874 4.67796 38.0937C4.67796 38.0937 4.5498 37.9968 4.42163 37.8353C4.42163 37.8353 4.58184 37.6093 4.64592 37.5124C4.83817 37.2863 5.15858 37.254 5.38287 37.4478C5.47899 37.5124 5.51104 37.6093 5.54308 37.7061V37.7384Z" fill="white"/>
<path d="M35.5018 20.1707C35.5018 20.1707 38.1933 7.22084 49.1194 9.83664C49.1194 9.83664 55.8801 2.31218 44.8579 0.0516163C44.8579 0.0516163 40.7886 -0.723435 41.1411 3.73311C41.1411 3.73311 31.9452 1.89236 33.4191 11.6128C33.4191 11.6128 29.7023 16.0693 35.5018 20.1707Z" fill="#FBCAC3"/>
<path d="M34.2202 64.7359C31.1442 64.7359 17.3664 64.1546 8.10649 54.0789C8.07445 54.0466 8.04241 53.982 8.01037 53.9498C7.20934 52.6903 0.192279 41.5166 3.90907 37.1247C4.29357 36.6726 4.93439 36.6403 5.38297 37.0278C5.83155 37.4153 5.8636 38.0612 5.4791 38.5133C3.42845 40.9031 6.953 48.4598 9.67651 52.7226C19.2569 63.0889 34.5726 62.6368 34.7008 62.6368C52.676 61.6034 55.784 47.5233 55.8161 47.3618C55.8161 47.3618 55.8161 47.3295 55.8161 47.2972C55.8161 47.2326 57.6424 40.0634 54.9509 29.471C53.8615 25.176 54.1819 21.8497 55.8481 19.5891C57.0336 18.0067 58.6036 17.3286 59.6931 17.0379C58.7318 14.9065 55.1432 12.4845 52.7721 11.3219C52.3556 11.0959 52.0992 10.6438 52.2274 10.1594C53.445 4.47564 52.4517 2.82866 51.7468 2.37655C50.1447 1.34315 46.3639 3.44224 44.7618 4.63711C44.5055 4.83088 44.2171 4.89546 43.8967 4.83088C42.2626 4.44335 40.9809 4.63711 40.1478 5.37987C38.5778 6.8008 38.5458 10.0948 38.6739 11.225C38.706 11.548 38.5778 11.9032 38.3535 12.1293C34.9892 15.2941 37.2962 18.2974 37.3923 18.4266C37.7447 18.8787 37.6807 19.5246 37.2321 19.9121C36.7835 20.2673 36.1427 20.2027 35.7582 19.7506C34.5406 18.2005 33.1949 14.4544 36.5592 10.9667C36.4951 9.57806 36.4951 5.83198 38.738 3.82977C40.0197 2.66719 41.7499 2.27967 43.8967 2.69949C45.3385 1.69838 49.9845 -1.24036 52.8682 0.632682C54.8548 1.92443 55.3675 4.92776 54.4062 9.83642C56.4569 10.9667 61.8078 14.1961 62 17.8453C62 18.1359 61.9039 18.3943 61.7437 18.6203C61.5514 18.8141 61.2951 18.9433 61.0067 18.9756C60.9106 18.9756 58.8279 19.1047 57.4822 20.9132C56.2006 22.6571 56.0403 25.3697 56.9375 28.9866C59.6931 39.9342 57.9308 47.2649 57.8026 47.8462C57.7065 48.2337 56.8414 52.0121 53.6693 55.9197C50.6574 59.6335 44.954 64.1869 34.7649 64.7682C34.7008 64.7682 34.4765 64.7682 34.1561 64.7682L34.2202 64.7359Z" fill="#231F20"/>
<path d="M27.2992 48.9122C24.6077 48.9122 21.7561 48.2986 19.0005 47.0714C10.1891 43.1639 8.23462 29.4067 8.17054 28.8254C7.56175 24.6272 6.24806 23.0448 5.25478 22.4635C4.35762 21.9468 3.52454 22.1083 3.23617 22.1729C2.46718 22.8511 2.08269 23.5938 2.08269 24.4012C2.08269 26.145 3.84496 27.9858 4.51783 28.5671C4.74212 28.7608 4.90232 29.0515 4.90232 29.3744C4.90232 29.6973 4.77416 29.988 4.54987 30.1817C3.65271 30.9891 3.20413 31.8287 3.20413 32.7653C3.20413 34.8966 5.3509 36.8666 5.38294 36.8989C5.79948 37.2864 5.86356 37.9323 5.47907 38.3844C5.09457 38.8042 4.45375 38.8688 4.00517 38.4813C3.877 38.3844 1.12144 35.8655 1.12144 32.7975C1.12144 31.5704 1.53798 30.4401 2.37106 29.439C1.40982 28.4379 0 26.5648 0 24.4657C0 22.9479 0.704908 21.6239 2.08269 20.4936C2.14677 20.429 2.24289 20.3644 2.33902 20.3321C2.4031 20.2998 4.29354 19.5248 6.2801 20.6551C8.33075 21.8176 9.67648 24.498 10.2853 28.5671C10.2853 28.6962 12.1757 41.7752 19.8977 45.1984C24.768 47.3621 29.9587 47.4266 33.4512 45.3598C36.0465 43.842 37.5845 41.2262 37.9049 37.7708C38.3214 33.3788 34.2522 29.7942 30.0227 28.1472C24.8641 26.1773 18.0713 26.4357 14.4506 31.4412C14.1302 31.8933 13.4894 32.0225 13.0088 31.6996C12.5282 31.3766 12.4 30.7307 12.7204 30.2786C12.8806 30.0203 16.6935 24.1105 23.9669 22.5604C28.5809 21.5593 33.4832 22.5604 38.5778 25.5637C38.5778 21.6885 39.1225 13.6796 43.4481 11.4513C43.9607 11.193 44.6015 11.3868 44.8579 11.9035C45.1142 12.4202 44.922 13.066 44.4093 13.3244C40.8207 15.1651 40.5323 24.1428 40.7245 27.4368C40.7245 27.8243 40.5323 28.2118 40.2119 28.4056C39.8594 28.5993 39.4429 28.5993 39.1225 28.3733C33.9318 24.9179 29.0294 23.6584 24.4796 24.6272C24.031 24.7241 23.5824 24.8533 23.1338 24.9824C25.7612 24.8533 28.4207 25.3377 30.7917 26.2419C36.8796 28.5671 40.5003 33.1851 40.0196 38.0291C39.6031 42.1628 37.7127 45.3598 34.5406 47.2329C32.522 48.4277 30.0548 49.009 27.3953 49.009L27.2992 48.9122Z" fill="#231F20"/>
<path d="M26.0175 69.9999C25.4408 69.9999 24.9922 69.5155 24.9922 68.9665V62.7338C24.9922 62.1526 25.4728 61.7004 26.0175 61.7004C26.5622 61.7004 27.0428 62.1848 27.0428 62.7338V68.9665C27.0428 69.5478 26.5622 69.9999 26.0175 69.9999Z" fill="#231F20"/>
<path d="M39.2186 70.0001C38.6418 70.0001 38.1932 69.5156 38.1932 68.9667V63.1538C38.1932 62.5725 38.6739 62.1204 39.2186 62.1204C39.7633 62.1204 40.2439 62.6048 40.2439 63.1538V68.9667C40.2439 69.5479 39.7633 70.0001 39.2186 70.0001Z" fill="#231F20"/>
<path d="M47.1969 16.2308C47.8694 16.2308 48.4145 15.6814 48.4145 15.0037C48.4145 14.3259 47.8694 13.7765 47.1969 13.7765C46.5245 13.7765 45.9794 14.3259 45.9794 15.0037C45.9794 15.6814 46.5245 16.2308 47.1969 16.2308Z" fill="#231F20"/>
</svg>
