<svg width="774" height="71" viewBox="0 0 774 71" fill="none" xmlns="http://www.w3.org/2000/svg">
<line y1="70" x2="773" y2="70" stroke="#54C2D4" stroke-width="2"/>
<path d="M661 0C644.433 0 631 13.4327 631 30C631 46.5673 644.433 60 661 60C677.567 60 691 46.5673 691 30C691 13.4327 677.575 0 661 0ZM647.813 55.8561C647.781 54.9371 647.961 54.018 648.355 53.0908C649.397 50.6373 651.317 49.2588 654.066 48.9962C654.239 48.9798 654.403 48.9716 654.567 48.9633C656.101 48.8977 657.406 49.1931 657.849 49.308C657.677 49.7593 657.496 50.2352 657.299 50.7358C656.438 52.9841 655.396 55.692 654.403 58.2686C652.089 57.727 649.881 56.9147 647.813 55.8561ZM661 59.0235C659.039 59.0235 657.119 58.8266 655.264 58.4573C657.431 52.8446 659.818 46.6165 660.056 46.0011C660.36 45.5662 663.355 41.4716 667.499 41.9885C667.532 41.9885 667.556 41.9885 667.589 41.9885L679.931 40.9136C679.98 40.9136 680.021 40.8972 680.062 40.8807C680.119 40.8561 685.724 38.3862 683.065 31.4524C683.049 31.4032 683.024 31.3621 682.991 31.3211C682.942 31.2555 681.678 29.8113 679.906 30.0328C679.725 30.0574 679.545 30.0985 679.364 30.1477L664.069 16.157C665.915 14.2451 668.082 12.4316 669.682 12.2839C670.125 12.3085 670.387 12.3414 670.404 12.3414C670.633 12.366 670.847 12.2183 670.888 11.9885C670.929 11.7588 670.789 11.5372 670.568 11.4798C670.313 11.4141 670.034 11.3895 669.747 11.4059C667.548 11.2664 661.139 11.2664 657.25 15.3446C657.176 15.4185 657.143 15.517 657.135 15.6072C657.127 15.7385 657.168 15.8698 657.266 15.9601C657.389 16.0832 657.57 16.1078 657.718 16.0503C657.775 16.0257 657.833 15.9929 657.882 15.9437C660.516 13.1783 664.528 12.4398 667.294 12.2839C666.276 12.8993 665.136 13.8348 663.888 15.0821C661.862 17.1171 660.237 19.2834 660.22 19.308C660.073 19.5049 660.114 19.7757 660.311 19.9234C660.401 19.9891 660.508 20.0137 660.606 20.0055C660.729 19.9973 660.844 19.9316 660.926 19.8332C661.484 19.0782 662.395 17.954 663.462 16.797L678.503 30.558C677.6 31.1406 676.763 32.1909 676.016 33.7008C675.91 33.9141 676 34.1849 676.213 34.2916C676.435 34.3982 676.697 34.308 676.804 34.0946C677.772 32.1499 678.872 31.0421 679.996 30.9026C681.145 30.7549 682.056 31.6247 682.269 31.8463C684.435 37.6231 680.341 39.7812 679.766 40.052L667.548 41.1187C662.682 40.5525 659.425 45.3528 659.285 45.558C659.269 45.5826 659.252 45.6154 659.244 45.6482C659.228 45.6811 658.809 46.797 658.153 48.4956C657.718 48.3725 655.995 47.9458 654.001 48.1346C653.049 48.2248 652.179 48.4382 651.399 48.7746C649.652 49.5213 648.339 50.8753 647.534 52.7626C647.165 53.6406 646.96 54.5186 646.935 55.4048C646.304 55.052 645.688 54.6827 645.089 54.2888C640.42 51.2281 636.695 46.8545 634.422 41.6931C632.846 38.1236 631.976 34.1685 631.976 30.0164C631.976 29.9426 631.976 29.8769 631.976 29.8031C632.617 29.7456 633.232 29.6964 633.831 29.6389C647.264 28.4163 650.3 27.0952 651.235 25.9218C651.76 25.2653 651.646 24.6007 651.563 24.1083C651.547 24.0263 651.539 23.9524 651.531 23.8786C651.826 23.9852 652.138 24.0837 652.466 24.174C652.515 24.1904 652.565 24.1904 652.614 24.1904C652.794 24.174 652.958 24.0509 653.008 23.8621C653.073 23.6242 652.934 23.3862 652.696 23.3206C649.865 22.5656 647.937 20.9081 646.976 18.3972C646.402 16.9037 646.361 15.5334 646.361 15.0082C650.932 12.6039 656.905 21.023 656.963 21.1132C657.102 21.3102 657.373 21.3594 657.578 21.2199C657.775 21.0804 657.824 20.8096 657.685 20.6045C657.595 20.4732 656.823 19.3818 655.633 18.1017C655.469 17.9294 655.305 17.7489 655.125 17.5684C652.712 15.1149 648.987 12.3742 645.705 14.36C645.582 14.4338 645.508 14.5569 645.491 14.7046C645.491 14.7784 645.352 16.5919 646.139 18.6679C646.747 20.2598 648.01 22.262 650.636 23.4929C650.62 23.7555 650.661 24.0098 650.702 24.2396C650.784 24.7319 650.817 25.0274 650.554 25.3556C649.422 26.7834 643.448 27.9322 632.001 28.9004C632.575 13.3917 645.344 0.984683 661 0.984683C676.656 0.984683 690.024 13.9743 690.024 30.0082C690.024 46.0421 677.034 59.0317 661 59.0317V59.0235Z" fill="#221F1F"/>
<path d="M661 0.98468C645.344 0.98468 632.575 13.3917 632.001 28.9086C643.448 27.9404 649.414 26.7916 650.554 25.3638C650.817 25.0356 650.784 24.7401 650.702 24.2478C650.661 24.018 650.62 23.7637 650.636 23.5011C648.002 22.2702 646.739 20.268 646.14 18.6761C645.352 16.6001 645.483 14.7866 645.491 14.7128C645.499 14.5733 645.582 14.442 645.705 14.3682C648.995 12.3824 652.712 15.1231 655.125 17.5766L657.135 15.6072C657.143 15.5087 657.184 15.4185 657.25 15.3446C661.148 11.2664 667.548 11.2664 669.747 11.4059C670.034 11.3895 670.305 11.4141 670.568 11.4798C670.789 11.5372 670.929 11.7587 670.888 11.9885C670.847 12.2183 670.633 12.366 670.404 12.3414C670.387 12.3414 670.133 12.3085 669.682 12.2839C668.082 12.4316 665.915 14.2451 664.069 16.157L679.364 30.1477C679.545 30.0903 679.725 30.0492 679.906 30.0328C681.678 29.8113 682.942 31.2637 682.991 31.3211C683.024 31.3621 683.049 31.4032 683.065 31.4524C685.724 38.3862 680.119 40.8561 680.062 40.8807C680.021 40.8972 679.972 40.9136 679.931 40.9136L667.589 41.9885C667.589 41.9885 667.532 41.9885 667.499 41.9885C663.347 41.4715 660.36 45.5662 660.056 46.0011C659.818 46.6165 657.439 52.8446 655.264 58.4573C657.119 58.8266 659.031 59.0235 661 59.0235C677.026 59.0235 690.024 46.0339 690.024 30C690.024 13.9661 677.034 0.98468 661 0.98468Z" fill="#84D2F5"/>
<path d="M657.299 50.7358C657.488 50.2352 657.677 49.7593 657.849 49.308C657.406 49.1931 656.101 48.8977 654.567 48.9634C656.323 49.3244 657.595 49.948 657.595 49.948L657.299 50.7358Z" fill="white"/>
<path d="M655.634 18.1018C656.823 19.3818 657.595 20.4732 657.685 20.6045C657.824 20.8014 657.775 21.0804 657.578 21.2199C657.381 21.3594 657.102 21.3102 656.963 21.1132C656.905 21.023 650.932 12.6039 646.361 15.0082C646.361 15.5334 646.402 16.9037 646.977 18.3972C647.937 20.9081 649.865 22.5574 652.696 23.3206C652.934 23.3862 653.073 23.6242 653.008 23.8622C652.958 24.0509 652.794 24.174 652.614 24.1904C652.565 24.1904 652.515 24.1904 652.466 24.174C652.138 24.0837 651.826 23.9852 651.531 23.8786C651.539 23.9524 651.555 24.0263 651.563 24.1083C651.646 24.5925 651.76 25.2653 651.235 25.9218C650.3 27.0952 647.264 28.4081 633.831 29.639C634.586 30.7303 636.481 34.3983 634.422 41.6849C636.695 46.8463 640.42 51.2199 645.089 54.2806C645.155 54.0673 645.229 53.8539 645.319 53.6324C646.673 50.1778 649.077 48.988 651.408 48.7664C652.187 48.43 653.057 48.2166 654.009 48.1264C656.011 47.9376 657.726 48.3643 658.161 48.4874C658.809 46.7888 659.236 45.6729 659.252 45.6401C659.26 45.6072 659.277 45.5826 659.293 45.5498C659.433 45.3446 662.69 40.5361 667.556 41.1105L679.775 40.0438C680.349 39.773 684.444 37.6149 682.277 31.8381C682.064 31.6165 681.153 30.7549 680.004 30.8944C678.88 31.0339 677.772 32.1417 676.812 34.0864C676.706 34.2998 676.443 34.3901 676.222 34.2834C676.008 34.1767 675.918 33.9141 676.025 33.6926C676.771 32.1827 677.608 31.1324 678.511 30.5498L663.47 16.7888C662.403 17.9458 661.492 19.0782 660.934 19.825C660.852 19.9316 660.737 19.9891 660.614 19.9973C660.516 19.9973 660.409 19.9809 660.319 19.9152C660.122 19.7675 660.081 19.4967 660.229 19.2998C660.245 19.2752 661.862 17.1007 663.897 15.0739C665.144 13.8266 666.284 12.8911 667.302 12.2757C664.537 12.4316 660.524 13.1701 657.89 15.9355C657.841 15.9847 657.783 16.0175 657.726 16.0421C657.57 16.0996 657.398 16.0667 657.275 15.9519C657.176 15.8534 657.127 15.7221 657.143 15.599L655.133 17.5684C655.305 17.7489 655.478 17.9212 655.642 18.1018H655.634ZM664.151 23.9524C664.75 23.9032 665.275 24.3545 665.324 24.9535C665.374 25.5525 664.922 26.0777 664.323 26.1269C663.724 26.1762 663.199 25.7248 663.15 25.1176C663.101 24.5186 663.552 23.9934 664.159 23.9442L664.151 23.9524Z" fill="white"/>
<path d="M633.839 29.6307C633.24 29.6882 632.625 29.7374 631.985 29.7949C631.985 29.8687 631.985 29.9344 631.985 30.0082C631.985 34.1603 632.863 38.1072 634.43 41.6849C636.481 34.3982 634.594 30.7303 633.839 29.6389V29.6307Z" fill="#C6C0B4"/>
<path d="M645.319 53.6324C645.237 53.8539 645.163 54.0673 645.089 54.2806C645.688 54.6745 646.304 55.0438 646.935 55.3966C646.968 54.5186 647.165 53.6324 647.534 52.7544C648.339 50.8589 649.652 49.5131 651.399 48.7664C649.069 48.988 646.665 50.1778 645.311 53.6324H645.319Z" fill="#C6C0B4"/>
<path d="M657.595 49.948C657.595 49.948 656.323 49.3244 654.567 48.9633C654.403 48.9633 654.239 48.9798 654.066 48.9962C651.317 49.2588 649.397 50.6373 648.355 53.0908C647.961 54.0181 647.781 54.9371 647.813 55.8561C649.881 56.9147 652.089 57.727 654.403 58.2686C655.396 55.692 656.438 52.9841 657.299 50.7358L657.595 49.948Z" fill="#C6C0B4"/>
<path d="M664.315 26.1269C664.914 26.0777 665.365 25.5525 665.316 24.9535C665.267 24.3545 664.742 23.9032 664.143 23.9524C663.544 24.0016 663.092 24.5268 663.133 25.1258C663.183 25.7248 663.708 26.1761 664.307 26.1351L664.315 26.1269Z" fill="#221F1F"/>
<path d="M26.624 41.864C26.624 37.448 25.792 32.52 22.72 29.128C26.176 26.056 26.112 22.536 26.112 18.248C26.112 9.8 21.568 6.66399 13.632 6.66399C12.096 6.66399 10.496 6.79199 8.96 6.79199C7.104 6.79199 4.672 6.856 4.672 9.35199C4.672 12.808 4.48 16.2 4.48 19.656C4.48 21.832 4.544 24.072 4.608 26.248C4.8 31.432 4.608 36.616 4.608 41.8C4.608 43.528 4.224 51.464 5.76 52.616C6.464 53.192 7.68 53.064 8.512 53.064H9.6C11.392 53.064 13.12 53.384 14.912 53.384C23.296 53.384 26.624 50.376 26.624 41.864ZM9.28 26.568C9.28 21.576 9.408 16.52 9.408 11.528C9.92 11.592 12.224 11.272 13.056 11.272C18.816 11.272 21.184 14.344 21.184 19.784C21.184 22.664 20.352 26.248 17.024 26.824C14.528 26.376 11.84 26.568 9.28 26.568ZM9.6 32.456C9.6 32.2 9.6 31.88 9.664 31.624C10.688 31.496 11.712 31.496 12.736 31.496H15.296C20.928 31.496 21.376 35.4 21.376 40.136V42.056C21.376 47.688 19.584 48.456 14.272 48.456C12.8 48.456 11.264 48.264 9.792 48.136C9.664 42.952 9.6 37.704 9.6 32.456Z" fill="black"/>
<path d="M57.7595 12.424C57.7595 10.376 57.3755 7.36799 54.6875 7.36799C53.0875 7.36799 52.3835 9.99199 52.3835 11.272C52.3835 12.168 52.5115 13 52.6395 13.832C52.8955 15.944 52.7675 17.928 52.7675 20.04C52.7675 26.44 52.8955 32.84 52.8955 39.24C52.8955 43.336 52.6395 47.624 47.9035 48.584C47.4555 48.648 46.8795 48.904 46.4955 48.904C41.3115 48.904 38.9435 44.424 38.9435 38.024C38.9435 32.2 38.8155 26.312 38.8155 20.488C38.8155 17.224 38.9435 13.96 39.0075 10.696C39.0075 10.248 39.1355 9.86399 39.1355 9.41599C39.1355 8.07199 37.4075 7.04799 36.1915 7.04799C32.9275 7.04799 33.9515 13.896 33.9515 15.816V19.848C33.9515 23.944 33.7595 27.976 33.7595 32.072C33.7595 42.184 34.3995 54.152 47.6475 54.152C57.9515 54.152 58.0155 43.976 58.0155 36.296V31.304C58.0155 29 57.6955 26.632 57.6955 24.328C57.6955 20.36 57.7595 16.392 57.7595 12.424Z" fill="black"/>
<path d="M77.1755 51.656C77.8795 45.064 77.4315 38.344 77.4315 31.688L82.2955 20.04C83.2555 17.736 87.0955 10.824 87.0955 9.03199C87.0955 7.17599 86.5835 6.856 85.0475 6.856C83.3835 6.856 82.1675 8.008 81.7195 9.48C79.9915 14.856 77.4315 19.976 75.1275 25.096C73.7835 21.896 72.3115 18.76 70.8395 15.624C70.0715 14.024 68.0235 8.83999 67.2555 7.752C67.0635 7.432 66.6795 7.23999 66.5515 7.17599C66.2315 6.91999 65.8475 6.72799 65.4635 6.72799C63.9275 6.72799 62.9675 7.23999 62.9675 8.904C62.9675 9.48 63.7355 11.016 63.9915 11.656C63.9915 11.72 64.4395 12.68 64.2475 12.744C66.8715 19.144 69.9435 25.288 72.5675 31.688V38.408C72.5675 42.12 72.0555 45.832 72.0555 49.544C72.0555 51.08 72.1195 53.384 74.1675 53.384C75.2555 53.384 76.7915 52.68 77.1755 51.656Z" fill="black"/>
<path d="M109.318 23.368C108.998 24.52 108.742 25.8 108.55 27.016C107.654 32.328 106.822 37.704 105.606 42.952C105.094 45.384 104.326 47.816 103.75 50.248C103.75 50.376 103.622 50.824 103.622 50.952C103.622 52.552 104.966 53.704 106.438 53.704C108.87 53.384 109.126 50.952 109.446 48.584C110.022 44.36 111.11 40.2 111.942 36.04H112.518C115.27 36.04 118.022 36.104 120.774 36.104C121.99 41.416 123.398 46.664 125.062 51.848C125.766 52.424 126.214 53.192 127.238 53.192C128.07 53.192 129.606 52.488 129.606 50.76L126.214 37.704C123.718 27.976 124.742 25.352 121.542 15.816V15.88C120.838 13.384 119.238 6.66399 115.974 6.66399C115.014 6.66399 113.926 7.17599 113.606 8.19999C111.622 13.064 110.598 18.312 109.318 23.368ZM112.838 31.112C113.862 25.8 115.206 19.272 116.358 14.024C117.638 19.08 118.982 25.672 119.814 30.92C118.406 31.048 116.934 31.112 115.526 31.112H112.838Z" fill="black"/>
<path d="M167.262 7.17599C163.038 7.17599 158.814 7.36799 154.59 7.36799C153.246 7.36799 151.774 7.112 150.046 7.112C148.83 7.112 147.677 7.688 146.717 8.77599C147.037 11.656 147.869 12.104 150.301 12.104C151.453 12.104 152.862 11.976 154.462 11.976C154.91 11.976 155.357 11.912 156.637 11.784C156.637 14.792 156.574 17.736 156.574 20.744C156.574 22.792 156.637 24.84 156.637 26.888C156.701 31.496 157.021 36.104 157.085 40.712C157.085 42.056 157.15 43.4 157.15 44.744C157.15 47.048 156.829 49.352 156.829 51.592C156.829 52.68 157.917 53.448 158.941 53.448C160.989 53.384 162.077 51.4 162.077 49.032V35.848C162.077 34.056 161.757 32.136 161.693 30.28C161.501 26.504 161.501 22.728 161.501 18.888C161.501 15.56 161.502 13.768 161.566 11.912C162.846 11.976 164.189 11.912 165.469 11.912C167.261 11.912 168.989 12.104 170.781 12.104C171.613 12.104 172.126 10.44 172.126 9.8C172.126 7.49599 168.926 7.17599 167.262 7.17599Z" fill="black"/>
<path d="M178.467 7.112C176.483 7.112 176.355 9.41599 176.355 10.888C176.355 14.536 176.547 18.44 176.803 22.088C176.867 22.856 176.867 23.688 176.867 24.456C176.867 32.968 176.803 41.416 176.803 49.928C176.803 51.4 177.315 53.384 179.171 53.384C182.371 53.384 182.051 49.288 182.051 47.048C182.051 42.12 181.539 37.192 181.539 32.264C181.539 27.784 181.859 23.368 181.859 18.888C181.859 15.496 181.859 12.04 181.475 8.64799C181.027 7.81599 179.363 7.112 178.467 7.112Z" fill="black"/>
<path d="M199.796 53.704C205.492 53.704 210.676 50.568 210.676 44.36C210.676 42.184 210.356 40.648 207.796 40.648C205.428 40.648 206.132 44.872 205.492 46.152C204.724 47.688 201.204 48.712 199.604 48.712C194.612 48.712 195.124 43.208 194.548 41.928C194.356 38.152 194.1 34.76 194.1 31.304C194.1 29.256 194.163 27.208 194.227 25.16C194.355 21.448 194.163 17.736 194.611 14.024C195.123 12.296 197.748 10.888 199.604 10.888C203.124 10.888 204.147 13.064 205.299 15.816C205.939 17.672 206.26 19.592 208.564 19.592L209.587 19.208C210.163 18.312 210.611 17.288 210.611 16.2C210.611 12.936 207.091 8.008 204.083 6.79199C202.227 6.02399 200.819 6.02399 198.835 6.02399C193.651 6.02399 190.004 10.12 189.62 15.048C189.364 18.184 189.107 21.32 189.107 24.456C189.107 27.976 189.3 31.432 189.428 34.952C189.492 37 189.62 39.048 189.62 41.16C189.62 47.496 192.692 53.704 199.796 53.704Z" fill="black"/>
<path d="M242.193 8.19999C242.193 7.23999 241.553 5.76799 240.401 5.76799C238.417 5.76799 236.881 6.59999 235.537 8.07199C231.121 12.936 226.961 17.992 222.225 22.536C222.097 20.808 222.097 19.144 222.097 17.416C222.097 16.072 222.097 14.728 222.033 13.384L221.841 6.72799C221.777 5.44799 220.497 4.87199 219.409 4.87199C218.513 4.87199 217.105 5.57599 217.105 6.59999C217.105 8.904 217.425 11.272 217.425 13.64C217.425 15.88 217.297 18.12 217.297 20.36C217.297 23.048 217.425 25.736 217.489 28.424C217.489 29.896 217.169 31.368 217.169 32.84C217.169 37 217.233 41.224 217.681 45.384C217.937 47.368 217.937 49.416 217.809 51.4C218.385 52.36 219.921 53 221.073 53C221.969 53 222.865 51.784 222.865 50.952C222.865 48.904 222.481 46.92 222.481 44.936C222.481 41.736 222.225 38.536 222.225 35.336C222.225 33.096 222.609 30.92 222.737 28.68L223.953 27.528C226.897 32.904 231.377 37.448 234.065 42.888C235.281 45.384 237.585 50.44 239.249 52.488C239.697 53 240.401 53.384 241.105 53.384C242.641 53.384 243.281 53.384 243.281 51.592C243.281 47.56 235.729 35.848 233.169 32.584C231.121 29.96 229.393 27.208 227.985 24.136C229.521 22.536 230.929 20.744 232.337 19.016C234.577 16.264 236.881 13.128 239.761 11.08C241.553 9.67199 242.193 10.44 242.193 8.19999Z" fill="black"/>
<path d="M256.875 53.192C258.539 53.192 260.138 53 261.802 53C262.762 53 263.722 53.064 264.682 53.064C265.45 53.064 266.218 51.912 266.218 51.208C266.218 48.776 264.746 48.264 262.634 48.264C260.01 48.264 257.323 48.456 254.699 48.456H253.419C253.419 46.92 253.355 45.32 253.355 43.784V31.112H260.01C261.61 31.112 262.314 30.408 262.314 28.808C262.314 27.528 260.778 26.44 259.626 26.44C257.45 26.44 255.339 26.312 253.163 26.312C253.163 21.448 253.29 16.584 253.29 11.72C253.93 11.656 254.506 11.656 255.146 11.656C258.219 11.656 261.354 11.848 264.426 11.848C266.026 11.848 266.73 10.824 266.73 9.28799C266.09 8.07199 265.002 6.98399 263.53 6.98399C261.162 6.98399 258.73 7.23999 256.362 7.23999C254.954 7.23999 253.482 7.17599 252.074 7.17599C249.258 7.17599 248.042 7.688 248.042 10.504C248.042 13.896 248.49 17.16 248.49 20.552C248.49 23.56 248.234 26.568 248.234 29.576C248.234 33.48 248.426 37.448 248.426 41.352C248.426 44.104 248.171 46.856 248.171 49.544C248.171 53.64 250.283 53.128 253.355 53.128C254.507 53.128 255.723 53.192 256.875 53.192Z" fill="black"/>
<path d="M289.886 7.17599C285.662 7.17599 281.438 7.36799 277.214 7.36799C275.87 7.36799 274.398 7.112 272.67 7.112C271.454 7.112 270.302 7.688 269.342 8.77599C269.662 11.656 270.494 12.104 272.926 12.104C274.078 12.104 275.486 11.976 277.086 11.976C277.534 11.976 277.982 11.912 279.262 11.784C279.262 14.792 279.198 17.736 279.198 20.744C279.198 22.792 279.262 24.84 279.262 26.888C279.326 31.496 279.646 36.104 279.71 40.712C279.71 42.056 279.774 43.4 279.774 44.744C279.774 47.048 279.454 49.352 279.454 51.592C279.454 52.68 280.542 53.448 281.566 53.448C283.614 53.384 284.702 51.4 284.702 49.032V35.848C284.702 34.056 284.382 32.136 284.318 30.28C284.126 26.504 284.126 22.728 284.126 18.888C284.126 15.56 284.126 13.768 284.19 11.912C285.47 11.976 286.814 11.912 288.094 11.912C289.886 11.912 291.614 12.104 293.406 12.104C294.238 12.104 294.75 10.44 294.75 9.8C294.75 7.49599 291.55 7.17599 289.886 7.17599Z" fill="black"/>
<path d="M333.199 7.17599C328.975 7.17599 324.751 7.36799 320.527 7.36799C319.183 7.36799 317.711 7.112 315.983 7.112C314.767 7.112 313.615 7.688 312.655 8.77599C312.975 11.656 313.807 12.104 316.239 12.104C317.391 12.104 318.799 11.976 320.399 11.976C320.847 11.976 321.295 11.912 322.575 11.784C322.575 14.792 322.511 17.736 322.511 20.744C322.511 22.792 322.575 24.84 322.575 26.888C322.639 31.496 322.959 36.104 323.023 40.712C323.023 42.056 323.087 43.4 323.087 44.744C323.087 47.048 322.767 49.352 322.767 51.592C322.767 52.68 323.855 53.448 324.879 53.448C326.927 53.384 328.015 51.4 328.015 49.032V35.848C328.015 34.056 327.695 32.136 327.631 30.28C327.439 26.504 327.439 22.728 327.439 18.888C327.439 15.56 327.439 13.768 327.503 11.912C328.783 11.976 330.127 11.912 331.407 11.912C333.199 11.912 334.927 12.104 336.719 12.104C337.551 12.104 338.063 10.44 338.063 9.8C338.063 7.49599 334.863 7.17599 333.199 7.17599Z" fill="black"/>
<path d="M358.306 6.02399C347.554 6.02399 342.242 11.912 340.13 22.024C339.618 24.456 339.17 27.144 339.17 29.576C339.17 41.992 343.97 54.152 358.306 54.152C361.698 54.152 363.362 53.64 366.498 52.104C373.41 48.712 376.994 41.096 376.994 33.608C376.994 31.944 376.866 30.216 376.866 28.552C376.866 22.344 376.546 20.104 374.114 14.28C372.834 11.208 370.082 9.03199 367.01 7.87999C364.13 6.98399 361.314 6.02399 358.306 6.02399ZM344.162 30.92C344.162 29.704 344.482 28.296 344.61 27.016C344.738 25.16 344.866 23.304 345.314 21.448C346.85 14.792 351.65 11.208 358.434 11.208C365.41 11.208 368.674 13.448 370.594 20.104C371.362 22.024 372.13 27.08 372.13 29.32C372.13 34.888 371.618 41.8 366.882 45.576C363.554 48.2 362.594 48.776 358.178 48.776C348.13 48.776 344.162 39.624 344.162 30.92Z" fill="black"/>
<path d="M416.136 7.17599C411.912 7.17599 407.688 7.36799 403.464 7.36799C402.12 7.36799 400.648 7.112 398.92 7.112C397.704 7.112 396.552 7.688 395.592 8.77599C395.912 11.656 396.744 12.104 399.176 12.104C400.328 12.104 401.736 11.976 403.336 11.976C403.784 11.976 404.232 11.912 405.512 11.784C405.512 14.792 405.448 17.736 405.448 20.744C405.448 22.792 405.512 24.84 405.512 26.888C405.576 31.496 405.896 36.104 405.96 40.712C405.96 42.056 406.024 43.4 406.024 44.744C406.024 47.048 405.704 49.352 405.704 51.592C405.704 52.68 406.792 53.448 407.816 53.448C409.864 53.384 410.952 51.4 410.952 49.032V35.848C410.952 34.056 410.632 32.136 410.568 30.28C410.376 26.504 410.376 22.728 410.376 18.888C410.376 15.56 410.376 13.768 410.44 11.912C411.72 11.976 413.064 11.912 414.344 11.912C416.136 11.912 417.864 12.104 419.656 12.104C420.488 12.104 421 10.44 421 9.8C421 7.49599 417.8 7.17599 416.136 7.17599Z" fill="black"/>
<path d="M427.918 53.896C428.814 53.896 430.03 53.192 430.414 52.424C430.606 51.08 430.926 49.8 430.926 48.392V35.656C430.926 33.992 430.926 32.392 430.734 30.728C433.614 30.408 436.046 30.472 438.286 30.472C439.054 30.472 439.822 30.536 440.59 30.664C441.23 37.704 441.102 44.616 441.102 51.72C441.102 52.936 442.958 53.32 443.918 53.32C446.35 53.32 446.222 51.592 446.222 49.736C446.222 47.24 446.03 44.744 446.03 42.248C446.03 37.448 445.966 32.584 445.838 27.784C445.838 26.888 445.582 26.376 445.582 25.096C445.582 21.96 445.774 18.76 445.774 15.624C445.774 13.064 445.582 10.44 444.75 8.008C444.238 7.36799 443.662 6.91999 442.83 6.91999C440.526 6.91999 440.398 8.26399 440.398 10.12C440.398 12.68 440.654 15.304 440.654 17.864C440.654 20.488 440.654 23.048 440.462 25.672H439.95C436.622 25.672 433.358 25.864 430.094 25.864C430.094 23.368 430.158 20.872 430.158 18.376V8.584C430.158 7.62399 428.558 6.66399 427.662 6.66399C426.766 6.66399 425.358 7.30399 425.358 8.328V15.368C425.358 17.224 425.23 19.08 425.23 20.936C425.23 25.48 425.806 30.024 425.806 34.568C425.806 38.792 426.062 43.08 426.062 47.304C426.062 48.392 425.806 49.48 425.806 50.568C425.806 51.912 426.19 53.896 427.918 53.896Z" fill="black"/>
<path d="M463.999 53.192C465.663 53.192 467.263 53 468.927 53C469.887 53 470.847 53.064 471.807 53.064C472.575 53.064 473.343 51.912 473.343 51.208C473.343 48.776 471.871 48.264 469.759 48.264C467.135 48.264 464.447 48.456 461.823 48.456H460.543C460.543 46.92 460.479 45.32 460.479 43.784V31.112H467.135C468.735 31.112 469.439 30.408 469.439 28.808C469.439 27.528 467.903 26.44 466.751 26.44C464.575 26.44 462.463 26.312 460.287 26.312C460.287 21.448 460.415 16.584 460.415 11.72C461.055 11.656 461.631 11.656 462.271 11.656C465.344 11.656 468.479 11.848 471.551 11.848C473.151 11.848 473.855 10.824 473.855 9.28799C473.215 8.07199 472.127 6.98399 470.655 6.98399C468.287 6.98399 465.855 7.23999 463.487 7.23999C462.079 7.23999 460.607 7.17599 459.199 7.17599C456.383 7.17599 455.167 7.688 455.167 10.504C455.167 13.896 455.615 17.16 455.615 20.552C455.615 23.56 455.359 26.568 455.359 29.576C455.359 33.48 455.551 37.448 455.551 41.352C455.551 44.104 455.295 46.856 455.295 49.544C455.295 53.64 457.407 53.128 460.479 53.128C461.631 53.128 462.847 53.192 463.999 53.192Z" fill="black"/>
<path d="M516.981 9.60799C516.277 7.112 512.885 6.856 510.773 6.856C508.469 6.856 506.229 7.23999 503.925 7.23999C501.941 7.23999 499.637 7.23999 497.525 6.47199C496.757 6.47199 495.605 8.39199 495.605 9.09599C495.605 9.28799 495.797 9.73599 495.861 9.92799C496.373 11.08 496.437 12.424 496.437 13.64C496.437 17.608 496.309 20.36 496.437 25.48C496.629 32.392 496.245 39.176 495.861 46.088C495.861 51.208 496.565 53.256 499.637 53.256C501.237 51.976 501.237 51.144 501.237 49.224C501.237 48.2 500.853 45.96 500.853 40.072C500.853 37.448 500.917 34.76 501.045 32.136C503.605 31.88 506.229 31.88 508.789 31.752C509.685 31.112 510.133 29.768 510.133 28.68C510.133 27.656 508.853 27.08 507.957 27.08H501.173C501.109 26.12 501.109 25.16 501.109 24.2V12.04C501.237 12.04 501.301 12.104 501.429 12.104C504.181 12.104 506.869 11.592 509.621 11.592C511.285 11.592 513.589 12.424 514.357 12.424C515.829 12.424 516.789 10.888 516.981 9.60799Z" fill="black"/>
<path d="M521.068 23.368C520.748 24.52 520.492 25.8 520.3 27.016C519.404 32.328 518.572 37.704 517.356 42.952C516.844 45.384 516.076 47.816 515.5 50.248C515.5 50.376 515.372 50.824 515.372 50.952C515.372 52.552 516.716 53.704 518.188 53.704C520.62 53.384 520.876 50.952 521.196 48.584C521.772 44.36 522.86 40.2 523.692 36.04H524.268C527.02 36.04 529.772 36.104 532.524 36.104C533.74 41.416 535.148 46.664 536.812 51.848C537.516 52.424 537.964 53.192 538.988 53.192C539.82 53.192 541.356 52.488 541.356 50.76L537.964 37.704C535.468 27.976 536.492 25.352 533.292 15.816V15.88C532.588 13.384 530.988 6.66399 527.724 6.66399C526.764 6.66399 525.676 7.17599 525.356 8.19999C523.372 13.064 522.348 18.312 521.068 23.368ZM524.588 31.112C525.612 25.8 526.956 19.272 528.108 14.024C529.388 19.08 530.732 25.672 531.564 30.92C530.156 31.048 528.684 31.112 527.276 31.112H524.588Z" fill="black"/>
<path d="M548.217 7.112C546.233 7.112 546.105 9.41599 546.105 10.888C546.105 14.536 546.297 18.44 546.553 22.088C546.617 22.856 546.617 23.688 546.617 24.456C546.617 32.968 546.553 41.416 546.553 49.928C546.553 51.4 547.065 53.384 548.921 53.384C552.121 53.384 551.801 49.288 551.801 47.048C551.801 42.12 551.289 37.192 551.289 32.264C551.289 27.784 551.609 23.368 551.609 18.888C551.609 15.496 551.609 12.04 551.225 8.64799C550.777 7.81599 549.113 7.112 548.217 7.112Z" fill="black"/>
<path d="M563.29 6.91999C561.946 6.91999 560.73 8.26399 560.73 9.60799C560.73 11.08 560.858 12.616 560.922 14.088C561.114 18.952 560.922 23.752 560.922 28.616V33.352C560.922 36.488 561.37 39.56 561.37 42.696C561.37 44.616 561.114 49.928 561.434 51.528C561.754 52.936 563.866 53.256 565.082 53.256C566.554 52.296 566.682 51.016 566.682 49.416C566.682 44.872 566.298 40.2 566.042 35.72C567.706 35.848 569.37 35.976 571.034 35.976C573.978 41.352 577.114 46.792 579.674 52.424C580.314 52.808 581.018 53.128 581.786 53.128C583.13 53.128 584.154 52.296 584.154 50.888C584.154 49.032 579.482 40.328 578.586 38.984C577.818 37.704 576.986 36.424 576.346 35.016C579.418 33.864 581.722 29.64 581.722 26.44C581.722 24.392 581.85 22.408 581.85 20.36C581.85 16.712 581.21 13.256 578.778 10.376C578.074 9.54399 577.818 9.09599 576.858 8.51999C574.106 6.856 566.682 6.91999 563.29 6.91999ZM565.786 20.104V14.664C565.786 13.768 565.85 12.936 565.85 12.04C566.042 11.976 566.298 11.976 568.73 11.976C569.434 11.976 570.202 11.976 570.906 12.04C573.53 12.296 575.514 12.872 576.154 15.752C576.73 18.376 576.858 21.128 576.858 23.816C576.858 29 575.386 30.984 570.202 30.984H568.666C567.77 30.984 567.002 30.664 566.17 30.6C566.17 29.96 565.914 29.256 565.914 28.616C565.786 25.8 565.786 22.92 565.786 20.104Z" fill="black"/>
<path d="M623.261 7.17599C619.037 7.17599 614.813 7.36799 610.589 7.36799C609.245 7.36799 607.773 7.112 606.045 7.112C604.829 7.112 603.678 7.688 602.718 8.77599C603.038 11.656 603.87 12.104 606.302 12.104C607.454 12.104 608.862 11.976 610.462 11.976C610.91 11.976 611.358 11.912 612.638 11.784C612.638 14.792 612.574 17.736 612.574 20.744C612.574 22.792 612.638 24.84 612.638 26.888C612.702 31.496 613.022 36.104 613.086 40.712C613.086 42.056 613.149 43.4 613.149 44.744C613.149 47.048 612.83 49.352 612.83 51.592C612.83 52.68 613.918 53.448 614.942 53.448C616.99 53.384 618.078 51.4 618.078 49.032V35.848C618.078 34.056 617.757 32.136 617.693 30.28C617.501 26.504 617.502 22.728 617.502 18.888C617.502 15.56 617.502 13.768 617.566 11.912C618.846 11.976 620.189 11.912 621.469 11.912C623.261 11.912 624.99 12.104 626.782 12.104C627.614 12.104 628.126 10.44 628.126 9.8C628.126 7.49599 624.925 7.17599 623.261 7.17599Z" fill="black"/>
<path d="M718.331 24.84C718.331 22.472 718.267 20.04 718.139 17.672C717.819 11.592 714.107 6.91999 707.707 6.91999C706.555 6.91999 705.403 7.04799 704.251 7.04799C702.843 7.04799 695.355 6.216 695.355 8.64799C695.355 9.8 695.803 11.208 695.931 12.36C696.123 14.984 696.123 17.608 696.123 22.92C696.123 27.976 695.611 33.032 695.611 38.088C695.611 45.064 696.187 48.904 695.867 51.016C695.867 53.192 697.339 53.192 699.067 53.192C701.243 53.192 703.483 53.128 705.659 53.128C711.483 53.128 718.075 49.672 718.075 43.144V35.784C718.075 32.136 718.331 28.488 718.331 24.84ZM700.859 35.784C700.859 30.536 701.051 25.352 701.051 20.104C701.051 17.416 700.987 14.664 700.859 11.976C702.395 11.784 703.931 11.72 705.467 11.72C713.723 11.72 713.595 16.776 713.595 23.624C713.595 26.952 713.147 30.216 713.147 33.544V41.416C713.147 44.552 711.099 47.496 708.027 48.072C706.683 48.2 705.339 48.328 703.995 48.328C703.035 48.328 702.139 48.2 701.179 48.2C701.115 44.04 700.859 39.88 700.859 35.784Z" fill="black"/>
<path d="M727.381 23.368C727.061 24.52 726.805 25.8 726.613 27.016C725.717 32.328 724.885 37.704 723.669 42.952C723.157 45.384 722.389 47.816 721.813 50.248C721.813 50.376 721.685 50.824 721.685 50.952C721.685 52.552 723.029 53.704 724.501 53.704C726.933 53.384 727.188 50.952 727.508 48.584C728.084 44.36 729.173 40.2 730.005 36.04H730.581C733.333 36.04 736.085 36.104 738.837 36.104C740.053 41.416 741.461 46.664 743.125 51.848C743.829 52.424 744.276 53.192 745.3 53.192C746.132 53.192 747.669 52.488 747.669 50.76L744.277 37.704C741.781 27.976 742.805 25.352 739.605 15.816V15.88C738.901 13.384 737.301 6.66399 734.037 6.66399C733.077 6.66399 731.989 7.17599 731.669 8.19999C729.685 13.064 728.661 18.312 727.381 23.368ZM730.901 31.112C731.925 25.8 733.268 19.272 734.42 14.024C735.7 19.08 737.045 25.672 737.877 30.92C736.469 31.048 734.997 31.112 733.589 31.112H730.901Z" fill="black"/>
<path d="M763.613 51.656C764.317 45.064 763.869 38.344 763.869 31.688L768.733 20.04C769.693 17.736 773.533 10.824 773.533 9.03199C773.533 7.17599 773.021 6.856 771.485 6.856C769.821 6.856 768.605 8.008 768.157 9.48C766.429 14.856 763.869 19.976 761.565 25.096C760.221 21.896 758.749 18.76 757.277 15.624C756.509 14.024 754.461 8.83999 753.693 7.752C753.501 7.432 753.117 7.23999 752.989 7.17599C752.669 6.91999 752.285 6.72799 751.901 6.72799C750.365 6.72799 749.405 7.23999 749.405 8.904C749.405 9.48 750.173 11.016 750.429 11.656C750.429 11.72 750.877 12.68 750.685 12.744C753.309 19.144 756.381 25.288 759.005 31.688V38.408C759.005 42.12 758.493 45.832 758.493 49.544C758.493 51.08 758.557 53.384 760.605 53.384C761.693 53.384 763.229 52.68 763.613 51.656Z" fill="black"/>
</svg>
