<svg width="59" height="59" viewBox="0 0 59 59" fill="none" xmlns="http://www.w3.org/2000/svg">
<path d="M29.5 0C13.2088 0 0 13.2088 0 29.5C0 45.7912 13.2088 59 29.5 59C45.7912 59 59 45.7912 59 29.5C59 13.2088 45.7992 0 29.5 0ZM16.5332 54.9252C16.501 54.0215 16.6785 53.1177 17.0658 52.206C18.0905 49.7933 19.9787 48.4378 22.6818 48.1796C22.8512 48.1634 23.0126 48.1554 23.174 48.1473C24.6828 48.0827 25.9658 48.3732 26.4015 48.4862C26.2321 48.93 26.0546 49.398 25.8609 49.8902C25.0137 52.1011 23.9889 54.7638 23.0126 57.2975C20.7371 56.7649 18.5666 55.9661 16.5332 54.9252ZM29.5 58.0398C27.5715 58.0398 25.6834 57.8461 23.8598 57.483C25.99 51.9639 28.3381 45.8396 28.5721 45.2344C28.8706 44.8068 31.8158 40.7804 35.8906 41.2887C35.9229 41.2887 35.9471 41.2887 35.9793 41.2887L48.115 40.2317C48.1634 40.2317 48.2038 40.2155 48.2441 40.1994C48.3006 40.1752 53.8117 37.7464 51.1973 30.9282C51.1812 30.8798 51.157 30.8394 51.1247 30.7991C51.0763 30.7345 49.8337 29.3144 48.0908 29.5323C47.9133 29.5565 47.7358 29.5968 47.5583 29.6452L32.5178 15.8877C34.3333 14.0077 36.4635 12.2244 38.0369 12.0792C38.4726 12.1034 38.7309 12.1357 38.747 12.1357C38.9729 12.1599 39.1827 12.0146 39.2231 11.7887C39.2634 11.5628 39.1262 11.3449 38.9084 11.2884C38.6582 11.2239 38.3839 11.1997 38.1015 11.2158C35.939 11.0786 29.6372 11.0786 25.8125 15.0889C25.7399 15.1615 25.7076 15.2583 25.6995 15.3471C25.6915 15.4762 25.7318 15.6053 25.8286 15.6941C25.9497 15.8151 26.1272 15.8393 26.2724 15.7828C26.3289 15.7586 26.3854 15.7263 26.4338 15.6779C29.0239 12.9587 32.9696 12.2325 35.6889 12.0792C34.6883 12.6844 33.5667 13.6042 32.3403 14.8307C30.3472 16.8318 28.7496 18.962 28.7335 18.9862C28.5882 19.1798 28.6286 19.4461 28.8222 19.5914C28.911 19.6559 29.0159 19.6801 29.1127 19.672C29.2337 19.664 29.3467 19.5994 29.4274 19.5026C29.9761 18.7603 30.8717 17.6548 31.9207 16.5171L46.711 30.0487C45.8234 30.6216 45.0004 31.6544 44.2661 33.1391C44.1612 33.3489 44.25 33.6152 44.4598 33.72C44.6777 33.8249 44.9359 33.7362 45.0408 33.5264C45.9929 31.6141 47.0741 30.5248 48.1796 30.3876C49.3092 30.2423 50.2049 31.0976 50.4147 31.3155C52.5449 36.996 48.5185 39.1182 47.9536 39.3844L35.939 40.4334C31.1541 39.8766 27.9508 44.597 27.8136 44.7987C27.7975 44.8229 27.7813 44.8552 27.7732 44.8874C27.7571 44.9197 27.3456 46.0171 26.7001 47.6874C26.2724 47.5663 24.578 47.1467 22.6172 47.3323C21.6812 47.4211 20.8259 47.6309 20.0594 47.9617C18.3407 48.696 17.0496 50.0274 16.2589 51.8832C15.8958 52.7466 15.6941 53.61 15.6699 54.4814C15.0485 54.1344 14.4434 53.7713 13.8543 53.384C9.26313 50.3743 5.59984 46.0736 3.36474 40.9982C1.81551 37.4882 0.960202 33.599 0.960202 29.5161C0.960202 29.4435 0.960202 29.379 0.960202 29.3063C1.58958 29.2499 2.19475 29.2014 2.78378 29.145C15.9926 27.9427 18.9781 26.6436 19.898 25.4897C20.4144 24.8442 20.3014 24.1906 20.2207 23.7065C20.2046 23.6258 20.1965 23.5532 20.1885 23.4806C20.4789 23.5855 20.7856 23.6823 21.1083 23.7711C21.1567 23.7872 21.2051 23.7872 21.2536 23.7872C21.4311 23.7711 21.5924 23.65 21.6409 23.4644C21.7054 23.2304 21.5682 22.9964 21.3342 22.9319C18.5505 22.1896 16.6543 20.5596 15.7102 18.0905C15.1454 16.622 15.105 15.2745 15.105 14.7581C19.5994 12.3939 25.4736 20.6726 25.5301 20.7614C25.6673 20.955 25.9335 21.0034 26.1353 20.8662C26.3289 20.7291 26.3773 20.4628 26.2402 20.2611C26.1514 20.132 25.3929 19.0588 24.2229 17.8001C24.0615 17.6306 23.9002 17.4531 23.7226 17.2756C21.3504 14.863 17.6871 12.1679 14.4595 14.1206C14.3385 14.1932 14.2659 14.3143 14.2497 14.4595C14.2497 14.5321 14.1126 16.3154 14.8872 18.3568C15.4843 19.9222 16.7269 21.891 19.3089 23.1013C19.2928 23.3595 19.3332 23.6097 19.3735 23.8356C19.4542 24.3197 19.4865 24.6102 19.2283 24.933C18.1147 26.337 12.2406 27.4666 0.984409 28.4188C1.54923 13.1685 14.1045 0.968271 29.5 0.968271C44.8955 0.968271 58.0398 13.7414 58.0398 29.5081C58.0398 45.2748 45.2667 58.0479 29.5 58.0479V58.0398Z" fill="#221F1F"/>
<path d="M29.5 0.968277C14.1045 0.968277 1.5492 13.1685 0.98438 28.4268C12.2405 27.4747 18.1066 26.3451 19.2282 24.9411C19.4864 24.6183 19.4542 24.3278 19.3735 23.8437C19.3331 23.6178 19.2928 23.3676 19.3089 23.1094C16.7188 21.8991 15.4762 19.9303 14.8871 18.3649C14.1125 16.3234 14.2416 14.5402 14.2497 14.4676C14.2578 14.3304 14.3385 14.2013 14.4595 14.1287C17.6951 12.176 21.3504 14.871 23.7226 17.2836L25.6995 15.3471C25.7076 15.2503 25.7479 15.1615 25.8125 15.0889C29.6452 11.0786 35.939 11.0786 38.1014 11.2158C38.3839 11.1997 38.6501 11.2239 38.9083 11.2884C39.1262 11.3449 39.2634 11.5628 39.223 11.7887C39.1827 12.0146 38.9729 12.1599 38.747 12.1357C38.7308 12.1357 38.4807 12.1034 38.0369 12.0792C36.4634 12.2244 34.3333 14.0077 32.5177 15.8877L47.5582 29.6452C47.7357 29.5888 47.9133 29.5484 48.0908 29.5323C49.8337 29.3144 51.0763 30.7426 51.1247 30.7991C51.157 30.8394 51.1812 30.8798 51.1973 30.9282C53.8116 37.7464 48.3006 40.1752 48.2441 40.1994C48.2037 40.2155 48.1553 40.2317 48.115 40.2317L35.9793 41.2887C35.9793 41.2887 35.9228 41.2887 35.8906 41.2887C31.8077 40.7804 28.8706 44.8068 28.572 45.2344C28.338 45.8396 25.9981 51.9639 23.8598 57.483C25.6834 57.8461 27.5634 58.0398 29.5 58.0398C45.2586 58.0398 58.0398 45.2667 58.0398 29.5C58.0398 13.7333 45.2667 0.968277 29.5 0.968277Z" fill="#54C2D4"/>
<path d="M25.8609 49.8902C26.0465 49.398 26.2321 48.93 26.4015 48.4862C25.9658 48.3732 24.6828 48.0827 23.1739 48.1473C24.9007 48.5023 26.1514 49.1156 26.1514 49.1156L25.8609 49.8902Z" fill="white"/>
<path d="M24.2229 17.8C25.3929 19.0588 26.1514 20.132 26.2401 20.2611C26.3773 20.4547 26.3289 20.7291 26.1352 20.8662C25.9416 21.0034 25.6672 20.955 25.5301 20.7613C25.4736 20.6726 19.5994 12.3939 15.105 14.7581C15.105 15.2745 15.1453 16.622 15.7102 18.0905C16.6542 20.5596 18.5504 22.1815 21.3342 22.9319C21.5682 22.9964 21.7054 23.2304 21.6408 23.4644C21.5924 23.65 21.431 23.7711 21.2535 23.7872C21.2051 23.7872 21.1567 23.7872 21.1083 23.7711C20.7855 23.6823 20.4789 23.5855 20.1884 23.4806C20.1965 23.5532 20.2126 23.6258 20.2207 23.7065C20.3014 24.1826 20.4144 24.8442 19.8979 25.4897C18.9781 26.6436 15.9926 27.9346 2.78375 29.145C3.52609 30.2181 5.39002 33.8249 3.36472 40.9901C5.59981 46.0655 9.2631 50.3662 13.8543 53.376C13.9189 53.1662 13.9915 52.9564 14.0803 52.7385C15.4116 49.3415 17.7758 48.1715 20.0674 47.9536C20.8339 47.6228 21.6893 47.413 22.6252 47.3243C24.5941 47.1387 26.2805 47.5583 26.7081 47.6793C27.3456 46.009 27.7652 44.9116 27.7813 44.8794C27.7894 44.8471 27.8055 44.8229 27.8216 44.7906C27.9588 44.5889 31.1622 39.8605 35.947 40.4253L47.9617 39.3764C48.5265 39.1101 52.5529 36.988 50.4227 31.3074C50.2129 31.0896 49.3173 30.2423 48.1876 30.3795C47.0822 30.5167 45.9929 31.606 45.0488 33.5183C44.9439 33.7281 44.6857 33.8169 44.4678 33.712C44.258 33.6071 44.1693 33.3489 44.2742 33.131C45.0085 31.6463 45.8315 30.6135 46.7191 30.0406L31.9287 16.509C30.8798 17.6467 29.9841 18.7602 29.4354 19.4945C29.3547 19.5994 29.2418 19.6559 29.1207 19.664C29.0239 19.664 28.919 19.6478 28.8303 19.5833C28.6366 19.438 28.5963 19.1718 28.7415 18.9781C28.7576 18.9539 30.3472 16.8156 32.3483 14.8226C33.5748 13.5961 34.6964 12.6763 35.6969 12.0711C32.9777 12.2244 29.032 12.9506 26.4418 15.6698C26.3934 15.7183 26.337 15.7505 26.2805 15.7747C26.1272 15.8312 25.9577 15.799 25.8367 15.686C25.7399 15.5892 25.6914 15.4601 25.7076 15.339L23.7307 17.2756C23.9001 17.4531 24.0696 17.6225 24.231 17.8H24.2229ZM32.5984 23.5532C33.1875 23.5048 33.7039 23.9486 33.7523 24.5376C33.8007 25.1266 33.3569 25.643 32.7679 25.6915C32.1789 25.7399 31.6624 25.2961 31.614 24.699C31.5656 24.1099 32.0094 23.5935 32.6065 23.5451L32.5984 23.5532Z" fill="white"/>
<path d="M2.79181 29.1369C2.20278 29.1934 1.59761 29.2418 0.968232 29.2983C0.968232 29.3709 0.968232 29.4355 0.968232 29.5081C0.968232 33.5909 1.83161 37.4721 3.37277 40.9902C5.39 33.8249 3.53415 30.2181 2.79181 29.145V29.1369Z" fill="#C6C0B4"/>
<path d="M14.0802 52.7385C13.9995 52.9564 13.9269 53.1662 13.8543 53.376C14.4433 53.7633 15.0485 54.1264 15.6698 54.4733C15.7021 53.61 15.8957 52.7385 16.2588 51.8751C17.0496 50.0112 18.3406 48.6879 20.0593 47.9536C17.7677 48.1715 15.4035 49.3415 14.0721 52.7385H14.0802Z" fill="#C6C0B4"/>
<path d="M26.1514 49.1156C26.1514 49.1156 24.9007 48.5023 23.174 48.1473C23.0126 48.1473 22.8512 48.1634 22.6818 48.1796C19.9787 48.4378 18.0905 49.7934 17.0658 52.206C16.6785 53.1178 16.501 54.0215 16.5332 54.9252C18.5666 55.9661 20.7371 56.7649 23.0126 57.2975C23.9889 54.7638 25.0137 52.1011 25.8609 49.8902L26.1514 49.1156Z" fill="#C6C0B4"/>
<path d="M32.7597 25.6915C33.3488 25.6431 33.7925 25.1266 33.7441 24.5376C33.6957 23.9486 33.1793 23.5048 32.5903 23.5532C32.0012 23.6016 31.5574 24.118 31.5978 24.7071C31.6462 25.2961 32.1626 25.7399 32.7517 25.6995L32.7597 25.6915Z" fill="#221F1F"/>
</svg>
