<svg width="168" height="59" viewBox="0 0 168 59" fill="none" xmlns="http://www.w3.org/2000/svg">
<path d="M72.1049 21.1131C72.1049 21.9148 72.0611 22.7339 72.0611 23.5355C72.0611 26.2557 70.0962 27.8326 67.4923 27.8326C67.059 27.8326 66.6258 27.7888 66.1925 27.7406V29.887C66.1925 30.4346 66.3063 31.0084 66.3063 31.5778C66.3063 32.1035 66.442 33.5884 65.6455 33.5884C65.1203 33.5884 64.5252 33.2687 64.5033 32.6948C64.4333 31.3457 64.3676 29.9965 64.3676 28.6474C64.3676 26.6587 64.2757 24.6919 64.2757 22.7295C64.2757 21.0606 64.2976 19.3698 64.2976 17.7008C64.5908 17.2059 65.0503 17.1577 65.5755 17.1577C66.3501 17.1577 67.1028 17.0438 67.8599 17.0438C70.7132 17.0438 72.1093 18.1389 72.1093 21.1131H72.1049ZM66.2144 25.8001C66.5776 25.8921 66.9452 25.9578 67.3347 25.9578C69.3216 25.9578 70.3019 25.1124 70.3019 23.1237V21.6169C70.3019 19.8341 70.0743 18.7828 68.0393 18.7828C67.3785 18.7828 66.7133 18.9186 66.0525 18.9186V21.9805C66.0525 22.804 66.0306 25.1124 66.2144 25.7958V25.8001Z" fill="#231F20"/>
<path d="M83.2732 26.0498C83.4788 26.6674 83.5226 27.3289 83.5226 27.9947C83.5226 31.1486 82.3104 33.8469 78.7481 33.8469C75.4133 33.8469 73.0852 31.0566 73.0852 27.837V27.1975C73.0852 24.5693 75.5972 21.3935 78.3586 21.3935C80.9406 21.3935 82.6955 23.772 83.2688 26.0542L83.2732 26.0498ZM78.2711 31.9677C78.4067 31.9896 78.5468 31.9896 78.6824 31.9896C79.2776 31.9896 80.0084 31.9677 80.4855 31.5559C81.3782 30.7543 81.7415 29.2256 81.7415 28.0604C81.7415 27.031 81.422 25.2044 80.6911 24.451C80.4855 24.2232 80.2579 24.0173 80.0303 23.8115C79.5971 23.3997 78.98 23.1018 78.363 23.1018C76.9232 23.1018 75.8947 24.3371 75.2821 25.4804C74.8926 26.2119 74.8007 27.0573 74.8007 27.8808C74.8007 30.0754 76.1486 31.6085 78.2711 31.9721V31.9677Z" fill="#231F20"/>
<path d="M90.7872 22.9442C90.7872 23.3559 90.3759 23.7677 89.9645 23.7677C89.645 23.7677 89.3693 23.61 89.1199 23.4917C88.7566 23.3296 88.319 23.15 87.9076 23.15C87.1549 23.15 87.0849 23.6538 87.0849 24.2933V25.5286C87.0849 26.8996 87.1549 28.2488 87.1549 29.6198C87.1549 30.6492 87.1549 31.7224 86.9492 32.7299C86.8573 33.1636 86.6298 33.5052 86.1484 33.5052C85.2819 33.5052 85.2118 32.616 85.2118 31.9984C85.2118 30.4652 85.2819 28.9584 85.2819 27.4253C85.2819 26.374 85.19 25.3227 85.19 24.2714C85.19 22.4886 86.3541 21.3453 88.1352 21.3453C89.0717 21.3453 90.122 21.963 90.7172 22.6726C90.7391 22.7164 90.7872 22.9004 90.7872 22.9485V22.9442Z" fill="#231F20"/>
<path d="M98.1044 30.4871C98.6996 30.4871 98.879 30.9208 98.879 31.4464C98.879 32.9095 97.6449 33.8907 96.2532 33.8907C95.3604 33.8907 94.2883 33.273 93.8331 32.5196C93.4918 31.9239 93.4699 31.1267 93.4699 30.4608C93.4699 28.1743 93.4261 25.8877 93.4261 23.6056C92.831 23.6056 91.8288 23.5618 91.8288 22.7383C91.8288 22.4404 92.2402 21.7089 92.5596 21.7089C92.8572 21.7089 93.1548 21.7308 93.4524 21.7308C93.3167 20.8854 93.2905 20.0181 93.2905 19.1464C93.2905 18.8266 93.4524 18.2791 93.6099 18.0031C93.6318 17.7753 93.9294 17.6395 94.2051 17.6395C94.6384 17.6395 95.2117 17.8892 95.2117 18.3929V20.5174C95.2117 20.9292 95.2335 21.319 95.2554 21.7308C95.6887 21.7089 96.1219 21.6607 96.5552 21.6607C97.0366 21.6607 97.6755 22.0944 97.6755 22.62C97.6755 23.1018 97.3779 23.3296 96.9228 23.3515L95.4611 23.4216L95.1635 23.4435C95.2554 23.5136 95.2554 27.1449 95.2554 28.0823C95.2554 29.8432 95.1635 29.8432 95.2117 30.4346C95.2817 31.3501 95.5311 32.1254 96.262 32.1254C96.879 32.1254 97.0628 31.6216 97.2904 31.1442L97.3604 31.0303C97.518 30.7324 97.7499 30.4827 98.1131 30.4827L98.1044 30.4871Z" fill="#231F20"/>
<path d="M103.041 32.6773C103.041 32.2875 103.133 31.902 103.133 31.5121C103.133 30.0053 103.041 28.4722 103.041 26.9653C103.041 25.3446 102.835 23.7195 102.835 22.0987C102.835 21.4373 102.879 20.7715 102.879 20.1101V17.5957C102.879 17.2322 103.382 17 103.702 17C104.021 17 104.594 17.3417 104.594 17.6877V21.1832C104.594 22.0768 104.573 22.9661 104.573 23.8553C105.737 23.8553 106.901 23.7852 108.091 23.7852H108.275C108.345 22.8478 108.345 21.9323 108.345 20.9949C108.345 20.0575 108.253 19.142 108.253 18.2309C108.253 17.5694 108.297 17.0876 109.119 17.0876C109.417 17.0876 109.623 17.2497 109.807 17.4775C110.104 18.3448 110.174 19.2822 110.174 20.1977C110.174 21.319 110.104 22.4623 110.104 23.5793C110.104 24.0349 110.196 24.2188 110.196 24.5386C110.24 26.2513 110.266 27.9903 110.266 29.703C110.266 30.5966 110.336 31.4859 110.336 32.3795C110.336 33.0409 110.38 33.6585 109.513 33.6585C109.172 33.6585 108.507 33.5227 108.507 33.0891C108.507 30.5528 108.551 28.0823 108.323 25.568C108.047 25.5242 107.776 25.4979 107.5 25.4979C106.699 25.4979 105.833 25.476 104.804 25.5899C104.874 26.1856 104.874 26.7551 104.874 27.3508V31.8976C104.874 32.4014 104.761 32.8569 104.691 33.3387C104.555 33.6147 104.122 33.8644 103.802 33.8644C103.185 33.8644 103.05 33.1548 103.05 32.6773H103.041Z" fill="#231F20"/>
<path d="M122.292 26.0498C122.498 26.6674 122.542 27.3289 122.542 27.9947C122.542 31.1486 121.329 33.8469 117.767 33.8469C114.432 33.8469 112.104 31.0566 112.104 27.837V27.1975C112.104 24.5693 114.616 21.3935 117.378 21.3935C119.96 21.3935 121.714 23.772 122.288 26.0542L122.292 26.0498ZM117.29 31.9677C117.426 31.9896 117.566 31.9896 117.701 31.9896C118.297 31.9896 119.027 31.9677 119.504 31.5559C120.397 30.7543 120.76 29.2256 120.76 28.0604C120.76 27.031 120.441 25.2044 119.71 24.451C119.504 24.2232 119.277 24.0173 119.049 23.8115C118.616 23.3997 117.999 23.1018 117.382 23.1018C115.942 23.1018 114.914 24.3371 114.301 25.4804C113.912 26.2119 113.82 27.0573 113.82 27.8808C113.82 30.0754 115.168 31.6085 117.29 31.9721V31.9677Z" fill="#231F20"/>
<path d="M129.443 21.4329C131.474 22.2783 131.544 24.0393 131.565 25.9579C131.587 27.031 131.657 28.1086 131.657 29.1818C131.657 31.534 131.04 33.8206 128.209 33.8206C127.614 33.8206 127.023 33.7286 126.471 33.5227C126.471 34.85 126.563 36.151 126.563 37.4782C126.563 38.2535 126.677 40.1984 126.222 40.7941L125.859 41C124.992 41 124.717 40.5664 124.717 39.7428C124.717 38.4156 124.808 37.1146 124.808 35.7874C124.808 34.2324 124.695 32.6773 124.647 31.1267C124.625 30.1455 124.603 29.1599 124.511 28.1787C124.397 27.1493 124.235 26.098 124.235 25.0686C124.235 24.3152 124.279 23.5355 124.668 22.8741C125.237 21.7089 126.813 21.1833 128.047 21.1833C128.528 21.1833 129.005 21.2533 129.439 21.4329H129.443ZM126.156 27.3289C126.384 28.7438 125.745 31.9896 128.073 31.9896C129.557 31.9896 129.876 30.9383 129.876 28.9934C129.876 27.6005 129.854 27.3946 129.854 27.2106C129.784 25.9535 130.016 22.8697 128.117 22.8697C127.548 22.8697 126.747 23.1676 126.336 23.5793C126.016 23.8991 126.016 24.9285 126.016 25.3621C126.016 26.0236 126.06 26.6894 126.152 27.3289H126.156Z" fill="#231F20"/>
<path d="M139.946 31.2187C139.946 33.0234 138.918 33.8031 137.185 33.8031C135.745 33.8031 134.603 33.3475 133.872 32.0422C133.211 30.8288 133.233 27.837 133.233 26.4178C133.233 24.0392 133.417 21.2752 136.406 21.2752C138.826 21.2752 139.307 22.4623 139.605 24.6569C139.697 25.3665 139.81 26.1418 139.81 26.8733C139.81 27.3289 139.171 27.7626 138.598 27.7626C138.279 27.7626 137.981 27.6487 137.662 27.6487C136.795 27.6487 135.902 27.6049 135.058 27.7187C135.058 28.3583 135.101 28.9759 135.101 29.6154C135.101 31.2362 135.74 32.0159 137.408 32.0159C138.388 32.0159 138.025 31.4902 138.252 31.0566C138.366 30.601 138.756 30.1411 139.259 30.1411C139.762 30.1411 139.946 30.8288 139.946 31.2143V31.2187ZM135.058 25.9841C135.627 25.9841 136.2 26.006 136.769 26.006H137.863C137.841 25.4585 137.841 23.4917 137.36 23.2157C137.132 23.1018 136.834 23.0318 136.559 23.0318C136.261 23.0318 135.736 23.0756 135.552 23.3515C135.119 23.9692 135.027 24.5167 135.027 25.2482C135.027 25.4979 135.027 25.7301 135.049 25.9797L135.058 25.9841Z" fill="#231F20"/>
<path d="M150.69 20.6445C150.445 20.6445 149.71 20.3773 149.18 20.3773C148.3 20.3773 147.443 20.5393 146.567 20.5393C146.528 20.5393 146.506 20.5174 146.467 20.5174V24.4028C146.467 24.7094 146.467 25.0161 146.489 25.3227H148.655C148.939 25.3227 149.351 25.5067 149.351 25.8352C149.351 26.1812 149.206 26.6105 148.922 26.8164C148.103 26.8558 147.268 26.8558 146.449 26.9391C146.41 27.7757 146.388 28.6343 146.388 29.4753C146.388 31.3545 146.51 32.0728 146.51 32.397C146.51 33.0102 146.51 33.2774 145.998 33.6848C145.018 33.6848 144.795 33.0321 144.795 31.3939C144.917 29.1862 145.04 27.0179 144.979 24.8102C144.939 23.1763 144.979 22.2959 144.979 21.0299C144.979 20.6401 144.957 20.2108 144.795 19.8429C144.773 19.7815 144.712 19.637 144.712 19.5757C144.712 19.3523 145.079 18.739 145.324 18.739C145.998 18.9843 146.734 18.9843 147.368 18.9843C148.103 18.9843 148.817 18.8617 149.552 18.8617C150.226 18.8617 151.307 18.9449 151.534 19.7421C151.473 20.1495 151.167 20.6401 150.699 20.6401L150.69 20.6445Z" fill="#231F20"/>
<path d="M156.51 29.4534C156.572 30.2112 156.572 30.9471 156.572 31.7005C156.572 33.4395 155.263 33.8688 153.753 33.8688C152.243 33.8688 150.913 32.7036 150.913 31.1705C150.913 29.8608 151.565 28.4941 152.852 28.0429C153.464 27.7976 154.239 27.7976 154.895 27.6136C154.895 26.961 154.957 24.8759 154.427 24.4642C154.326 24.4423 154.243 24.4247 154.143 24.4247C153.062 24.4247 152.633 25.6118 151.915 25.6118C151.403 25.6118 151.302 25.222 151.302 24.7927C151.302 23.6275 153.079 22.8084 154.081 22.8084C156.204 22.8084 156.51 25.038 156.51 26.6938C156.51 27.6136 156.449 28.5335 156.51 29.4534ZM153.814 32.2524C154.633 32.2524 155 32.2919 155 31.4771C155 30.7412 154.9 30.0053 154.9 29.2694C153.736 29.3526 152.532 29.7381 152.532 31.1311C152.532 31.8275 153.167 32.2568 153.819 32.2568L153.814 32.2524Z" fill="#231F20"/>
<path d="M159.105 18.8222C160.046 18.8222 160.186 20.2721 160.186 20.9467C160.186 21.376 160.103 21.9498 159.552 21.9498C158.593 21.9498 158.449 21.2752 158.449 20.4167C158.449 20.0093 158.488 18.8222 159.101 18.8222H159.105ZM158.593 32.9445C158.593 29.8388 158.554 26.7507 158.554 23.645C158.554 23.115 158.838 22.6025 159.434 22.6025C159.884 22.6025 160.169 22.9704 160.169 23.3997C160.169 24.8321 160.147 26.2426 160.147 27.6706C160.147 29.3263 160.208 31.004 160.208 32.6598C160.208 33.2117 159.924 33.7023 159.311 33.7023C158.904 33.7023 158.598 33.3563 158.598 32.9445H158.593Z" fill="#231F20"/>
<path d="M167.175 24.1181C167.175 24.486 166.808 24.854 166.44 24.854C166.156 24.854 165.911 24.7094 165.683 24.6087C165.355 24.4641 164.97 24.3021 164.602 24.3021C163.928 24.3021 163.867 24.7532 163.867 25.3227V26.4265C163.867 27.653 163.928 28.8576 163.928 30.0841C163.928 31.004 163.928 31.9633 163.744 32.8657C163.661 33.2555 163.46 33.5622 163.031 33.5622C162.256 33.5622 162.195 32.7649 162.195 32.213C162.195 30.8419 162.256 29.4928 162.256 28.1261C162.256 27.1843 162.173 26.2469 162.173 25.3052C162.173 23.7107 163.215 22.6901 164.808 22.6901C165.644 22.6901 166.584 23.242 167.114 23.8772C167.136 23.9166 167.175 24.083 167.175 24.1225V24.1181Z" fill="#231F20"/>
<path d="M121.071 36.9788H71.129C69.9036 36.9788 68.7001 37.0401 67.4748 37.0401C66.5557 37.0401 65.5973 37.0401 64.6958 36.8562C64.3063 36.7729 64 36.5714 64 36.1422C64 35.3668 64.7921 35.6647 65.3435 35.6647C66.7133 35.6647 68.0612 35.726 69.4266 35.726C70.3325 35.726 116.585 35.4019 120.791 35.3931C120.988 35.3931 121.167 35.4895 121.272 35.6559C121.557 36.0896 121.968 36.8036 121.067 36.9788H121.071Z" fill="#231F20"/>
<path d="M29.5 0C13.2088 0 0 13.2088 0 29.5C0 45.7912 13.2088 59 29.5 59C45.7912 59 59 45.7912 59 29.5C59 13.2088 45.7992 0 29.5 0ZM16.5332 54.9252C16.501 54.0215 16.6785 53.1177 17.0658 52.206C18.0905 49.7934 19.9787 48.4378 22.6818 48.1796C22.8512 48.1634 23.0126 48.1554 23.174 48.1473C24.6828 48.0827 25.9658 48.3732 26.4015 48.4862C26.2321 48.93 26.0546 49.398 25.8609 49.8902C25.0137 52.1011 23.9889 54.7638 23.0126 57.2975C20.7371 56.7649 18.5666 55.9661 16.5332 54.9252ZM29.5 58.0398C27.5715 58.0398 25.6834 57.8461 23.8598 57.483C25.99 51.9639 28.3381 45.8396 28.5721 45.2344C28.8706 44.8068 31.8158 40.7804 35.8906 41.2887C35.9229 41.2887 35.9471 41.2887 35.9793 41.2887L48.115 40.2317C48.1634 40.2317 48.2038 40.2155 48.2441 40.1994C48.3006 40.1752 53.8117 37.7464 51.1973 30.9282C51.1812 30.8798 51.157 30.8394 51.1247 30.7991C51.0763 30.7345 49.8337 29.3144 48.0908 29.5323C47.9133 29.5565 47.7358 29.5968 47.5583 29.6452L32.5178 15.8877C34.3333 14.0077 36.4635 12.2244 38.0369 12.0792C38.4726 12.1034 38.7309 12.1357 38.747 12.1357C38.9729 12.1599 39.1827 12.0146 39.2231 11.7887C39.2634 11.5628 39.1262 11.3449 38.9084 11.2884C38.6582 11.2239 38.3839 11.1997 38.1015 11.2158C35.939 11.0786 29.6372 11.0786 25.8125 15.0889C25.7399 15.1615 25.7076 15.2583 25.6995 15.3471C25.6915 15.4762 25.7318 15.6053 25.8286 15.6941C25.9497 15.8151 26.1272 15.8393 26.2724 15.7828C26.3289 15.7586 26.3854 15.7263 26.4338 15.6779C29.0239 12.9587 32.9696 12.2325 35.6889 12.0792C34.6883 12.6844 33.5667 13.6042 32.3403 14.8307C30.3472 16.8318 28.7496 18.962 28.7335 18.9862C28.5882 19.1798 28.6286 19.4461 28.8222 19.5914C28.911 19.6559 29.0159 19.6801 29.1127 19.672C29.2337 19.664 29.3467 19.5994 29.4274 19.5026C29.9761 18.7603 30.8717 17.6548 31.9207 16.5171L46.711 30.0487C45.8234 30.6216 45.0004 31.6544 44.2661 33.1391C44.1612 33.3489 44.25 33.6152 44.4598 33.72C44.6777 33.8249 44.9359 33.7362 45.0408 33.5264C45.9929 31.6141 47.0741 30.5248 48.1796 30.3876C49.3092 30.2423 50.2049 31.0976 50.4147 31.3155C52.5449 36.996 48.5185 39.1182 47.9536 39.3844L35.939 40.4334C31.1541 39.8766 27.9508 44.597 27.8136 44.7987C27.7975 44.8229 27.7813 44.8552 27.7732 44.8874C27.7571 44.9197 27.3456 46.0171 26.7001 47.6874C26.2724 47.5663 24.578 47.1467 22.6172 47.3323C21.6812 47.4211 20.8259 47.6309 20.0594 47.9617C18.3407 48.696 17.0496 50.0274 16.2589 51.8832C15.8958 52.7466 15.6941 53.61 15.6699 54.4814C15.0485 54.1344 14.4434 53.7713 13.8543 53.384C9.26313 50.3743 5.59984 46.0736 3.36474 40.9982C1.81551 37.4882 0.960202 33.599 0.960202 29.5161C0.960202 29.4435 0.960202 29.379 0.960202 29.3063C1.58958 29.2499 2.19475 29.2014 2.78378 29.145C15.9926 27.9427 18.9781 26.6436 19.898 25.4897C20.4144 24.8442 20.3014 24.1906 20.2207 23.7065C20.2046 23.6258 20.1965 23.5532 20.1885 23.4806C20.4789 23.5855 20.7856 23.6823 21.1083 23.7711C21.1567 23.7872 21.2051 23.7872 21.2536 23.7872C21.4311 23.7711 21.5924 23.65 21.6409 23.4644C21.7054 23.2304 21.5682 22.9964 21.3342 22.9319C18.5505 22.1896 16.6543 20.5596 15.7102 18.0905C15.1454 16.622 15.105 15.2745 15.105 14.7581C19.5994 12.3939 25.4736 20.6726 25.5301 20.7614C25.6673 20.955 25.9335 21.0034 26.1353 20.8662C26.3289 20.7291 26.3773 20.4628 26.2402 20.2611C26.1514 20.132 25.3929 19.0588 24.2229 17.8001C24.0615 17.6306 23.9002 17.4531 23.7226 17.2756C21.3504 14.863 17.6871 12.1679 14.4595 14.1206C14.3385 14.1932 14.2659 14.3143 14.2497 14.4595C14.2497 14.5321 14.1126 16.3154 14.8872 18.3568C15.4843 19.9222 16.7269 21.891 19.3089 23.1013C19.2928 23.3595 19.3332 23.6097 19.3735 23.8356C19.4542 24.3197 19.4865 24.6102 19.2283 24.933C18.1147 26.337 12.2406 27.4666 0.984409 28.4188C1.54923 13.1685 14.1045 0.968271 29.5 0.968271C44.8955 0.968271 58.0398 13.7414 58.0398 29.5081C58.0398 45.2748 45.2667 58.0479 29.5 58.0479V58.0398Z" fill="#221F1F"/>
<path d="M29.5 0.968292C14.1045 0.968292 1.5492 13.1685 0.984379 28.4269C12.2405 27.4747 18.1066 26.3451 19.2282 24.9411C19.4864 24.6183 19.4542 24.3278 19.3735 23.8437C19.3331 23.6178 19.2928 23.3676 19.3089 23.1094C16.7188 21.8991 15.4762 19.9303 14.8871 18.3649C14.1125 16.3235 14.2416 14.5402 14.2497 14.4676C14.2578 14.3304 14.3385 14.2013 14.4595 14.1287C17.6951 12.176 21.3503 14.8711 23.7226 17.2837L25.6995 15.3471C25.7076 15.2503 25.7479 15.1615 25.8125 15.0889C29.6452 11.0787 35.939 11.0787 38.1014 11.2158C38.3839 11.1997 38.6501 11.2239 38.9083 11.2885C39.1262 11.3449 39.2634 11.5628 39.223 11.7887C39.1827 12.0147 38.9729 12.1599 38.747 12.1357C38.7308 12.1357 38.4807 12.1034 38.0369 12.0792C36.4634 12.2244 34.3333 14.0077 32.5177 15.8877L47.5582 29.6453C47.7357 29.5888 47.9133 29.5484 48.0908 29.5323C49.8337 29.3144 51.0763 30.7426 51.1247 30.7991C51.157 30.8395 51.1812 30.8798 51.1973 30.9282C53.8116 37.7465 48.3006 40.1752 48.2441 40.1994C48.2037 40.2156 48.1553 40.2317 48.115 40.2317L35.9793 41.2887C35.9793 41.2887 35.9228 41.2887 35.8906 41.2887C31.8077 40.7804 28.8706 44.8068 28.572 45.2344C28.338 45.8396 25.9981 51.9639 23.8598 57.4831C25.6834 57.8462 27.5634 58.0398 29.5 58.0398C45.2586 58.0398 58.0398 45.2667 58.0398 29.5C58.0398 13.7333 45.2667 0.968292 29.5 0.968292Z" fill="#54C2D4"/>
<path d="M25.8609 49.8902C26.0465 49.398 26.2321 48.93 26.4015 48.4862C25.9658 48.3732 24.6828 48.0827 23.1739 48.1473C24.9007 48.5023 26.1514 49.1156 26.1514 49.1156L25.8609 49.8902Z" fill="white"/>
<path d="M24.2229 17.8C25.3929 19.0588 26.1514 20.132 26.2401 20.2611C26.3773 20.4547 26.3289 20.7291 26.1352 20.8662C25.9416 21.0034 25.6672 20.955 25.5301 20.7613C25.4736 20.6726 19.5994 12.3939 15.105 14.7581C15.105 15.2745 15.1453 16.622 15.7102 18.0905C16.6542 20.5596 18.5504 22.1815 21.3342 22.9319C21.5682 22.9964 21.7054 23.2304 21.6408 23.4644C21.5924 23.65 21.431 23.7711 21.2535 23.7872C21.2051 23.7872 21.1567 23.7872 21.1083 23.7711C20.7855 23.6823 20.4789 23.5855 20.1884 23.4806C20.1965 23.5532 20.2126 23.6258 20.2207 23.7065C20.3014 24.1826 20.4144 24.8442 19.8979 25.4897C18.9781 26.6436 15.9926 27.9346 2.78375 29.145C3.52609 30.2181 5.39002 33.8249 3.36472 40.9901C5.59981 46.0655 9.2631 50.3662 13.8543 53.3759C13.9189 53.1662 13.9915 52.9564 14.0803 52.7385C15.4116 49.3415 17.7758 48.1715 20.0674 47.9536C20.8339 47.6228 21.6893 47.413 22.6252 47.3243C24.5941 47.1387 26.2805 47.5583 26.7081 47.6793C27.3456 46.009 27.7652 44.9116 27.7813 44.8794C27.7894 44.8471 27.8055 44.8229 27.8216 44.7906C27.9588 44.5889 31.1622 39.8605 35.947 40.4253L47.9617 39.3764C48.5265 39.1101 52.5529 36.988 50.4227 31.3074C50.2129 31.0896 49.3173 30.2423 48.1876 30.3795C47.0822 30.5167 45.9929 31.606 45.0488 33.5183C44.9439 33.7281 44.6857 33.8169 44.4678 33.712C44.258 33.6071 44.1693 33.3489 44.2742 33.131C45.0085 31.6463 45.8315 30.6135 46.7191 30.0406L31.9287 16.509C30.8798 17.6467 29.9841 18.7602 29.4354 19.4945C29.3547 19.5994 29.2418 19.6559 29.1207 19.664C29.0239 19.664 28.919 19.6478 28.8303 19.5833C28.6366 19.438 28.5963 19.1718 28.7415 18.9781C28.7576 18.9539 30.3472 16.8156 32.3483 14.8226C33.5748 13.5961 34.6964 12.6763 35.6969 12.0711C32.9777 12.2244 29.032 12.9506 26.4418 15.6698C26.3934 15.7183 26.337 15.7505 26.2805 15.7747C26.1272 15.8312 25.9577 15.799 25.8367 15.686C25.7399 15.5892 25.6914 15.4601 25.7076 15.339L23.7307 17.2756C23.9001 17.4531 24.0696 17.6225 24.231 17.8H24.2229ZM32.5984 23.5532C33.1875 23.5048 33.7039 23.9486 33.7523 24.5376C33.8007 25.1266 33.3569 25.643 32.7679 25.6915C32.1789 25.7399 31.6624 25.2961 31.614 24.699C31.5656 24.1099 32.0094 23.5935 32.6065 23.5451L32.5984 23.5532Z" fill="white"/>
<path d="M2.79181 29.1369C2.20278 29.1934 1.59761 29.2418 0.968232 29.2983C0.968232 29.3709 0.968232 29.4355 0.968232 29.5081C0.968232 33.5909 1.83161 37.4721 3.37277 40.9902C5.39 33.8249 3.53415 30.2181 2.79181 29.145V29.1369Z" fill="#C6C0B4"/>
<path d="M14.0802 52.7385C13.9995 52.9564 13.9269 53.1662 13.8543 53.376C14.4433 53.7633 15.0485 54.1264 15.6698 54.4733C15.7021 53.61 15.8957 52.7385 16.2588 51.8751C17.0496 50.0112 18.3406 48.6879 20.0593 47.9536C17.7677 48.1715 15.4035 49.3415 14.0721 52.7385H14.0802Z" fill="#C6C0B4"/>
<path d="M26.1514 49.1155C26.1514 49.1155 24.9007 48.5023 23.174 48.1473C23.0126 48.1473 22.8512 48.1634 22.6818 48.1796C19.9787 48.4378 18.0905 49.7933 17.0658 52.2059C16.6785 53.1177 16.501 54.0215 16.5332 54.9252C18.5666 55.9661 20.7371 56.7649 23.0126 57.2974C23.9889 54.7638 25.0137 52.1011 25.8609 49.8902L26.1514 49.1155Z" fill="#C6C0B4"/>
<path d="M32.7597 25.6915C33.3488 25.6431 33.7925 25.1266 33.7441 24.5376C33.6957 23.9486 33.1793 23.5048 32.5903 23.5532C32.0012 23.6016 31.5574 24.118 31.5978 24.7071C31.6462 25.2961 32.1626 25.7399 32.7517 25.6995L32.7597 25.6915Z" fill="#221F1F"/>
</svg>
