<?xml version="1.0" encoding="UTF-8"?>
<svg id="Layer_2" data-name="Layer 2" xmlns="http://www.w3.org/2000/svg" viewBox="0 0 176.25 225.33">
  <defs>
    <style>
      .cls-1 {
        fill: #fff;
      }

      .cls-2 {
        fill: #fbcac3;
      }

      .cls-3 {
        fill: #231f20;
      }

      .cls-4 {
        fill: #c7c1b5;
      }
    </style>
  </defs>
  <g id="Layer_1-2" data-name="Layer 1">
    <g>
      <g>
        <g>
          <path class="cls-1" d="m115.82,220.69c0,.28-.04.84-.37,1.07-.3.21-.88.15-1.63-.18l-2-.89c-1.49-2.89-2.85-5.59-3.17-6.24l3.15-19.41c.56-.06,1.63-.18,3-.43l-.25,1.84-2.55,15.44c-.02.1,0,.2.04.29l3.78,8.51Z"/>
          <path class="cls-1" d="m28.86,209.7l3.77,8.7c-.14.55-.53,1.67-1.14,1.91-.09.04-.38.15-.91-.22-.08-.06-.18-.09-.29-.09l-2.06-.03c-.63-1.26-1.54-2.75-2.74-4.48l3.14-23.46c.61.39,1.58.98,2.82,1.61l-.71,4.64-1.92,11.14c-.02.1,0,.2.03.29Z"/>
          <path class="cls-1" d="m174.62,144.02c2.46,8.42-3.64,10.99-4.42,11.29l-17.13.18c-6.65-1.31-11.66,4.98-11.87,5.25-.02.03-.04.06-.06.1-.07.15-7.39,15.59-11.42,23.97-3.9,8.11-18.26,9.24-18.4,9.26-.24.02-.43.19-.47.43l-3.17,19.56-2.54.15c-.28.02-.5.26-.48.54.02.28.26.5.54.48l2.61-.16c.44.88,1.77,3.53,3.21,6.3.77,1.48.59,2.04.48,2.21-.18.28-.63.28-.69.28l-7.42-.79-2.65-8.5-.41-29.2c0-.28-.23-.5-.51-.5l-50.47-.36c-.28,0-.51.23-.51.51s.22.51.51.51l6.61.05s-.03.05-.04.08c-2.35,5.13-5.68,8.29-9.89,9.4-6.69,1.77-13.91-2.09-16.49-3.69,1.71-.43,5.05-1.42,8.78-3.3,4.88-2.47,11.31-7.01,14.23-14.59.1-.26-.03-.56-.29-.66s-.56.03-.66.29c-2.8,7.27-9,11.65-13.71,14.04-5.14,2.61-9.68,3.49-9.72,3.5-.03,0-.06.01-.08.02,0,0-.01,0-.02,0-.02,0-.04.02-.07.03-.01,0-.02.01-.03.02-.02.01-.03.02-.05.04,0,0-.02.01-.02.02-.02.02-.03.04-.05.06h-.01s0,.01,0,.01c-.02.02-.03.05-.05.08,0,0,0,.02,0,.02,0,.02-.02.04-.02.07,0,.01,0,.02,0,.03,0,0,0,.02,0,.03l-3.2,23.92-3.15-.7c-.28-.06-.55.11-.61.39-.06.28.11.55.39.61l3.5.78c4.09,5.89,3.68,7.5,3.46,7.85-.24.39-.87.28-.88.28,0,0-.02,0-.03,0l-7.09-.96-2.54-10.22c-1.19-30.29,1.5-62.43,1.64-63.96,2.13-6.85,5.81-10.33,8.53-12.04,2.95-1.86,5.44-2.09,5.46-2.1.16-.01.29-.1.38-.22,3.76-.27,8.16-.23,13.31.26.01,0,.03,0,.04,0l41.67.68c34.99.63,41.54-1.26,43.34-3.19.76-.82.68-1.7.62-2.4-.02-.18-.03-.34-.03-.5.44.21.91.4,1.41.57.06.02.11.03.17.03.21,0,.41-.13.48-.34.09-.27-.04-.56-.31-.65-3.89-1.37-6.41-3.9-7.49-7.53-.66-2.21-.55-4.18-.49-4.87,6.7-2.98,14.19,9.51,14.27,9.63.14.24.46.32.7.18.24-.14.32-.46.18-.7-.11-.19-1.08-1.8-2.6-3.72l3.41-2.86c4.14-3.73,10.12-4.23,13.99-4.09-4.93,2.28-10.65,8.81-10.96,9.17-.18.21-.16.53.05.72.1.08.22.12.33.12.14,0,.28-.06.39-.18.87-1.01,2.29-2.51,3.93-4.03l19.59,20.9c-1.34.69-2.64,2.07-3.87,4.14-.14.24-.07.56.18.7.24.14.56.07.7-.18,1.59-2.67,3.23-4.07,4.87-4.15,1.67-.09,2.89,1.29,3.15,1.6Z"/>
          <path class="cls-1" d="m175.57,143.63c2.93,9.83-5.04,12.64-5.12,12.66-.05.02-.1.03-.16.03l-17.26.18s-.07,0-.11-.01c-5.79-1.17-10.45,4.3-10.88,4.83-.48,1.02-7.48,15.79-11.39,23.92-2.75,5.71-10,8.15-14.78,9.16l-.3,2.2-2.53,15.31,3.76,8.46s.04.1.04.16c.01.14.11,1.42-.78,2.06-.3.21-.65.32-1.06.32-.46,0-.99-.13-1.58-.39l-.98-.44c.28.87.25,1.55-.08,2.06-.39.59-1.08.74-1.51.74-.04,0-.08,0-.11,0l-7.79-.82c-.2-.02-.37-.16-.43-.36l-2.77-8.89s-.02-.1-.02-.14l-.41-28.77-42.52-.3c.1.14.12.33.04.5-1.75,3.83-4.04,6.62-6.83,8.35l1.11,2.34c.12.25.01.56-.24.68-.07.03-.14.05-.22.05-.19,0-.37-.11-.46-.29l-1.07-2.26c-.9.47-1.85.84-2.85,1.1-1.14.3-2.29.45-3.42.49l.21,2.97c.02.28-.19.52-.47.55h-.04c-.27,0-.49-.2-.51-.47l-.21-3.04c-2.32-.07-4.56-.59-6.54-1.27l-.5,3.17c-.04.25-.26.43-.5.43-.03,0-.05,0-.08,0-.28-.04-.47-.31-.42-.58l.53-3.37c-.67-.26-1.3-.53-1.89-.8l-.66,4.34-1.89,11,3.78,8.71c.04.1.05.2.03.3-.05.23-.5,2.28-1.79,2.8-.17.07-.37.12-.61.12-.32,0-.7-.09-1.13-.36l-1.43-.02c.65,1.6.74,2.76.27,3.48-.39.6-1.04.76-1.54.76-.14,0-.26-.01-.37-.03l-7.42-1.01c-.21-.03-.38-.18-.43-.38l-2.64-10.6s-.01-.07-.02-.1c-1.22-30.96,1.61-63.87,1.64-64.2,0-.03.01-.07.02-.1,2.23-7.22,6.14-10.89,9.03-12.69.56-.35,1.1-.64,1.61-.89-5.86.93-9.73,2.66-12.23,4.32-4.51,2.99-5.56,6.34-5.68,6.77l-.47,35.37s0,.04,0,.06c3.44,1.16-1.95,16.56-9.8,15.21,0,0,4.52-13.99,8.79-15.2,0-.03,0-.06,0-.09l.47-35.43s0-.07.01-.11c.03-.16.94-3.97,6.03-7.38,6.71-4.5,17.14-6.12,31-4.82l41.65.68c26.78.48,40.31-.43,42.57-2.87.43-.47.41-.92.35-1.62-.03-.34-.06-.72,0-1.09-3.54-1.98-5.08-4.89-5.75-7.17-.87-2.95-.49-5.43-.47-5.54.03-.16.13-.3.28-.38,4.71-2.37,9.53,1.77,12.6,5.4l3.39-2.84c5.83-5.25,14.75-4.52,17.74-4.1.38,0,.73.07,1.07.18.26.09.4.36.33.62-.07.26-.33.42-.59.37-.02,0-.38-.08-.99-.16-2.29.03-5.57,2.38-8.38,4.88l19.87,21.2c.27-.07.53-.11.8-.12,2.43-.11,4,1.99,4.07,2.08.03.05.06.1.08.16Zm-5.37,11.67c.78-.29,6.88-2.87,4.42-11.29-.26-.31-1.48-1.69-3.15-1.6-1.64.08-3.27,1.47-4.87,4.15-.14.24-.46.32-.7.18-.24-.14-.32-.46-.18-.7,1.23-2.06,2.52-3.45,3.87-4.14l-19.59-20.9c-1.64,1.52-3.06,3.02-3.93,4.03-.1.12-.24.18-.39.18-.12,0-.24-.04-.33-.12-.21-.19-.23-.51-.05-.72.31-.36,6.03-6.89,10.96-9.17-3.88-.14-9.85.37-13.99,4.09l-3.41,2.86c1.52,1.91,2.49,3.53,2.6,3.72.14.24.06.56-.18.7-.24.14-.56.06-.7-.18-.08-.13-7.57-12.61-14.27-9.63-.07.69-.17,2.66.49,4.87,1.08,3.63,3.6,6.16,7.49,7.53.27.09.41.39.31.65-.07.21-.27.34-.48.34-.06,0-.11,0-.17-.03-.5-.18-.97-.37-1.41-.57,0,.16.02.32.03.5.06.71.14,1.58-.62,2.4-1.8,1.93-8.35,3.82-43.34,3.19l-41.67-.68s-.03,0-.04,0c-5.15-.48-9.55-.52-13.31-.26-.08.12-.22.21-.38.22-.02,0-2.51.24-5.46,2.1-2.72,1.71-6.4,5.19-8.53,12.04-.13,1.52-2.83,33.67-1.64,63.96l2.54,10.22,7.09.96s.02,0,.03,0c0,0,.63.11.88-.28.23-.35.63-1.96-3.46-7.85l-3.5-.78c-.28-.06-.45-.33-.39-.61.06-.27.33-.45.61-.39l3.15.7,3.2-23.92s0-.02,0-.03c0-.01,0-.02,0-.03,0-.02.01-.04.02-.07,0,0,0-.01,0-.02.01-.03.03-.06.05-.08,0,0,0,0,0,0h.01s.03-.05.05-.07c0,0,.02-.01.02-.02.01-.01.03-.03.05-.04,0,0,.02-.01.03-.02.02-.01.04-.02.07-.03,0,0,.01,0,.02,0,.02,0,.05-.02.08-.02.04,0,4.58-.89,9.72-3.5,4.71-2.39,10.91-6.77,13.71-14.04.1-.26.4-.4.66-.29s.39.4.29.66c-2.92,7.58-9.35,12.12-14.23,14.59-3.72,1.89-7.07,2.87-8.78,3.3,2.58,1.59,9.8,5.46,16.49,3.69,4.21-1.11,7.54-4.28,9.89-9.4.01-.03.03-.06.04-.08l-6.61-.05c-.28,0-.51-.23-.51-.51s.24-.51.51-.51l50.47.36c.28,0,.5.22.51.5l.41,29.2,2.65,8.5,7.42.79c.06,0,.51,0,.69-.28.11-.17.29-.73-.48-2.21-1.43-2.78-2.77-5.43-3.21-6.3l-2.61.16c-.28.02-.52-.2-.54-.48-.02-.28.2-.52.48-.54l2.54-.15,3.17-19.56c.04-.23.23-.41.47-.43.14-.01,14.5-1.15,18.4-9.26,4.03-8.38,11.35-23.82,11.42-23.97.02-.03.04-.07.06-.1.21-.27,5.22-6.56,11.87-5.25l17.13-.18Zm-54.74,66.45c.32-.23.37-.79.37-1.07l-3.78-8.51c-.04-.09-.05-.19-.04-.29l2.55-15.44.25-1.84c-1.37.25-2.45.38-3,.43l-3.15,19.41c.32.65,1.68,3.35,3.17,6.24l2,.89c.75.33,1.33.4,1.63.18Zm-82.82-3.36l-3.77-8.7c-.04-.09-.05-.19-.03-.29l1.92-11.14.71-4.64c-1.24-.63-2.21-1.22-2.82-1.61l-3.14,23.46c1.2,1.73,2.11,3.22,2.74,4.48l2.06.03c.1,0,.2.03.29.09.53.37.82.26.91.22.6-.24,1-1.37,1.14-1.91Z"/>
        </g>
        <path class="cls-2" d="m29.09,191.7l14.63-6.89c.21-.1.44-.15.68-.15h11.6c1.16,0,1.93,1.2,1.45,2.26-2.43,5.35-10.3,17.64-28.45,7.63-1.14-.63-1.08-2.29.09-2.84Z"/>
        <path class="cls-4" d="m107.01,135.28s4.63,5.6-.6,18.61c-5.23,13.01-22.33,8.72-22.33,8.72,0,0-10.19,14.28-17.7,2.15-7.51-12.14,4.56-17.5,4.56-17.5-1.94-6.04.8-11.97.8-11.97h35.27Z"/>
        <path class="cls-4" d="m138.21,166.6l-9.49,20.43s-13.26-5.62-7.96-16.62c5.3-11.01,17.45-3.81,17.45-3.81Z"/>
        <path class="cls-4" d="m17.36,180.76l1.21-28.06s15.34.04,14.5,15.25-15.71,12.8-15.71,12.8Z"/>
        <path class="cls-3" d="m1.58,197.65c-.36,0-.72-.03-1.08-.09-.17-.03-.33-.13-.42-.29-.09-.15-.11-.34-.06-.5.51-1.59,5.15-15.53,9.85-15.7.78-.03,1.42.34,1.79,1.05,1.14,2.14-.25,7.33-2.98,11.11-2.09,2.89-4.58,4.43-7.11,4.43Zm-.15-1.23c2.91.09,5.15-2.37,6.27-3.92,2.59-3.58,3.7-8.3,2.89-9.81-.15-.29-.36-.41-.67-.4-2.78.1-6.57,8.43-8.49,14.13Z"/>
        <path class="cls-3" d="m9.9,182.29h0c-.34,0-.61-.28-.6-.62l.47-35.44s0-.08.01-.13c.04-.16.95-4.01,6.07-7.44,6.73-4.51,17.18-6.14,31.06-4.84l41.64.68c26.75.48,40.25-.42,42.49-2.84.4-.43.39-.85.32-1.54-.05-.49-.1-1.05.14-1.6.14-.31.5-.45.81-.32.31.14.45.5.32.81-.11.26-.08.6-.05,1,.06.69.15,1.63-.65,2.48-1.81,1.95-8.38,3.85-43.41,3.23l-41.67-.68s-.03,0-.05,0c-16.95-1.59-25.83,1.64-30.29,4.63-4.4,2.95-5.42,6.19-5.55,6.64l-.47,35.36c0,.34-.28.6-.61.6Z"/>
        <path class="cls-3" d="m27.37,225.33c-.14,0-.27-.01-.38-.03l-7.42-1.01c-.25-.03-.45-.22-.51-.46l-2.64-10.6s-.02-.08-.02-.12c-1.23-30.96,1.61-63.88,1.64-64.21,0-.04.01-.09.02-.13,2.24-7.25,6.17-10.93,9.07-12.75,3.17-1.98,5.81-2.22,5.92-2.23.34-.03.63.22.66.56.03.34-.22.63-.56.66-.02,0-2.5.24-5.43,2.09-2.7,1.7-6.35,5.16-8.47,11.97-.14,1.66-2.82,33.71-1.63,63.92l2.52,10.14,7.02.95s.02,0,.03,0c0,0,.56.09.77-.24.22-.34.6-1.9-3.43-7.7l-3.46-.77c-.33-.07-.54-.4-.46-.73.07-.33.4-.54.73-.46l3.69.83c.15.03.28.12.37.25,3.35,4.79,4.53,7.82,3.59,9.27-.41.63-1.1.8-1.63.8Z"/>
        <path class="cls-3" d="m24.9,216.22s-.05,0-.08,0c-.34-.04-.57-.35-.53-.69l3.27-24.48c.03-.26.23-.47.49-.52.05,0,4.57-.89,9.7-3.49,4.69-2.38,10.87-6.74,13.66-13.98.12-.32.48-.47.79-.35.32.12.47.48.35.79-2.32,6.03-7.25,11.09-14.28,14.65-4.4,2.23-8.28,3.21-9.56,3.5l-3.21,24.05c-.04.31-.3.53-.61.53Z"/>
        <path class="cls-3" d="m31.2,221.47c-.37,0-.82-.12-1.32-.47-.28-.19-.35-.58-.15-.85.19-.28.57-.35.85-.15.49.34.73.24.82.21.52-.21.91-1.21,1.07-1.81l-3.76-8.67c-.05-.11-.06-.23-.04-.35l1.92-11.14c.06-.33.37-.56.71-.5.33.06.56.37.5.71l-1.89,10.96,3.76,8.69c.05.11.06.24.04.36-.05.24-.51,2.34-1.86,2.88-.18.07-.39.12-.65.12Z"/>
        <path class="cls-3" d="m42.27,196.64c-7.41,0-14.12-4.77-14.45-5-.27-.2-.34-.58-.14-.85s.58-.34.85-.14c.09.07,9.15,6.49,17.39,4.31,4.18-1.11,7.49-4.25,9.82-9.35.14-.31.5-.44.81-.3.31.14.44.5.3.81-2.5,5.45-6.07,8.82-10.63,10.02-1.32.35-2.66.5-3.97.5Z"/>
        <path class="cls-3" d="m50.58,197.59c-.23,0-.45-.13-.55-.35l-1.31-2.75c-.15-.31-.01-.67.29-.82.31-.14.67-.02.82.29l1.31,2.75c.15.31.01.67-.29.82-.08.04-.17.06-.26.06Z"/>
        <path class="cls-3" d="m42.48,200.14c-.32,0-.59-.25-.61-.57l-.24-3.51c-.02-.34.23-.63.57-.65.34-.03.63.23.65.57l.24,3.51c.02.34-.23.63-.57.65-.01,0-.03,0-.04,0Z"/>
        <path class="cls-3" d="m34.22,198.97s-.06,0-.1,0c-.33-.05-.56-.37-.51-.7l.6-3.8c.05-.33.37-.56.7-.51.33.05.56.37.51.7l-.6,3.8c-.05.3-.31.52-.6.52Z"/>
        <path class="cls-3" d="m110.78,224.97s-.08,0-.12,0c0,0-.01,0-.02,0l-7.77-.82c-.24-.03-.45-.19-.52-.43l-2.77-8.89c-.02-.06-.03-.11-.03-.17l-.4-28.67-49.87-.35c-.34,0-.61-.28-.61-.62,0-.34.28-.61.61-.61h0l50.47.35c.33,0,.6.27.61.6l.41,29.18,2.62,8.42,7.36.78s.45,0,.6-.23c.08-.12.28-.64-.48-2.11-1.41-2.72-2.71-5.31-3.18-6.24l-2.54.15c-.34.02-.63-.24-.65-.57-.02-.34.24-.63.57-.65l2.94-.18c.25-.01.47.12.58.34.02.03,1.61,3.22,3.35,6.59.78,1.5.91,2.6.42,3.35-.41.62-1.14.78-1.59.78Z"/>
        <path class="cls-3" d="m108.05,215.13s-.07,0-.1,0c-.33-.05-.56-.37-.51-.7l3.24-19.96c.05-.28.28-.49.56-.51.14-.01,14.44-1.14,18.32-9.2,4.03-8.38,11.35-23.81,11.42-23.97.02-.04.04-.08.07-.12.21-.27,5.26-6.6,11.96-5.29l17.1-.18c.83-.31,6.75-2.88,4.35-11.14-.27-.33-1.45-1.63-3.06-1.55-1.58.08-3.23,1.49-4.78,4.1-.17.29-.55.39-.84.21-.29-.17-.39-.55-.21-.84,1.8-3.02,3.75-4.6,5.79-4.69,2.48-.12,4.08,2.03,4.15,2.13.04.06.07.12.09.19,2.96,9.92-5.1,12.76-5.19,12.79-.06.02-.12.03-.19.03l-17.26.18s-.09,0-.13-.01c-5.71-1.16-10.3,4.21-10.78,4.79-.53,1.11-7.49,15.81-11.39,23.91-3.81,7.91-16.2,9.58-18.85,9.85l-3.16,19.49c-.05.3-.31.51-.6.51Z"/>
        <path class="cls-3" d="m170.22,142.51c-.16,0-.33-.06-.45-.19l-20.12-21.47c-.23-.25-.22-.63.03-.87.25-.23.63-.22.87.03l20.12,21.47c.23.25.22.63-.03.87-.12.11-.27.17-.42.17Z"/>
        <path class="cls-3" d="m114.93,223c-.47,0-1.02-.13-1.62-.4-.31-.14-.45-.5-.31-.81.14-.31.5-.45.81-.31.72.32,1.26.39,1.53.19.28-.2.33-.7.32-.96l-3.78-8.49c-.05-.11-.06-.23-.04-.35l2.55-15.45c.05-.33.37-.56.7-.5.33.06.56.37.5.7l-2.52,15.26,3.75,8.43c.03.06.04.12.05.19.01.15.11,1.48-.82,2.16-.31.23-.69.34-1.12.34Z"/>
        <path class="cls-3" d="m130.12,185.62c-.12,0-.24-.03-.34-.11-.11-.07-2.62-1.8-4.62-4.62-2.7-3.82-3.12-7.79-1.21-11.48,1.91-3.68,5.19-5.67,9.48-5.74,3.18-.05,5.77.96,5.88,1,.31.12.47.48.34.79-.12.31-.48.47-.79.34-.02,0-2.5-.97-5.45-.91-3.85.08-6.67,1.79-8.38,5.08-1.71,3.29-1.34,6.72,1.1,10.18,1.87,2.65,4.31,4.33,4.33,4.35.28.19.35.57.16.85-.12.17-.31.27-.51.27Z"/>
        <path class="cls-3" d="m145.61,125.3c-.14,0-.29-.05-.4-.15-.26-.22-.28-.61-.06-.86.02-.03,2.51-2.88,5.55-5.48,1.87-1.6,3.55-2.78,5.03-3.53-3.86-.08-9.51.52-13.47,4.08-.25.23-.64.21-.86-.05-.23-.25-.21-.64.05-.86,5.85-5.26,14.75-4.57,17.79-4.14.4,0,.78.07,1.13.19.3.11.48.43.39.74-.08.31-.4.5-.71.44-.02,0-.38-.07-.99-.16-3.85.06-10.53,6.76-12.97,9.56-.12.14-.29.21-.46.21Z"/>
        <path class="cls-3" d="m134.04,130.24c-.07,0-.14-.01-.2-.03-5.32-1.87-7.4-5.55-8.21-8.31-.87-2.97-.49-5.48-.48-5.58.03-.19.15-.36.33-.45,7.7-3.87,15.65,9.38,15.98,9.95.17.29.08.67-.22.84-.29.17-.67.08-.84-.22-.08-.13-7.48-12.47-14.08-9.62-.07.73-.15,2.64.49,4.78,1.07,3.59,3.57,6.1,7.42,7.45.32.11.49.46.37.78-.09.25-.33.41-.58.41Z"/>
        <path class="cls-3" d="m17,179.11c-.27,0-.51-.17-.59-.44-.09-.32.09-.66.42-.76.11-.03,11.52-3.47,12.88-14.08.56-4.38-1.13-8.11-5.03-11.07-2.97-2.26-6.16-3.21-6.2-3.22-.32-.09-.51-.43-.42-.76.09-.32.43-.51.76-.42.14.04,3.42,1.01,6.57,3.4,4.23,3.21,6.15,7.44,5.54,12.23-.6,4.73-3.18,8.85-7.44,11.9-3.2,2.29-6.18,3.17-6.31,3.2-.06.02-.11.02-.17.02Z"/>
        <path class="cls-3" d="m71.16,166.29c-.07,0-.14,0-.21,0-2.53-.08-4.74-1.63-6.58-4.61-2.14-3.47-2.77-6.71-1.87-9.64,1.15-3.74,4.44-5.81,5.69-6.48-1.48-5.32.79-10.31.89-10.53.14-.31.51-.44.81-.3.31.14.44.51.3.81-.03.07-2.3,5.12-.68,10.14.1.3-.05.62-.33.75-.04.02-4.27,1.95-5.5,5.97-.79,2.58-.2,5.48,1.74,8.63,1.61,2.6,3.49,3.96,5.58,4.03,4.63.16,9.02-5.9,9.06-5.96.15-.2.4-.3.65-.24.04,0,3.75.92,7.96.44,5.53-.63,9.25-3.25,11.08-7.78,4.41-10.96.67-15.8.63-15.84-.21-.26-.17-.65.09-.86.26-.21.64-.18.86.08.18.21,4.27,5.37-.44,17.08-1.98,4.93-6.17,7.88-12.11,8.55-3.64.41-6.85-.15-7.95-.38-1.03,1.33-5.06,6.15-9.64,6.15Z"/>
        <circle class="cls-3" cx="150.1" cy="132.68" r="1.52"/>
      </g>
      <g>
        <g>
          <path class="cls-1" d="m138.58,73.34c1.46,2.34.71,4.58.7,4.6-.01.04-.02.08-.02.13.13,1.82-.42,3.35-1.61,4.54-3.82,3.8-13.05,3.16-13.14,3.15-.01,0-.02,0-.03,0l-3.57.04c.03-1.39-.07-2.69-.24-3.83-.54-3.68-1.77-6.43-2.07-7.06l1.34-3.22c2.9-.31,4.34-2.85,4.87-4.08l1.75.37s.02,0,.03,0c6.12.74,10.27,2.59,11.99,5.36Z"/>
          <path class="cls-1" d="m128.48,62.08c.1.23.98,2.33.08,3.57-.59.82-1.86,1.12-3.76.9-.16-.02-.3.08-.34.23,0,0-.04.14-.12.35-.38.98-1.71,3.74-4.63,3.95-.12,0-.22.08-.27.2l-1.47,3.53c-.04.08-.03.18,0,.27.04.08,2.52,5.12,2.28,11.07-.12,3.15-1,6.55-3.4,9.6-.06.07-.08.17-.06.26.01.06,1.25,6.34-2.33,10.6-1.69,2.01-4.18,3.28-7.43,3.77-1.3.2-2.72.28-4.26.23-.14,0-.28.09-.32.24,0,.02-.3,1.1-1.07,2.33-.65,1.03-1.63,2.17-3.05,2.87-.82.4-1.71.63-2.67.68h0c-1.46.08-3.07-.25-4.83-.98-.14-.06-.29-.01-.38.11-.04.06-4.21,5.65-10.03,5.73h-.13c-3.69,0-7.27-2.19-10.64-6.53,0,0,0,0-.01-.01-.01-.01-.03-.03-.04-.04-.02-.01-.04-.03-.06-.04,0,0,0,0,0,0-.02-.01-.04-.02-.06-.02-.01,0-.03,0-.04,0h-.03s-.04,0-.06,0c-.01,0-.03,0-.04.01,0,0-.02,0-.03.01-.01,0-.03,0-.04.02-.01,0-.02,0-.03.01-.03.03-2.43,1.82-5.18,2.32-1.13.21-2.32.2-3.43-.25-.48-.19-.93-.46-1.34-.8-.01-.01-.03-.03-.05-.04-1.55-1.3-2.6-3.63-3.14-6.95-.02-.13-.12-.23-.25-.26-.03,0-3.2-.69-5.96-3.02-3.69-3.11-4.97-7.52-3.8-13.14.03-.11-.02-.24-.11-.31-.03-.03-3.41-2.83-3.72-6.81-.19-2.35.71-4.65,2.67-6.85.08-.1.1-.23.05-.35-.06-.12-.18-.19-.31-.18-.02,0-2.28.12-3.58-1.35-.87-.99-1.13-2.49-.77-4.45.25-.29,1.47-1.57,3.05-1.63,1.04-.04,2.04.45,3,1.45.09.1.24.13.36.07.02-.01,2.24-1.01,3.73-.14.07.04.17.06.25.03.08-.03.15-.08.19-.16.01-.03,1.38-2.68,3.85-4.82,3.27-2.83,6.82-3.46,10.56-1.87.08.04.18.03.26,0,.08-.04.14-.11.17-.2.02-.06,1.68-5.35,6.35-7.83.23-.12.46-.24.71-.34,3.53-1.56,7.8-1.17,12.69,1.15.1.05.21.04.31-.02.02-.01,2.38-1.49,5.76-1.72,4.53-.31,8.62,1.67,12.16,5.88.06.07.13.11.22.11.08,0,.17-.02.23-.07.23-.19,5.63-4.64,11.1-.5.12.09.28.08.4,0,.14-.12,3.62-2.93,7.01-.25.12.1.3.09.41-.01.02-.01,1.55-1.39,3.19-1.18.87.11,1.63.65,2.26,1.6Z"/>
          <path class="cls-1" d="m124.69,66.93l1.5.32c-.38.01-.78,0-1.22-.04-.04.11-.09.24-.16.4l-.25-.05c-.17-.04-.28-.21-.25-.38,0-.02,0-.04.02-.05.06-.14.21-.22.36-.19Z"/>
          <path class="cls-1" d="m138.58,73.34c-1.72-2.77-5.87-4.62-11.99-5.36,0,0-.02,0-.03,0l-1.75-.37c.07-.16.12-.3.16-.4.44.04.84.06,1.22.04h0l.48.1c6.41.78,10.6,2.69,12.45,5.67,1.49,2.4.9,4.65.77,5.07.12,1.98-.48,3.66-1.8,4.97-3,2.98-8.89,3.39-11.85,3.39-.97,0-1.63-.04-1.77-.06l-3.59.04c.01-.21.02-.43.03-.64l3.57-.04s.02,0,.03,0c.09,0,9.32.65,13.14-3.15,1.2-1.19,1.74-2.72,1.61-4.54,0-.04,0-.09.02-.13,0-.02.76-2.26-.7-4.6Z"/>
          <path class="cls-1" d="m120.27,86.13c0-.18.14-.32.31-.32h.33c0,.21-.01.42-.03.63h-.29s0,0,0,0c-.17,0-.32-.14-.32-.31Z"/>
          <path class="cls-1" d="m124.31,67.17c-.04.17.07.34.25.38l.25.05c-.53,1.22-1.97,3.77-4.87,4.08l-1.34,3.22c.3.63,1.53,3.38,2.07,7.06.17,1.14.27,2.44.24,3.83h-.33c-.17,0-.32.15-.31.33h-.02c.23-5.95-2.25-10.99-2.28-11.07-.04-.08-.04-.18,0-.27l1.47-3.53c.05-.11.15-.19.27-.2,2.92-.21,4.24-2.96,4.63-3.95h0s-.01.03-.02.05Z"/>
          <path class="cls-1" d="m107.12,110.36c.17.02.3.18.28.35l-.03.25c-.21.04-.43.07-.65.1l.04-.41c.02-.14.13-.25.26-.28.03,0,.06,0,.09,0Z"/>
          <path class="cls-1" d="m114.45,106.59c3.59-4.27,2.35-10.54,2.33-10.6-.02-.09,0-.19.06-.26,2.4-3.05,3.28-6.45,3.4-9.6h.02c0,.17.14.31.32.31h.3c-.17,3.05-1.05,6.46-3.45,9.56.18,1.02,1.02,6.8-2.5,10.99-1.75,2.09-4.29,3.41-7.57,3.96l.03-.25c.02-.17-.11-.33-.28-.35-.03,0-.06,0-.09,0h0c3.25-.5,5.73-1.76,7.43-3.77Z"/>
          <path class="cls-1" d="m101.98,113.41c-.21.34-.45.69-.73,1.03l.1-1.17s.01-.08.03-.11c.06-.11.18-.19.31-.17.18.01.31.17.29.34v.08Z"/>
          <path class="cls-1" d="m101.37,113.15c.77-1.23,1.07-2.31,1.07-2.33.04-.14.17-.24.32-.24,1.54.05,2.96-.03,4.26-.23h0c-.14.03-.24.14-.26.28l-.04.41c-1.16.15-2.4.22-3.73.18-.13.4-.44,1.24-1.01,2.18v-.08c.02-.18-.11-.33-.28-.34-.13-.01-.25.06-.31.17h0Z"/>
          <path class="cls-1" d="m100.92,131.8l2.7,1.35c.41.12.72.1.92-.07.38-.32.37-1.11.34-1.39l-.73-4.26s0-.07,0-.11l2.25-13.19.32-3.09c.22-.03.44-.06.65-.1l-.34,3.27-2.25,13.15.73,4.22c.02.15.14,1.37-.56,1.96-.24.2-.52.3-.86.3-.21,0-.43-.04-.68-.11-.02,0-.03-.01-.05-.02l-2.57-1.28c.05-.1.1-.2.14-.3.03-.07.03-.14.02-.21l-.04-.14Z"/>
          <path class="cls-1" d="m99.92,128.05l1.83-11.99.23-2.64c.58-.93.89-1.77,1.01-2.18,1.33.03,2.58-.03,3.73-.18l-.32,3.09-2.25,13.19s0,.07,0,.11l.73,4.26c.03.28.04,1.07-.34,1.39-.2.17-.51.19-.92.07l-2.7-1.35-1-3.75Z"/>
          <path class="cls-1" d="m100.8,132.45l-.29-.14c-.12-.06-.19-.18-.18-.31,0-.04.01-.08.03-.12.08-.16.27-.22.43-.14l.13.06.04.14c.02.07.01.14-.02.21-.05.1-.09.21-.14.3Z"/>
          <path class="cls-1" d="m101.75,116.05l-1.83,11.99,1,3.75-.13-.06c-.16-.08-.35-.01-.43.14-.02.04-.03.08-.03.12h-.02s-1.03-3.85-1.03-3.85c-.01-.04-.01-.09,0-.13l1.84-12.04.13-1.53c.28-.35.52-.7.73-1.03l-.23,2.64Z"/>
          <path class="cls-1" d="m99.28,128.02s0,.09,0,.13l1.03,3.84c-.39.86-.84,1.32-1.34,1.38-.71.08-1.38-.68-1.53-.86l-1.62-5.13.3-8.78.03-1.29c.88-.1,1.7-.33,2.47-.71,1.12-.55,1.98-1.34,2.64-2.15l-.13,1.53-1.84,12.04Z"/>
          <path class="cls-1" d="m98.32,116.02c1.42-.7,2.4-1.84,3.05-2.87h0s-.03.08-.03.12l-.1,1.17c-.65.81-1.51,1.6-2.64,2.15-.77.38-1.59.62-2.47.71v-.27c0-.17-.14-.31-.31-.31,0,0-.14-.01-.17-.02.96-.05,1.85-.28,2.67-.68Z"/>
          <path class="cls-1" d="m95.51,117.05c0-.18-.04-.34.14-.34h0s.17.02.17.02c.17,0,.32.14.32.31v.27c-.22.02-.43.04-.64.04v-.3Z"/>
          <path class="cls-1" d="m99.04,134c-.06,0-.12.01-.18.01-1.08,0-1.93-1.11-1.96-1.16-.02-.03-.04-.06-.05-.09l-1.65-5.24s-.02-.07-.01-.1l.3-8.82.03-1.25c.21,0,.43-.02.64-.04l-.03,1.29-.3,8.78,1.62,5.13c.15.18.82.94,1.53.86.49-.06.94-.52,1.34-1.38h.02c-.01.13.06.25.18.31l.29.14c-.48.96-1.07,1.48-1.76,1.56Z"/>
          <path class="cls-1" d="m122.62,61.67c-3.39-2.68-6.86.13-7.01.25-.11.09-.28.1-.4,0-5.47-4.14-10.87.31-11.1.5-.06.05-.15.08-.23.07-.08,0-.16-.05-.22-.11-3.53-4.21-7.62-6.19-12.16-5.88-3.38.23-5.74,1.71-5.76,1.72-.09.06-.21.07-.31.02-4.88-2.32-9.15-2.71-12.69-1.15-.24.11-.48.22-.71.34l-.06-.11c.25-.13.5-.26.77-.38,3.67-1.62,7.8-1.69,12.8.65.59-.34,2.82-1.52,5.9-1.73,3.22-.22,7.98.63,12.49,5.87,1.18-.87,6.32-4.17,11.45-.47.84-.6,4.16-2.63,7.4-.27.52-.4,1.93-1.36,3.49-1.16,1.07.14,1.98.78,2.73,1.91,0,.01.01.03.02.04.05.11,1.19,2.62.02,4.23-.55.76-1.52,1.17-2.88,1.22h0l-1.5-.32c-.15-.03-.31.05-.36.19h0c.08-.21.12-.34.12-.35.04-.15.19-.25.34-.23,1.9.22,3.17-.08,3.76-.9.9-1.24.02-3.34-.08-3.57-.63-.95-1.39-1.49-2.26-1.6-1.64-.21-3.17,1.16-3.19,1.18-.11.1-.29.11-.41.01Z"/>
          <path class="cls-1" d="m80.42,122.2h-.15c-3.71,0-7.29-2.07-10.64-6.15l.07-.79c0-.09-.02-.17-.08-.23,0,0,0,0,.01.01,3.37,4.33,6.95,6.53,10.64,6.53h.13c5.82-.08,9.99-5.67,10.03-5.73.09-.12.24-.16.38-.11,1.76.73,3.37,1.06,4.83.98-.17,0-.14.17-.14.34v.3c-1.45.05-3.02-.27-4.71-.94-.82,1.04-4.81,5.71-10.38,5.79Z"/>
          <path class="cls-1" d="m69.63,115.02s-.03-.03-.04-.04c.02.01.03.03.04.04Z"/>
          <path class="cls-1" d="m69.58,114.98s-.04-.03-.06-.04c.02,0,.04.02.06.04Z"/>
          <path class="cls-1" d="m69.52,114.94s-.04-.02-.06-.02c.02,0,.04.01.06.02Z"/>
          <path class="cls-1" d="m69.45,114.92s.04.01.06.02c0,0,0,0,0,0,.02,0,.04.02.06.04.01.01.03.03.04.04.06.06.08.14.08.23l-.07.79c-.1-.13-.21-.25-.31-.38-.08.06-.19.13-.31.21l.06-.68c0-.1.07-.19.15-.24.01,0,.02-.01.04-.02,0,0,.02-.01.03-.01.01,0,.03-.01.04-.01.02,0,.04,0,.06,0h0s.04,0,.07,0Z"/>
          <path class="cls-1" d="m69.41,114.91s.03,0,.04,0c-.02,0-.04,0-.07,0h.02Z"/>
          <path class="cls-1" d="m69.38,114.91s-.04,0-.06,0c.02,0,.04,0,.06,0Z"/>
          <path class="cls-1" d="m69.28,114.93s-.02,0-.03.01c0,0,.02,0,.03-.01Z"/>
          <path class="cls-1" d="m69.25,114.94s-.03.01-.04.02c.01-.01.02-.01.04-.02Z"/>
          <path class="cls-1" d="m68.1,127.78c.13.46.86,3.12,1.01,4.13,0,.02,0,0,0,.02,0,.03.13.86-.48,1.38-.34.29-.78.43-1.32.43-.18,0-.37-.01-.57-.05l-3.04-.52c.14-.17.27-.36.41-.58l2.73.47c.61.1,1.07.02,1.37-.24.34-.29.39-.74.39-.84-.17-1.07-.99-4.08-1-4.11-.01-.04-.01-.08,0-.13l1.01-7.27.39-4.61c.12-.08.23-.15.31-.21.1.13.21.26.31.38l-.38,4.5-1.15,7.23Z"/>
          <path class="cls-1" d="m63.75,117.58c.01-.14.12-.25.26-.28.03,0,.06,0,.1,0,.17.02.3.18.28.35l-.03.24c-.22.04-.43.08-.65.11l.05-.42Z"/>
          <path class="cls-1" d="m64.19,132.48c.04-.07.06-.15.04-.23l-.97-4.35.98-8.91.13-1.1c2.01-.42,3.78-1.44,4.65-2.01l-.39,4.61-1.01,7.27s0,.09,0,.13c0,.03.83,3.04,1,4.11,0,.1-.05.55-.39.84-.3.25-.76.34-1.37.24l-2.73-.47s.05-.08.07-.12Z"/>
          <path class="cls-1" d="m69.01,115.88c-.87.57-2.64,1.6-4.65,2.01l.03-.24c.02-.17-.11-.33-.28-.35-.03,0-.07,0-.1,0h0c2.75-.51,5.15-2.3,5.18-2.33,0,0,.02-.01.03-.01-.08.05-.14.14-.15.24l-.06.68Z"/>
          <path class="cls-1" d="m64.11,132.6c-.14.21-.27.41-.41.58l-.19-.03c-.17-.03-.29-.2-.26-.37.01-.06.04-.11.07-.15.07-.08.18-.13.3-.11l.49.08Z"/>
          <path class="cls-1" d="m63.71,118l-.11.91-.98,8.96s0,.07,0,.1l.95,4.27c-.08.13-.17.25-.25.37-.46.62-.91.93-1.31.9-.65-.04-1.19-.95-1.35-1.32l-1.34-4.56v-7.95l.2-2.46c.26.16.53.3.82.41,1.1.44,2.26.5,3.36.36Z"/>
          <path class="cls-1" d="m64.23,132.24c.02.08,0,.16-.04.23-.03.04-.05.08-.07.12l-.49-.08c-.11-.02-.22.03-.3.11h0c.08-.11.17-.24.25-.37l-.95-4.27s0-.07,0-.1l.98-8.96.11-.91c.22-.03.44-.07.65-.11l-.13,1.1-.98,8.91.97,4.35Z"/>
          <path class="cls-1" d="m59.56,116.82l-.03.41c-.07-.04-.13-.08-.2-.12v-.59c.12.11.23.23.23.3Z"/>
          <path class="cls-1" d="m59.52,117.23l-.2,2.46v-2.59c.06.04.13.08.2.12Z"/>
          <path class="cls-1" d="m59.56,116.82c0-.07-.11-.18-.23-.3v-.05c0-.09-.04-.17-.09-.22.41.34.86.61,1.34.8,1.11.44,2.3.46,3.43.25h0c-.13.03-.24.14-.26.28l-.05.42c-1.11.14-2.26.08-3.36-.36-.28-.11-.56-.25-.82-.41l.03-.41Z"/>
          <path class="cls-1" d="m59.33,116.47v.05c-.2-.18-.43-.37-.32-.37.07,0,.13.02.18.06.01.01.03.03.05.04.06.06.09.14.09.22Z"/>
          <path class="cls-1" d="m61.97,134.16c-1.19-.08-1.87-1.65-1.9-1.72,0-.01,0-.02-.01-.04l-1.35-4.62s-.01-.06-.01-.09l.64-7.99v7.95l1.34,4.56c.16.37.7,1.27,1.35,1.32.41.03.85-.28,1.31-.9h0s-.06.1-.07.15c-.03.17.09.34.26.37l.19.03c-.53.66-1.08.98-1.64.98-.03,0-.07,0-.1,0Z"/>
          <path class="cls-1" d="m65.58,65.06c.45-1.24,2.18-5.48,6.42-7.73l.06.11c-4.67,2.48-6.33,7.77-6.35,7.83-.03.09-.09.16-.17.2-.08.04-.18.04-.26,0-3.74-1.59-7.29-.96-10.56,1.87-2.47,2.14-3.84,4.79-3.85,4.82-.04.08-.11.14-.19.16-.08.03-.17.01-.25-.03-1.5-.86-3.71.13-3.73.14-.12.06-.27.03-.36-.07-.95-1-1.96-1.49-3-1.45-1.58.06-2.8,1.34-3.05,1.63-.36,1.96-.1,3.46.77,4.45,1.29,1.47,3.56,1.35,3.58,1.35.13-.01.25.06.31.18.06.12.04.25-.05.35-1.96,2.2-2.86,4.5-2.67,6.85.31,3.98,3.69,6.78,3.72,6.81.09.07.14.2.11.31-1.16,5.62.12,10.04,3.8,13.14,2.77,2.33,5.93,3.01,5.96,3.02.13.03.23.13.25.26.54,3.33,1.59,5.65,3.14,6.95-.05-.04-.11-.06-.18-.06-.11,0,.12.18.32.37v.59c-1.93-1.27-3.23-3.8-3.87-7.54-.78-.2-3.51-.99-6.01-3.09-2.66-2.23-5.5-6.39-4.07-13.59-.69-.61-3.5-3.31-3.81-7.12-.19-2.34.73-4.6,2.51-6.78-.87-.07-2.47-.4-3.51-1.57-1.02-1.16-1.23-2.82-.81-5.03,0-.05.05-.1.08-.14.06-.07,1.39-1.88,3.46-1.97,1.17-.05,2.29.45,3.33,1.49.6-.24,2.5-.72,3.95-.08.42-.76,1.66-2.91,3.77-4.74,3.33-2.89,7.4-3.38,11.22-1.88Z"/>
        </g>
        <g>
          <path class="cls-2" d="m124.76,88.61h3.11c.66,0,4.97-.52,7.09-1.74,3.03-1.74,10.86-6.22.52-14.74-.48-.4-1.06-.67-1.67-.81l-6.47-1.45c-1.41-.32-3.09-.42-3.87,1.2-.35.71-1.42.55-2.24,1.42-1.33,1.41-2.31,3.42-1.64,5.23.69,1.86,1.29,4.23,1.12,6.52-.17,2.36,1.69,4.36,4.05,4.36Z"/>
          <path class="cls-3" d="m67.69,102.48c-2.76,0-4.87-1.78-4.9-1.81-.27-.23-.3-.63-.07-.9.23-.27.63-.3.9-.07h0c.17.15,4.32,3.61,8.22-.49.24-.25.65-.26.9-.02.25.24.26.65.02.9-1.72,1.81-3.5,2.39-5.08,2.39Z"/>
          <path class="cls-3" d="m60.28,104.59c-2.96,0-5.08-.83-6.33-2.49-2.88-3.81.1-10.46.22-10.75.15-.32.52-.46.84-.32.32.15.46.52.32.84-.03.06-2.79,6.24-.37,9.45,1.34,1.77,4.08,2.36,8.15,1.75.35-.05.67.19.72.54.05.35-.19.67-.54.72-1.09.16-2.1.24-3.02.24Z"/>
          <path class="cls-3" d="m102.09,81.81c-2.35,0-4-.58-4.09-.62-.21-.08-.36-.26-.41-.48-.7-3.55-.18-6.38,1.56-8.41,2.93-3.43,8.18-3.28,8.41-3.27.35.01.63.31.61.66-.01.35-.31.62-.66.61h0s-4.87-.13-7.4,2.83c-1.41,1.65-1.86,3.99-1.34,6.96.84.23,3.16.74,5.85.18,4.51-.93,7.91-4.25,10.13-9.87.13-.33.5-.49.83-.36.33.13.49.5.36.83-2.98,7.57-7.69,9.98-11.12,10.67-.97.2-1.89.27-2.73.27Z"/>
          <path class="cls-3" d="m106.23,105.51c-.78,0-1.65-.11-2.59-.32-.34-.08-.56-.42-.48-.76.08-.34.42-.56.76-.48,2.45.55,4.21.31,5.24-.72,1.74-1.74.96-5.27.95-5.3-.08-.34.14-.68.48-.76.34-.08.68.13.76.48.04.17.95,4.24-1.29,6.48-.92.92-2.2,1.38-3.84,1.38Z"/>
          <path class="cls-3" d="m126.5,86.96c-1.02,0-1.69-.05-1.79-.05-.35-.03-.61-.33-.59-.68.03-.35.33-.62.68-.59.09,0,9.18.64,12.89-3.06,1.14-1.14,1.64-2.54,1.52-4.29,0-.09,0-.17.04-.26.03-.08.71-2.13-.68-4.34-1.68-2.68-5.74-4.47-11.75-5.2-.35-.04-.6-.36-.56-.71.04-.35.36-.6.71-.56,6.52.79,10.79,2.75,12.7,5.82,1.5,2.41.99,4.7.82,5.27.11,2.06-.52,3.79-1.9,5.16-3.08,3.07-9.09,3.48-12.09,3.48Z"/>
          <path class="cls-3" d="m80.54,122.71c-3.86,0-7.56-2.16-11.02-6.42-1.41.94-5.47,3.27-9.03,1.84-2.57-1.03-4.26-3.76-5.04-8.11-1-.27-3.57-1.12-5.94-3.1-2.7-2.26-5.59-6.47-4.22-13.72-.89-.82-3.48-3.5-3.78-7.21-.18-2.27.53-4.48,2.12-6.59-.92-.16-2.14-.56-3.04-1.58-1.09-1.24-1.42-3.04-.98-5.35.02-.1.06-.2.13-.28.06-.08,1.59-1.95,3.8-2.04,1.21-.05,2.36.44,3.43,1.44.72-.26,2.24-.67,3.6-.2.54-.92,1.82-2.87,3.77-4.56,3.34-2.9,7.11-3.68,10.94-2.28.65-1.67,2.75-6.09,7.35-8.12,3.73-1.64,8.16-1.3,13.18,1.02.78-.43,2.97-1.49,5.9-1.69,3.25-.22,8.02.61,12.56,5.76,1.56-1.07,6.46-3.84,11.4-.43,1.1-.73,4.25-2.4,7.39-.27.66-.48,2.03-1.28,3.54-1.09,1.16.15,2.16.84,2.95,2.05.02.03.03.05.05.08.05.11,1.26,2.79,0,4.55-.75,1.03-2.14,1.48-4.14,1.33-.46,1.17-1.89,4-5.02,4.44l-1.22,2.92c.38.84,1.52,3.51,2.04,7.02.8,5.46-.31,10.35-3.21,14.17.22,1.36.88,6.98-2.59,11.11-2.5,2.97-6.52,4.44-11.97,4.36-.4,1.13-1.65,3.93-4.47,5.32-2.21,1.09-4.85,1.06-7.85-.09-1.11,1.35-5.05,5.65-10.48,5.73-.05,0-.1,0-.15,0Zm-10.89-7.92c.19,0,.38.08.5.25,3.35,4.3,6.88,6.46,10.51,6.4,5.66-.08,9.74-5.55,9.78-5.6.17-.24.49-.32.76-.21,2.83,1.18,5.27,1.28,7.24.31,2.98-1.47,3.95-4.96,3.96-5,.08-.29.34-.48.63-.47,5.28.16,9.13-1.15,11.43-3.89,3.49-4.14,2.28-10.27,2.27-10.34-.04-.18,0-.38.12-.52,6.81-8.64,1.14-20.21,1.09-20.33-.08-.17-.09-.36-.02-.53l1.47-3.53c.09-.22.3-.37.54-.39,3.3-.23,4.42-3.91,4.46-4.07.09-.3.38-.49.69-.45,1.22.14,2.82.13,3.47-.77.76-1.05.02-2.94-.1-3.23-.57-.86-1.25-1.34-2.01-1.44-1.49-.19-2.93,1.08-2.94,1.09-.23.21-.58.22-.82.03-3.2-2.53-6.47.13-6.61.25-.23.19-.55.2-.79.02-5.26-3.98-10.48.31-10.7.49-.27.23-.67.19-.9-.08-3.45-4.11-7.43-6.05-11.84-5.77-3.31.21-5.64,1.66-5.67,1.68-.18.12-.42.13-.61.04-4.79-2.28-8.97-2.67-12.42-1.15-5.07,2.23-6.87,7.92-6.89,7.98-.05.17-.18.31-.34.39-.16.08-.35.08-.52,0-3.61-1.53-7.05-.93-10.21,1.8-2.43,2.09-3.78,4.71-3.79,4.73-.08.16-.22.27-.39.32-.17.05-.35.03-.5-.06-1.34-.77-3.42.15-3.44.15-.25.11-.54.06-.73-.14-.88-.93-1.81-1.39-2.75-1.35-1.36.05-2.45,1.11-2.77,1.46-.32,1.81-.08,3.19.71,4.09,1.19,1.35,3.3,1.25,3.32,1.25.26-.02.5.13.61.36.11.23.07.51-.1.7-1.9,2.13-2.77,4.35-2.6,6.6.3,3.84,3.58,6.57,3.61,6.59.18.15.27.39.22.62-1.14,5.5.11,9.82,3.71,12.85,2.71,2.27,5.77,2.93,5.8,2.93.26.05.46.26.5.52.67,4.12,2.12,6.66,4.33,7.55,3.63,1.46,8.26-2,8.3-2.03.12-.09.25-.13.38-.13Z"/>
          <path class="cls-3" d="m67.58,134.26c-.2,0-.4-.02-.62-.05-.35-.05-.58-.38-.53-.73.05-.35.38-.58.73-.53.35.06.84.07,1.12-.16.22-.18.27-.48.28-.58-.18-1.08-.98-4.01-.99-4.04-.02-.08-.03-.17-.02-.26l1.01-7.27c.05-.35.37-.59.72-.54.35.05.59.37.54.72l-1,7.14c.16.6.84,3.13,1,4.11,0,.03,0,.07,0,.1,0,.1-.02.98-.73,1.58-.4.34-.91.51-1.53.51Z"/>
          <path class="cls-3" d="m62.34,134.67s-.08,0-.13,0c-1.36-.1-2.09-1.73-2.17-1.91,0-.02-.02-.05-.03-.07l-1.35-4.62c-.02-.06-.03-.12-.03-.18v-9.81c0-.35.29-.64.64-.64s.64.29.64.64v9.72l1.32,4.5c.17.37.62,1.08,1.07,1.11.33.02.76-.34,1.2-1.01l-.92-4.14c-.02-.07-.02-.14-.01-.21l.98-8.96c.04-.35.35-.6.7-.56.35.04.6.35.56.7l-.97,8.86.96,4.29c.04.16,0,.33-.08.47-.74,1.22-1.54,1.84-2.39,1.84Z"/>
          <path class="cls-3" d="m104.35,134.37c-.22,0-.48-.04-.76-.12-.34-.1-.53-.46-.43-.79.1-.34.46-.53.79-.43.18.05.5.12.65,0,.21-.17.27-.74.23-1.09l-.73-4.25c-.01-.07-.01-.14,0-.22l2.25-13.19c.06-.35.39-.58.73-.52.35.06.58.39.52.73l-2.23,13.08.72,4.17s0,.02,0,.03c.02.15.16,1.53-.67,2.23-.22.19-.57.37-1.07.37Z"/>
          <path class="cls-3" d="m99.13,134.53c-1.22,0-2.11-1.15-2.22-1.29-.04-.06-.08-.12-.1-.19l-1.65-5.24c-.02-.07-.03-.14-.03-.21l.18-8.82c0-.35.29-.62.64-.62,0,0,0,0,.01,0,.35,0,.63.3.62.65l-.18,8.72,1.59,5.02c.22.26.75.76,1.21.7.35-.04.71-.43,1.04-1.09l-1-3.73c-.02-.08-.03-.17-.01-.26l1.84-12.04c.05-.35.38-.59.73-.53.35.05.59.38.53.73l-1.82,11.91,1.02,3.82c.04.14.03.29-.03.42-.55,1.26-1.28,1.95-2.15,2.05-.07,0-.15.01-.22.01Z"/>
          <circle class="cls-3" cx="126.41" cy="73.3" r="1.35"/>
        </g>
      </g>
      <g>
        <g>
          <path class="cls-1" d="m103.39,8.62c1.52.75,5.35,3.06,5.88,5.2-.74.13-2.23.56-3.29,1.97-1.26,1.69-1.48,4.21-.65,7.47,2.17,8.52.69,14.27.67,14.35,0,.03-.64,2.93-3.07,5.9-1.87,2.28-5.16,4.99-10.66,6.08-1.08.22-2.25.37-3.51.44-.06,0-2.98.09-6.86-.76-4.16-.91-9.43-2.91-13.46-7.24-1.63-2.52-5.35-9.45-3.35-11.79.09-.11.12-.25.09-.37,0-.12-.04-.25-.14-.34-.02-.02-1.88-1.68-1.88-3.57,0-.86.41-1.66,1.21-2.36.09-.08.14-.2.14-.32s-.06-.24-.15-.32c-.02-.02-2.1-1.74-2.1-3.6,0-.79.38-1.51,1.14-2.14.21-.07,1.07-.3,2,.22,1.27.71,2.15,2.57,2.57,5.36.01.08.29,2.05,1.12,4.56.04.12.08.24.12.37,1.17,3.34,3.33,7.51,7.16,9.21,2.14.95,4.37,1.42,6.46,1.42s3.94-.45,5.48-1.35c2.42-1.41,3.86-3.82,4.17-6.96.36-3.63-2.42-7.12-7.09-8.9-2.76-1.05-6.07-1.36-8.98-.45,1.12-.69,2.45-1.3,3.99-1.62,3.74-.79,7.79.22,12.02,3.02.13.09.3.09.43.01.14-.08.22-.23.21-.38,0-.03-.06-1.12,0-2.63,0-.02,0-.04,0-.05.13-3.01.73-7.63,3.17-8.88.2-.11.29-.35.18-.56-.11-.2-.36-.29-.56-.18-2.45,1.25-3.28,5.16-3.55,8.25l-1.65-2.76s-.02-.03-.03-.05c-.09-.11-2.17-2.79.8-5.54.1-.09.14-.22.13-.35,0-.03-.39-3.48,1.3-4.98.78-.69,1.91-.87,3.36-.53.12.03.24,0,.34-.07,1.14-.85,4.45-2.83,6.04-1.81,1.14.73,1.33,3.01.56,6.59-.04.19.05.38.22.46Z"/>
          <path class="cls-1" d="m96.25,10.16c-2.44,1.25-3.04,5.87-3.17,8.88,0-.07-.02-.15-.06-.21l-.69-1.15c.26-3.09,1.09-7,3.55-8.25.2-.11.45-.02.56.18.1.2.02.45-.18.56Z"/>
          <path class="cls-1" d="m93.08,19.09c-.02.12-.09.24-.2.3-.2.12-.45.06-.57-.14l-.07-.12c.02-.45.05-.95.09-1.46l.69,1.15c.04.07.06.14.06.21,0,.02,0,.04,0,.05Z"/>
          <path class="cls-1" d="m92.78,50.34v4.27c0,.23-.19.42-.42.42s-.42-.19-.42-.42v-4.11c.28-.05.56-.1.83-.16Z"/>
          <path class="cls-1" d="m92.78,50.01v.33c-.27.06-.55.12-.83.16v-.5c0-.2.14-.37.33-.41.03,0,.06,0,.08,0,.23,0,.42.19.42.42Z"/>
          <path class="cls-1" d="m85.12,21.92c4.31,1.64,6.88,4.79,6.56,8.04-.29,2.86-1.59,5.05-3.77,6.32-2.9,1.7-7.19,1.66-11.19-.11-3.49-1.54-5.52-5.37-6.64-8.52l2.14-2.99h0s0,0,0,0c3-4.13,8.64-4.35,12.9-2.73Z"/>
          <path class="cls-1" d="m89.98,15.36c-.24-.32-2.39-3.42.75-6.5-.07-.84-.17-3.92,1.59-5.49.95-.85,2.27-1.11,3.92-.76.83-.59,4.66-3.13,6.82-1.73,1.46.94,1.79,3.28.99,7.15,1.24.65,5.96,3.31,6.12,6.14,0,.11-.03.22-.11.3s-.18.13-.29.14c-.02,0-1.93.11-3.12,1.71-1.1,1.48-1.27,3.76-.51,6.76,2.22,8.74.74,14.5.67,14.74-.02.1-.66,3.08-3.2,6.2-1.92,2.36-5.28,5.15-10.83,6.33v-.33c0-.23-.19-.42-.42-.42-.03,0-.06,0-.08,0h0c5.5-1.09,8.79-3.8,10.66-6.08,2.43-2.97,3.06-5.87,3.07-5.9.02-.08,1.49-5.83-.67-14.35-.83-3.26-.61-5.78.65-7.47,1.06-1.41,2.55-1.84,3.29-1.97-.53-2.15-4.36-4.46-5.88-5.2-.17-.09-.26-.27-.22-.46.78-3.57.58-5.85-.56-6.59-1.59-1.02-4.89.96-6.04,1.81-.1.07-.22.1-.34.07-1.46-.34-2.59-.16-3.36.53-1.69,1.51-1.3,4.95-1.3,4.98.01.13-.03.26-.13.35-2.97,2.76-.89,5.43-.8,5.54.01.01.02.03.03.05l1.65,2.76c-.04.52-.07,1.01-.09,1.46l-2.26-3.78Z"/>
          <path class="cls-1" d="m88.77,50.03c1.26-.07,2.42-.22,3.51-.44h0c-.19.04-.33.21-.33.41v.5c-.98.17-2.02.3-3.13.36-.01,0-.12,0-.31,0-.83,0-3.22-.06-6.26-.68v-.49c0-.2-.14-.37-.33-.41h0c3.88.84,6.8.75,6.86.75Z"/>
          <path class="cls-1" d="m82.24,50.18v4.43c0,.23-.19.42-.42.42s-.42-.19-.42-.42v-4.61c.28.07.56.13.83.18Z"/>
          <path class="cls-1" d="m82.24,49.69v.49c-.27-.05-.55-.11-.83-.18v-.31c0-.23.19-.42.42-.42.03,0,.06,0,.08,0,.19.04.33.2.33.41Z"/>
          <path class="cls-1" d="m72.12,24.08c.18.13.23.39.1.57,0,0,0,0,0,0h0c-.13.19-.38.23-.57.1-.18-.12-.23-.37-.12-.56h0s0-.02,0-.02h0c.13-.19.39-.24.58-.1Z"/>
          <path class="cls-1" d="m92.5,30.04c-.31,3.14-1.75,5.55-4.17,6.96-1.55.9-3.45,1.35-5.48,1.35s-4.32-.47-6.46-1.42c-3.83-1.69-6-5.86-7.16-9.21.03.08.08.15.15.2.07.05.16.08.24.08.13,0,.26-.06.34-.17l.13-.18c1.12,3.15,3.15,6.99,6.64,8.52,4,1.76,8.28,1.8,11.19.11,2.18-1.27,3.48-3.46,3.77-6.32.32-3.25-2.25-6.4-6.56-8.04-4.26-1.62-9.89-1.4-12.9,2.73.13-.19.08-.44-.1-.57-.19-.13-.45-.09-.58.1h0c.21-.32,3.17-4.74,8.7-5.91,3.77-.8,7.8.11,11.98,2.71,0-.46-.01-1.1.02-1.83l.07.12c.12.2.37.26.57.14.11-.07.18-.18.2-.3-.06,1.51,0,2.59,0,2.63,0,.16-.07.3-.21.38-.14.08-.3.07-.43-.01-4.23-2.8-8.27-3.81-12.02-3.02-1.54.32-2.87.93-3.99,1.62,2.9-.91,6.22-.6,8.98.45,4.67,1.77,7.45,5.27,7.09,8.9Z"/>
          <path class="cls-1" d="m71.54,24.18h0s0,0,0,0Z"/>
          <path class="cls-1" d="m71.65,24.76c.19.13.44.08.57-.1l-2.14,2.99c-.07-.19-.13-.37-.19-.55-.05-.14-.09-.28-.14-.42l1.77-2.48c-.11.19-.06.43.12.56Z"/>
          <path class="cls-1" d="m69.95,27.83c-.08.11-.21.17-.34.17-.08,0-.17-.02-.24-.08-.07-.05-.12-.12-.15-.2-.04-.12-.03-.27.05-.38l.48-.66c.04.14.09.28.14.42.06.18.12.37.19.55l-.13.18Z"/>
          <path class="cls-1" d="m65.09,30.12c-.15.17-.42.19-.59.04-.02-.01-.09-.09-.22-.2h0c.06-.09.12-.17.19-.25.15-.17.41-.19.58-.04.07.06.11.13.13.21,0,.09-.04.17-.1.25Z"/>
          <path class="cls-1" d="m64.51,30.16c.17.15.43.14.59-.04.06-.07.09-.16.1-.25.03.12,0,.27-.09.37-2,2.33,1.72,9.27,3.35,11.79,4.03,4.33,9.3,6.32,13.46,7.24h0s-.06,0-.08,0c-.23,0-.42.19-.42.42v.31c-4.25-.97-9.53-3.05-13.59-7.43-.02-.02-.03-.04-.04-.06-.25-.38-5.84-9.09-3.49-12.56.12.12.2.19.22.2Z"/>
          <path class="cls-1" d="m65.05,29.53c.1.09.15.22.14.34-.02-.08-.06-.16-.13-.21-.17-.15-.43-.13-.58.04-.07.08-.13.16-.19.25-.55-.55-1.95-2.13-1.95-3.98,0-.98.39-1.88,1.16-2.67-.67-.64-2.06-2.18-2.06-3.93,0-1.07.5-2.02,1.5-2.83.03-.02.07-.05.1-.06.06-.02,1.37-.56,2.78.24,1.52.86,2.52,2.87,2.98,5.97,0,.02.25,1.76.95,4l-.48.66c-.08.11-.1.26-.05.38-.04-.12-.09-.24-.12-.37-.83-2.51-1.11-4.48-1.12-4.56-.41-2.79-1.3-4.65-2.57-5.36-.93-.52-1.79-.29-2-.22-.76.64-1.14,1.36-1.14,2.14,0,1.86,2.08,3.59,2.1,3.6.09.08.15.19.15.32s-.05.24-.14.32c-.8.7-1.21,1.5-1.21,2.36,0,1.89,1.86,3.55,1.88,3.57Z"/>
        </g>
        <path class="cls-2" d="m89.08,15.96s2.15-10.25,10.87-8.17c0,0,5.4-5.95-3.39-7.75,0,0-3.26-.61-2.98,2.91,0,0-7.34-1.46-6.16,6.22,0,0-2.98,3.53,1.66,6.78Z"/>
        <path class="cls-3" d="m88.06,51.24c-2.46,0-13.45-.47-20.84-8.43-.03-.03-.06-.07-.09-.11-.65-1-6.24-9.84-3.26-13.3.3-.35.82-.39,1.17-.09.35.3.39.82.09,1.17-1.63,1.9,1.18,7.88,3.36,11.26,7.65,8.2,19.85,7.85,19.97,7.84,14.34-.82,16.82-11.97,16.84-12.08,0-.02,0-.03.01-.05.01-.05,1.46-5.72-.68-14.11-.86-3.39-.62-6.02.72-7.82.94-1.26,2.21-1.8,3.08-2.03-.76-1.68-3.64-3.6-5.52-4.53-.34-.17-.53-.55-.44-.92.98-4.51.19-5.79-.38-6.15-1.28-.82-4.3.85-5.56,1.79-.2.15-.45.2-.68.14-1.31-.31-2.32-.16-2.99.44-1.26,1.13-1.27,3.72-1.16,4.63.03.26-.07.53-.26.7-2.69,2.5-.84,4.88-.76,4.98.29.36.23.88-.13,1.17-.36.29-.88.23-1.17-.13-.98-1.22-2.05-4.2.63-6.95-.06-1.1-.04-4.05,1.74-5.64,1.02-.91,2.4-1.21,4.1-.9,1.15-.8,4.85-3.11,7.15-1.64,1.58,1.02,1.98,3.4,1.23,7.28,1.64.88,5.9,3.45,6.06,6.34.01.22-.06.44-.21.61-.15.16-.36.26-.58.27-.07,0-1.75.11-2.81,1.55-1.02,1.38-1.16,3.53-.43,6.4,2.2,8.67.8,14.47.68,14.93-.07.32-.77,3.29-3.29,6.38-2.4,2.94-6.96,6.54-15.09,7-.05,0-.22,0-.48,0Z"/>
        <path class="cls-3" d="m82.55,38.72c-2.14,0-4.43-.48-6.62-1.45-7.02-3.09-8.59-13.99-8.65-14.45-.49-3.33-1.54-4.58-2.33-5.04-.7-.41-1.37-.29-1.62-.22-.62.54-.93,1.12-.93,1.77,0,1.38,1.41,2.84,1.95,3.28.19.15.3.39.3.63,0,.24-.1.48-.28.64-.72.63-1.07,1.3-1.07,2.05,0,1.69,1.72,3.25,1.74,3.26.34.3.37.83.07,1.17-.3.34-.83.38-1.17.07-.09-.08-2.31-2.06-2.3-4.5,0-.97.34-1.86,1-2.65-.76-.8-1.9-2.27-1.9-3.94,0-1.2.55-2.26,1.65-3.15.06-.05.13-.09.21-.12.06-.03,1.56-.63,3.14.26,1.64.92,2.71,3.03,3.19,6.27.02.11,1.51,10.45,7.68,13.17,3.88,1.71,8.02,1.76,10.81.13,2.06-1.2,3.29-3.28,3.56-6,.34-3.47-2.91-6.33-6.29-7.61-4.11-1.56-9.55-1.37-12.42,2.6-.26.36-.77.45-1.14.2-.37-.25-.47-.76-.23-1.13.13-.2,3.18-4.88,8.97-6.11,3.68-.78,7.59.02,11.64,2.37,0-3.06.44-9.41,3.89-11.18.41-.21.91-.05,1.12.36s.05.91-.36,1.12c-2.86,1.46-3.1,8.56-2.95,11.17.02.31-.14.61-.41.77-.27.16-.61.15-.87-.03-4.13-2.73-8.06-3.72-11.69-2.96-.37.08-.72.17-1.06.28,2.1-.1,4.22.29,6.1,1,4.85,1.84,7.73,5.5,7.35,9.33-.33,3.28-1.84,5.79-4.38,7.27-1.61.94-3.58,1.41-5.69,1.41Z"/>
        <path class="cls-3" d="m81.53,55.4c-.46,0-.83-.37-.83-.83v-4.92c0-.46.37-.83.83-.83s.83.37.83.83v4.92c0,.46-.37.83-.83.83Z"/>
        <path class="cls-3" d="m92.06,55.4c-.46,0-.83-.37-.83-.83v-4.61c0-.46.37-.83.83-.83s.83.37.83.83v4.61c0,.46-.37.83-.83.83Z"/>
        <circle class="cls-3" cx="98.41" cy="11.88" r=".97"/>
      </g>
    </g>
  </g>
</svg>