<?xml version="1.0" encoding="UTF-8"?>
<svg id="Layer_2" data-name="Layer 2" xmlns="http://www.w3.org/2000/svg" viewBox="0 0 320.99 73.13">
  <defs>
    <style>
      .cls-1 {
        fill: #fff;
      }

      .cls-2 {
        fill: #c6c0b4;
      }

      .cls-3 {
        fill: #84d2f5;
      }

      .cls-4 {
        fill: #221f1f;
      }

      .cls-5 {
        fill: #231f20;
      }
    </style>
  </defs>
  <g id="Layer_1-2" data-name="Layer 1">
    <g>
      <g>
        <path class="cls-5" d="m103.76,18.56c0,1.83-.1,3.7-.1,5.53,0,6.21-4.49,9.81-10.44,9.81-.99,0-1.98-.1-2.97-.21v4.9c0,1.25.26,2.56.26,3.86,0,1.2.31,4.59-1.51,4.59-1.2,0-2.56-.73-2.61-2.04-.16-3.08-.31-6.16-.31-9.24,0-4.54-.21-9.03-.21-13.51,0-3.81.05-7.67.05-11.48.68-1.15,1.72-1.25,2.92-1.25,1.77,0,3.5-.26,5.22-.26,6.52,0,9.71,2.5,9.71,9.29Zm-13.46,10.7c.83.21,1.67.36,2.56.36,4.54,0,6.78-1.93,6.78-6.47v-3.44c0-4.07-.52-6.47-5.17-6.47-1.51,0-3.03.31-4.54.31v6.99c0,1.88-.05,7.15.37,8.71Z"/>
        <path class="cls-5" d="m129.28,29.83c.47,1.41.57,2.92.57,4.44,0,7.2-2.77,13.36-10.91,13.36-7.62,0-12.94-6.37-12.94-13.72v-1.46c0-6,5.74-13.25,12.05-13.25,5.9,0,9.91,5.43,11.22,10.64Zm-11.43,13.51c.31.05.63.05.94.05,1.36,0,3.03-.05,4.12-.99,2.04-1.83,2.87-5.32,2.87-7.98,0-2.35-.73-6.52-2.4-8.24-.47-.52-.99-.99-1.51-1.46-.99-.94-2.4-1.62-3.81-1.62-3.29,0-5.64,2.82-7.04,5.43-.89,1.67-1.1,3.6-1.1,5.48,0,5.01,3.08,8.51,7.93,9.34Z"/>
        <path class="cls-5" d="m146.45,22.74c0,.94-.94,1.88-1.88,1.88-.73,0-1.36-.36-1.93-.63-.83-.37-1.83-.78-2.77-.78-1.72,0-1.88,1.15-1.88,2.61v2.82c0,3.13.16,6.21.16,9.34,0,2.35,0,4.8-.47,7.1-.21.99-.73,1.77-1.83,1.77-1.98,0-2.14-2.03-2.14-3.44,0-3.5.16-6.94.16-10.44,0-2.4-.21-4.8-.21-7.2,0-4.07,2.66-6.68,6.73-6.68,2.14,0,4.54,1.41,5.9,3.03.05.1.16.52.16.63Z"/>
        <path class="cls-5" d="m163.16,39.95c1.36,0,1.77.99,1.77,2.19,0,3.34-2.82,5.58-6,5.58-2.04,0-4.49-1.41-5.53-3.13-.78-1.36-.83-3.18-.83-4.7,0-5.22-.1-10.44-.1-15.65-1.36,0-3.65-.1-3.65-1.98,0-.68.94-2.35,1.67-2.35.68,0,1.36.05,2.04.05-.31-1.93-.37-3.91-.37-5.9,0-.73.37-1.98.73-2.61.05-.52.73-.83,1.36-.83.99,0,2.3.57,2.3,1.72v4.85c0,.94.05,1.83.1,2.77.99-.05,1.98-.16,2.97-.16,1.1,0,2.56.99,2.56,2.19,0,1.1-.68,1.62-1.72,1.67l-3.34.16-.68.05c.21.16.21,8.45.21,10.59,0,4.02-.21,4.02-.1,5.37.16,2.09.73,3.86,2.4,3.86,1.41,0,1.83-1.15,2.35-2.24l.16-.26c.36-.68.89-1.25,1.72-1.25Z"/>
        <path class="cls-5" d="m174.45,44.96c0-.89.21-1.77.21-2.66,0-3.44-.21-6.94-.21-10.38,0-3.7-.47-7.41-.47-11.11,0-1.51.1-3.03.1-4.54v-5.74c0-.83,1.15-1.36,1.88-1.36s2.04.78,2.04,1.57v7.98c0,2.04-.05,4.07-.05,6.1,2.66,0,5.32-.16,8.04-.16h.42c.16-2.14.16-4.23.16-6.37s-.21-4.23-.21-6.31c0-1.51.1-2.61,1.98-2.61.68,0,1.15.37,1.57.89.68,1.98.84,4.12.84,6.21,0,2.56-.16,5.17-.16,7.72,0,1.04.21,1.46.21,2.19.1,3.91.16,7.88.16,11.79,0,2.04.16,4.07.16,6.11,0,1.51.1,2.92-1.88,2.92-.78,0-2.3-.31-2.3-1.3,0-5.79.1-11.43-.42-17.17-.63-.1-1.25-.16-1.88-.16-1.83,0-3.81-.05-6.16.21.16,1.36.16,2.66.16,4.02v10.38c0,1.15-.26,2.19-.42,3.29-.31.63-1.3,1.2-2.03,1.2-1.41,0-1.72-1.62-1.72-2.71Z"/>
        <path class="cls-5" d="m218.44,29.83c.47,1.41.57,2.92.57,4.44,0,7.2-2.77,13.36-10.91,13.36-7.62,0-12.94-6.37-12.94-13.72v-1.46c0-6,5.74-13.25,12.05-13.25,5.9,0,9.91,5.43,11.22,10.64Zm-11.43,13.51c.31.05.63.05.94.05,1.36,0,3.03-.05,4.12-.99,2.04-1.83,2.87-5.32,2.87-7.98,0-2.35-.73-6.52-2.4-8.24-.47-.52-.99-.99-1.51-1.46-.99-.94-2.4-1.62-3.81-1.62-3.29,0-5.64,2.82-7.04,5.43-.89,1.67-1.1,3.6-1.1,5.48,0,5.01,3.08,8.51,7.93,9.34Z"/>
        <path class="cls-5" d="m234.78,19.29c4.64,1.93,4.8,5.95,4.85,10.33.05,2.45.21,4.91.21,7.36,0,5.37-1.41,10.59-7.88,10.59-1.36,0-2.71-.21-3.97-.68,0,3.03.21,6,.21,9.03,0,1.77.26,6.21-.78,7.57l-.83.47c-1.98,0-2.61-.99-2.61-2.87,0-3.03.21-6,.21-9.03,0-3.55-.26-7.1-.37-10.64-.05-2.24-.1-4.49-.31-6.73-.26-2.35-.63-4.75-.63-7.1,0-1.72.1-3.5.99-5.01,1.3-2.66,4.9-3.86,7.72-3.86,1.1,0,2.19.16,3.18.57Zm-7.51,13.46c.52,3.23-.94,10.64,4.38,10.64,3.39,0,4.12-2.4,4.12-6.84,0-3.18-.05-3.65-.05-4.07-.16-2.87.37-9.91-3.97-9.91-1.3,0-3.13.68-4.07,1.62-.73.73-.73,3.08-.73,4.07,0,1.51.1,3.03.31,4.49Z"/>
        <path class="cls-5" d="m258.78,41.62c0,4.12-2.35,5.9-6.31,5.9-3.29,0-5.9-1.04-7.57-4.02-1.51-2.77-1.46-9.6-1.46-12.84,0-5.43.42-11.74,7.25-11.74,5.53,0,6.63,2.71,7.31,7.72.21,1.62.47,3.39.47,5.06,0,1.04-1.46,2.03-2.77,2.03-.73,0-1.41-.26-2.14-.26-1.98,0-4.02-.1-5.95.16,0,1.46.1,2.87.1,4.33,0,3.7,1.46,5.48,5.27,5.48,2.24,0,1.41-1.2,1.93-2.19.26-1.04,1.15-2.09,2.3-2.09s1.57,1.57,1.57,2.45Zm-11.17-11.95c1.3,0,2.61.05,3.91.05h2.5c-.05-1.25-.05-5.74-1.15-6.37-.52-.26-1.2-.42-1.83-.42-.68,0-1.88.1-2.3.73-.99,1.41-1.2,2.66-1.2,4.33,0,.57,0,1.1.05,1.67Z"/>
        <path class="cls-5" d="m283.33,17.49c-.56,0-2.24-.61-3.45-.61-2.01,0-3.97.37-5.97.37-.09,0-.14-.05-.23-.05v8.87c0,.7,0,1.4.05,2.1h4.95c.65,0,1.59.42,1.59,1.17,0,.79-.33,1.77-.98,2.24-1.87.09-3.78.09-5.65.28-.09,1.91-.14,3.87-.14,5.79,0,4.29.28,5.93.28,6.67,0,1.4,0,2.01-1.17,2.94-2.24,0-2.75-1.49-2.75-5.23.28-5.04.56-9.99.42-15.03-.09-3.73,0-5.74,0-8.63,0-.89-.05-1.87-.42-2.71-.05-.14-.19-.47-.19-.61,0-.51.84-1.91,1.4-1.91,1.54.56,3.22.56,4.67.56,1.68,0,3.31-.28,4.99-.28,1.54,0,4.01.19,4.53,2.01-.14.93-.84,2.05-1.91,2.05Z"/>
        <path class="cls-5" d="m296.63,37.6c.14,1.73.14,3.41.14,5.13,0,3.97-2.99,4.95-6.44,4.95s-6.49-2.66-6.49-6.16c0-2.99,1.49-6.11,4.43-7.14,1.4-.56,3.17-.56,4.67-.98,0-1.49.14-6.25-1.07-7.19-.23-.05-.42-.09-.65-.09-2.47,0-3.45,2.71-5.09,2.71-1.17,0-1.4-.89-1.4-1.87,0-2.66,4.06-4.53,6.35-4.53,4.85,0,5.55,5.09,5.55,8.87,0,2.1-.14,4.2,0,6.3Zm-6.16,6.39c1.87,0,2.71.09,2.71-1.77,0-1.68-.23-3.36-.23-5.04-2.66.19-5.41,1.07-5.41,4.25,0,1.59,1.45,2.57,2.94,2.57Z"/>
        <path class="cls-5" d="m302.56,13.33c2.15,0,2.47,3.31,2.47,4.85,0,.98-.19,2.29-1.45,2.29-2.19,0-2.52-1.54-2.52-3.5,0-.93.09-3.64,1.49-3.64Zm-1.17,32.24c0-7.09-.09-14.14-.09-21.23,0-1.21.65-2.38,2.01-2.38,1.03,0,1.68.84,1.68,1.82,0,3.27-.05,6.49-.05,9.75,0,3.78.14,7.61.14,11.39,0,1.26-.65,2.38-2.05,2.38-.93,0-1.63-.79-1.63-1.73Z"/>
        <path class="cls-5" d="m320.99,25.42c0,.84-.84,1.68-1.68,1.68-.65,0-1.21-.33-1.73-.56-.75-.33-1.63-.7-2.47-.7-1.54,0-1.68,1.03-1.68,2.33v2.52c0,2.8.14,5.55.14,8.35,0,2.1,0,4.29-.42,6.35-.19.89-.65,1.59-1.63,1.59-1.77,0-1.91-1.82-1.91-3.08,0-3.13.14-6.21.14-9.33,0-2.15-.19-4.29-.19-6.44,0-3.64,2.38-5.97,6.02-5.97,1.91,0,4.06,1.26,5.27,2.71.05.09.14.47.14.56Z"/>
        <path class="cls-5" d="m215.64,54.78h-114.12c-2.8,0-5.55.14-8.35.14-2.1,0-4.29,0-6.35-.42-.89-.19-1.59-.65-1.59-1.63,0-1.77,1.81-1.09,3.07-1.09,3.13,0,6.21.14,9.33.14,2.07,0,107.76-.74,117.37-.76.45,0,.86.22,1.1.6.65.99,1.59,2.62-.47,3.02Z"/>
      </g>
      <g>
        <path class="cls-4" d="m36.56,0C16.37,0,0,16.37,0,36.56s16.37,36.56,36.56,36.56,36.56-16.37,36.56-36.56S56.76,0,36.56,0Zm-16.07,68.07c-.04-1.12.18-2.24.66-3.37,1.27-2.99,3.61-4.67,6.96-4.99.21-.02.41-.03.61-.04,1.87-.08,3.46.28,4,.42-.21.55-.43,1.13-.67,1.74-1.05,2.74-2.32,6.04-3.53,9.18-2.82-.66-5.51-1.65-8.03-2.94Zm16.07,3.86c-2.39,0-4.73-.24-6.99-.69,2.64-6.84,5.55-14.43,5.84-15.18.37-.53,4.02-5.52,9.07-4.89.04,0,.07,0,.11,0l15.04-1.31c.06,0,.11-.02.16-.04.07-.03,6.9-3.04,3.66-11.49-.02-.06-.05-.11-.09-.16-.06-.08-1.6-1.84-3.76-1.57-.22.03-.44.08-.66.14l-18.64-17.05c2.25-2.33,4.89-4.54,6.84-4.72.54.03.86.07.88.07.28.03.54-.15.59-.43.05-.28-.12-.55-.39-.62-.31-.08-.65-.11-1-.09-2.68-.17-10.49-.17-15.23,4.8-.09.09-.13.21-.14.32-.01.16.04.32.16.43.15.15.37.18.55.11.07-.03.14-.07.2-.13,3.21-3.37,8.1-4.27,11.47-4.46-1.24.75-2.63,1.89-4.15,3.41-2.47,2.48-4.45,5.12-4.47,5.15-.18.24-.13.57.11.75.11.08.24.11.36.1.15-.01.29-.09.39-.21.68-.92,1.79-2.29,3.09-3.7l18.33,16.77c-1.1.71-2.12,1.99-3.03,3.83-.13.26-.02.59.24.72.27.13.59.02.72-.24,1.18-2.37,2.52-3.72,3.89-3.89,1.4-.18,2.51.88,2.77,1.15,2.64,7.04-2.35,9.67-3.05,10l-14.89,1.3c-5.93-.69-9.9,5.16-10.07,5.41-.02.03-.04.07-.05.11-.02.04-.53,1.4-1.33,3.47-.53-.15-2.63-.67-5.06-.44-1.16.11-2.22.37-3.17.78-2.13.91-3.73,2.56-4.71,4.86-.45,1.07-.7,2.14-.73,3.22-.77-.43-1.52-.88-2.25-1.36-5.69-3.73-10.23-9.06-13-15.35-1.92-4.35-2.98-9.17-2.98-14.23,0-.09,0-.17,0-.26.78-.07,1.53-.13,2.26-.2,16.37-1.49,20.07-3.1,21.21-4.53.64-.8.5-1.61.4-2.21-.02-.1-.03-.19-.04-.28.36.13.74.25,1.14.36.06.02.12.02.18.02.22-.02.42-.17.48-.4.08-.29-.09-.58-.38-.66-3.45-.92-5.8-2.94-6.97-6-.7-1.82-.75-3.49-.75-4.13,5.57-2.93,12.85,7.33,12.92,7.44.17.24.5.3.75.13.24-.17.3-.5.13-.75-.11-.16-1.05-1.49-2.5-3.05-.2-.21-.4-.43-.62-.65-2.94-2.99-7.48-6.33-11.48-3.91-.15.09-.24.24-.26.42,0,.09-.17,2.3.79,4.83.74,1.94,2.28,4.38,5.48,5.88-.02.32.03.63.08.91.1.6.14.96-.18,1.36-1.38,1.74-8.66,3.14-22.61,4.32C1.92,16.32,17.48,1.2,36.56,1.2s35.37,15.83,35.37,35.37-15.83,35.37-35.37,35.37Z"/>
        <path class="cls-3" d="m36.56,1.2C17.48,1.2,1.92,16.32,1.22,35.23c13.95-1.18,21.22-2.58,22.61-4.32.32-.4.28-.76.18-1.36-.05-.28-.1-.59-.08-.91-3.21-1.5-4.75-3.94-5.48-5.88-.96-2.53-.8-4.74-.79-4.83.01-.17.11-.33.26-.42,4.01-2.42,8.54.92,11.48,3.91l2.45-2.4c.01-.12.06-.23.14-.32,4.75-4.97,12.55-4.97,15.23-4.8.35-.02.68.01,1,.09.27.07.44.34.39.62-.05.28-.31.46-.59.43-.02,0-.33-.04-.88-.07-1.95.18-4.59,2.39-6.84,4.72l18.64,17.05c.22-.07.44-.12.66-.14,2.16-.27,3.7,1.5,3.76,1.57.04.05.07.1.09.16,3.24,8.45-3.59,11.46-3.66,11.49-.05.02-.11.04-.16.04l-15.04,1.31s-.07,0-.11,0c-5.06-.63-8.7,4.36-9.07,4.89-.29.75-3.19,8.34-5.84,15.18,2.26.45,4.59.69,6.99.69,19.53,0,35.37-15.83,35.37-35.37S56.1,1.2,36.56,1.2Z"/>
        <path class="cls-1" d="m32.05,61.83c.23-.61.46-1.19.67-1.74-.54-.14-2.13-.5-4-.42,2.14.44,3.69,1.2,3.69,1.2l-.36.96Z"/>
        <path class="cls-1" d="m30.02,22.06c1.45,1.56,2.39,2.89,2.5,3.05.17.24.11.58-.13.75-.24.17-.58.11-.75-.13-.07-.11-7.35-10.37-12.92-7.44,0,.64.05,2.31.75,4.13,1.17,3.06,3.52,5.07,6.97,6,.29.08.46.37.38.66-.06.23-.26.38-.48.4-.06,0-.12,0-.18-.02-.4-.11-.78-.23-1.14-.36.01.09.03.18.04.28.1.59.24,1.41-.4,2.21-1.14,1.43-4.84,3.03-21.21,4.53.92,1.33,3.23,5.8.72,14.68,2.77,6.29,7.31,11.62,13,15.35.08-.26.17-.52.28-.79,1.65-4.21,4.58-5.66,7.42-5.93.95-.41,2.01-.67,3.17-.78,2.44-.23,4.53.29,5.06.44.79-2.07,1.31-3.43,1.33-3.47.01-.04.03-.07.05-.11.17-.25,4.14-6.11,10.07-5.41l14.89-1.3c.7-.33,5.69-2.96,3.05-10-.26-.27-1.37-1.32-2.77-1.15-1.37.17-2.72,1.52-3.89,3.89-.13.26-.45.37-.72.24-.26-.13-.37-.45-.24-.72.91-1.84,1.93-3.12,3.03-3.83l-18.33-16.77c-1.3,1.41-2.41,2.79-3.09,3.7-.1.13-.24.2-.39.21-.12,0-.25-.02-.36-.1-.24-.18-.29-.51-.11-.75.02-.03,1.99-2.68,4.47-5.15,1.52-1.52,2.91-2.66,4.15-3.41-3.37.19-8.26,1.09-11.47,4.46-.06.06-.13.1-.2.13-.19.07-.4.03-.55-.11-.12-.12-.18-.28-.16-.43l-2.45,2.4c.21.22.42.43.62.65Zm10.38,7.13c.73-.06,1.37.49,1.43,1.22s-.49,1.37-1.22,1.43c-.73.06-1.37-.49-1.43-1.23-.06-.73.49-1.37,1.23-1.43Z"/>
        <path class="cls-2" d="m3.46,36.11c-.73.07-1.48.13-2.26.2,0,.09,0,.17,0,.26,0,5.06,1.07,9.87,2.98,14.23,2.5-8.88.2-13.35-.72-14.68Z"/>
        <path class="cls-2" d="m17.45,65.36c-.1.27-.19.53-.28.79.73.48,1.48.93,2.25,1.36.04-1.07.28-2.15.73-3.22.98-2.31,2.58-3.95,4.71-4.86-2.84.27-5.77,1.72-7.42,5.93Z"/>
        <path class="cls-2" d="m32.41,60.87s-1.55-.76-3.69-1.2c-.2,0-.4.02-.61.04-3.35.32-5.69,2-6.96,4.99-.48,1.13-.7,2.25-.66,3.37,2.52,1.29,5.21,2.28,8.03,2.94,1.21-3.14,2.48-6.44,3.53-9.18l.36-.96Z"/>
        <path class="cls-4" d="m40.6,31.84c.73-.06,1.28-.7,1.22-1.43s-.7-1.28-1.43-1.22c-.73.06-1.28.7-1.23,1.43.06.73.7,1.28,1.43,1.23Z"/>
      </g>
    </g>
  </g>
</svg>