<?xml version="1.0" encoding="UTF-8"?>
<svg id="Layer_2" data-name="Layer 2" xmlns="http://www.w3.org/2000/svg" viewBox="0 0 235.76 54.79">
  <defs>
    <style>
      .cls-1 {
        fill: #231f20;
      }
    </style>
  </defs>
  <g id="Layer_1-2" data-name="Layer 1">
    <g>
      <path class="cls-1" d="m18.52,9.39c0,1.83-.1,3.7-.1,5.53,0,6.21-4.49,9.81-10.44,9.81-.99,0-1.98-.1-2.97-.21v4.9c0,1.25.26,2.56.26,3.86,0,1.2.31,4.59-1.51,4.59-1.2,0-2.56-.73-2.61-2.04-.16-3.08-.31-6.16-.31-9.24,0-4.54-.21-9.03-.21-13.51,0-3.81.05-7.67.05-11.48C1.35.47,2.4.36,3.6.36,5.37.36,7.09.1,8.82.1c6.52,0,9.71,2.5,9.71,9.29Zm-13.46,10.7c.83.21,1.67.36,2.56.36,4.54,0,6.78-1.93,6.78-6.47v-3.44c0-4.07-.52-6.47-5.17-6.47-1.51,0-3.03.31-4.54.31v6.99c0,1.88-.05,7.15.37,8.71Z"/>
      <path class="cls-1" d="m44.04,20.66c.47,1.41.57,2.92.57,4.44,0,7.2-2.77,13.36-10.91,13.36-7.62,0-12.94-6.37-12.94-13.72v-1.46c0-6,5.74-13.25,12.05-13.25,5.9,0,9.91,5.43,11.22,10.64Zm-11.43,13.51c.31.05.63.05.94.05,1.36,0,3.03-.05,4.12-.99,2.04-1.83,2.87-5.32,2.87-7.98,0-2.35-.73-6.52-2.4-8.24-.47-.52-.99-.99-1.51-1.46-.99-.94-2.4-1.62-3.81-1.62-3.29,0-5.64,2.82-7.04,5.43-.89,1.67-1.1,3.6-1.1,5.48,0,5.01,3.08,8.51,7.93,9.34Z"/>
      <path class="cls-1" d="m61.21,13.57c0,.94-.94,1.88-1.88,1.88-.73,0-1.36-.36-1.93-.63-.83-.37-1.83-.78-2.77-.78-1.72,0-1.88,1.15-1.88,2.61v2.82c0,3.13.16,6.21.16,9.34,0,2.35,0,4.8-.47,7.1-.21.99-.73,1.77-1.83,1.77-1.98,0-2.14-2.03-2.14-3.44,0-3.5.16-6.94.16-10.44,0-2.4-.21-4.8-.21-7.2,0-4.07,2.66-6.68,6.73-6.68,2.14,0,4.54,1.41,5.9,3.03.05.1.16.52.16.63Z"/>
      <path class="cls-1" d="m77.93,30.79c1.36,0,1.77.99,1.77,2.19,0,3.34-2.82,5.58-6,5.58-2.04,0-4.49-1.41-5.53-3.13-.78-1.36-.83-3.18-.83-4.7,0-5.22-.1-10.44-.1-15.65-1.36,0-3.65-.1-3.65-1.98,0-.68.94-2.35,1.67-2.35.68,0,1.36.05,2.04.05-.31-1.93-.37-3.91-.37-5.9,0-.73.37-1.98.73-2.61.05-.52.73-.83,1.36-.83.99,0,2.3.57,2.3,1.72v4.85c0,.94.05,1.83.1,2.77.99-.05,1.98-.16,2.97-.16,1.1,0,2.56.99,2.56,2.19,0,1.1-.68,1.62-1.72,1.67l-3.34.16-.68.05c.21.16.21,8.45.21,10.59,0,4.02-.21,4.02-.1,5.37.16,2.09.73,3.86,2.4,3.86,1.41,0,1.83-1.15,2.35-2.24l.16-.26c.36-.68.89-1.25,1.72-1.25Z"/>
      <path class="cls-1" d="m89.21,35.79c0-.89.21-1.77.21-2.66,0-3.44-.21-6.94-.21-10.38,0-3.7-.47-7.41-.47-11.11,0-1.51.1-3.03.1-4.54V1.36c0-.83,1.15-1.36,1.88-1.36s2.04.78,2.04,1.57v7.98c0,2.04-.05,4.07-.05,6.1,2.66,0,5.32-.16,8.04-.16h.42c.16-2.14.16-4.23.16-6.37s-.21-4.23-.21-6.31c0-1.51.1-2.61,1.98-2.61.68,0,1.15.37,1.57.89.68,1.98.84,4.12.84,6.21,0,2.56-.16,5.17-.16,7.72,0,1.04.21,1.46.21,2.19.1,3.91.16,7.88.16,11.79,0,2.04.16,4.07.16,6.11,0,1.51.1,2.92-1.88,2.92-.78,0-2.3-.31-2.3-1.3,0-5.79.1-11.43-.42-17.17-.63-.1-1.25-.16-1.88-.16-1.83,0-3.81-.05-6.16.21.16,1.36.16,2.66.16,4.02v10.38c0,1.15-.26,2.19-.42,3.29-.31.63-1.3,1.2-2.03,1.2-1.41,0-1.72-1.62-1.72-2.71Z"/>
      <path class="cls-1" d="m133.2,20.66c.47,1.41.57,2.92.57,4.44,0,7.2-2.77,13.36-10.91,13.36-7.62,0-12.94-6.37-12.94-13.72v-1.46c0-6,5.74-13.25,12.05-13.25,5.9,0,9.91,5.43,11.22,10.64Zm-11.43,13.51c.31.05.63.05.94.05,1.36,0,3.03-.05,4.12-.99,2.04-1.83,2.87-5.32,2.87-7.98,0-2.35-.73-6.52-2.4-8.24-.47-.52-.99-.99-1.51-1.46-.99-.94-2.4-1.62-3.81-1.62-3.29,0-5.64,2.82-7.04,5.43-.89,1.67-1.1,3.6-1.1,5.48,0,5.01,3.08,8.51,7.93,9.34Z"/>
      <path class="cls-1" d="m149.54,10.12c4.64,1.93,4.8,5.95,4.85,10.33.05,2.45.21,4.91.21,7.36,0,5.37-1.41,10.59-7.88,10.59-1.36,0-2.71-.21-3.97-.68,0,3.03.21,6,.21,9.03,0,1.77.26,6.21-.78,7.57l-.83.47c-1.98,0-2.61-.99-2.61-2.87,0-3.03.21-6,.21-9.03,0-3.55-.26-7.1-.37-10.64-.05-2.24-.1-4.49-.31-6.73-.26-2.35-.63-4.75-.63-7.1,0-1.72.1-3.5.99-5.01,1.3-2.66,4.9-3.86,7.72-3.86,1.1,0,2.19.16,3.18.57Zm-7.51,13.46c.52,3.23-.94,10.64,4.38,10.64,3.39,0,4.12-2.4,4.12-6.84,0-3.18-.05-3.65-.05-4.07-.16-2.87.37-9.91-3.97-9.91-1.3,0-3.13.68-4.07,1.62-.73.73-.73,3.08-.73,4.07,0,1.51.1,3.03.31,4.49Z"/>
      <path class="cls-1" d="m173.54,32.46c0,4.12-2.35,5.9-6.31,5.9-3.29,0-5.9-1.04-7.57-4.02-1.51-2.77-1.46-9.6-1.46-12.84,0-5.43.42-11.74,7.25-11.74,5.53,0,6.63,2.71,7.31,7.72.21,1.62.47,3.39.47,5.06,0,1.04-1.46,2.03-2.77,2.03-.73,0-1.41-.26-2.14-.26-1.98,0-4.02-.1-5.95.16,0,1.46.1,2.87.1,4.33,0,3.7,1.46,5.48,5.27,5.48,2.24,0,1.41-1.2,1.93-2.19.26-1.04,1.15-2.09,2.3-2.09s1.57,1.57,1.57,2.45Zm-11.17-11.95c1.3,0,2.61.05,3.91.05h2.5c-.05-1.25-.05-5.74-1.15-6.37-.52-.26-1.2-.42-1.83-.42-.68,0-1.88.1-2.3.73-.99,1.41-1.2,2.66-1.2,4.33,0,.57,0,1.1.05,1.67Z"/>
      <path class="cls-1" d="m198.09,8.32c-.56,0-2.24-.61-3.45-.61-2.01,0-3.97.37-5.97.37-.09,0-.14-.05-.23-.05v8.87c0,.7,0,1.4.05,2.1h4.95c.65,0,1.59.42,1.59,1.17,0,.79-.33,1.77-.98,2.24-1.87.09-3.78.09-5.65.28-.09,1.91-.14,3.87-.14,5.79,0,4.29.28,5.93.28,6.67,0,1.4,0,2.01-1.17,2.94-2.24,0-2.75-1.49-2.75-5.23.28-5.04.56-9.99.42-15.03-.09-3.73,0-5.74,0-8.63,0-.89-.05-1.87-.42-2.71-.05-.14-.19-.47-.19-.61,0-.51.84-1.91,1.4-1.91,1.54.56,3.22.56,4.67.56,1.68,0,3.31-.28,4.99-.28,1.54,0,4.01.19,4.53,2.01-.14.93-.84,2.05-1.91,2.05Z"/>
      <path class="cls-1" d="m211.39,28.43c.14,1.73.14,3.41.14,5.13,0,3.97-2.99,4.95-6.44,4.95s-6.49-2.66-6.49-6.16c0-2.99,1.49-6.11,4.43-7.14,1.4-.56,3.17-.56,4.67-.98,0-1.49.14-6.25-1.07-7.19-.23-.05-.42-.09-.65-.09-2.47,0-3.45,2.71-5.09,2.71-1.17,0-1.4-.89-1.4-1.87,0-2.66,4.06-4.53,6.35-4.53,4.85,0,5.55,5.09,5.55,8.87,0,2.1-.14,4.2,0,6.3Zm-6.16,6.39c1.87,0,2.71.09,2.71-1.77,0-1.68-.23-3.36-.23-5.04-2.66.19-5.41,1.07-5.41,4.25,0,1.59,1.45,2.57,2.94,2.57Z"/>
      <path class="cls-1" d="m217.32,4.16c2.15,0,2.47,3.31,2.47,4.85,0,.98-.19,2.29-1.45,2.29-2.19,0-2.52-1.54-2.52-3.5,0-.93.09-3.64,1.49-3.64Zm-1.17,32.24c0-7.09-.09-14.14-.09-21.23,0-1.21.65-2.38,2.01-2.38,1.03,0,1.68.84,1.68,1.82,0,3.27-.05,6.49-.05,9.75,0,3.78.14,7.61.14,11.39,0,1.26-.65,2.38-2.05,2.38-.93,0-1.63-.79-1.63-1.73Z"/>
      <path class="cls-1" d="m235.76,16.25c0,.84-.84,1.68-1.68,1.68-.65,0-1.21-.33-1.73-.56-.75-.33-1.63-.7-2.47-.7-1.54,0-1.68,1.03-1.68,2.33v2.52c0,2.8.14,5.55.14,8.35,0,2.1,0,4.29-.42,6.35-.19.89-.65,1.59-1.63,1.59-1.77,0-1.91-1.82-1.91-3.08,0-3.13.14-6.21.14-9.33,0-2.15-.19-4.29-.19-6.44,0-3.64,2.38-5.97,6.02-5.97,1.91,0,4.06,1.26,5.27,2.71.05.09.14.47.14.56Z"/>
      <path class="cls-1" d="m130.41,45.61H16.29c-2.8,0-5.55.14-8.35.14-2.1,0-4.29,0-6.35-.42-.89-.19-1.59-.65-1.59-1.63,0-1.77,1.81-1.09,3.07-1.09,3.13,0,6.21.14,9.33.14,2.07,0,107.76-.74,117.37-.76.45,0,.86.22,1.1.6.65.99,1.59,2.62-.47,3.02Z"/>
    </g>
  </g>
</svg>