<svg width="382" height="87" viewBox="0 0 382 87" fill="none" xmlns="http://www.w3.org/2000/svg">
<path d="M123.456 22.0832C123.456 24.2605 123.337 26.4855 123.337 28.6629C123.337 36.0517 117.995 40.3351 110.915 40.3351C109.737 40.3351 108.56 40.2161 107.382 40.0852V45.9153C107.382 47.4026 107.691 48.9613 107.691 50.5081C107.691 51.9359 108.06 55.9694 105.894 55.9694C104.467 55.9694 102.848 55.1008 102.789 53.5421C102.598 49.8775 102.42 46.2128 102.42 42.5481C102.42 37.1463 102.17 31.804 102.17 26.4736C102.17 21.9404 102.23 17.3476 102.23 12.8144C103.039 11.4461 104.276 11.3271 105.704 11.3271C107.81 11.3271 109.868 11.0178 111.915 11.0178C119.672 11.0178 123.468 13.9923 123.468 22.0713L123.456 22.0832ZM107.441 34.8143C108.429 35.0641 109.428 35.2426 110.487 35.2426C115.889 35.2426 118.554 32.9463 118.554 27.5444V23.4514C118.554 18.6089 117.935 15.7533 112.403 15.7533C110.606 15.7533 108.797 16.1221 107.001 16.1221V24.439C107.001 26.6759 106.941 32.9463 107.441 34.8024V34.8143Z" fill="#231F20"/>
<path d="M153.82 35.4925C154.38 37.1701 154.499 38.9668 154.499 40.7753C154.499 49.342 151.203 56.6714 141.518 56.6714C132.451 56.6714 126.121 49.0922 126.121 40.347V38.6098C126.121 31.4709 132.951 22.8446 140.459 22.8446C147.479 22.8446 152.25 29.3054 153.809 35.5044L153.82 35.4925ZM140.221 51.567C140.59 51.6265 140.97 51.6265 141.339 51.6265C142.957 51.6265 144.944 51.567 146.241 50.4486C148.669 48.2712 149.656 44.1187 149.656 40.9538C149.656 38.1577 148.788 33.1961 146.8 31.1496C146.241 30.5309 145.623 29.9717 145.004 29.4125C143.826 28.294 142.148 27.485 140.471 27.485C136.556 27.485 133.76 30.8403 132.094 33.9457C131.035 35.9327 130.785 38.2291 130.785 40.4659C130.785 46.427 134.45 50.5914 140.221 51.5789V51.567Z" fill="#231F20"/>
<path d="M174.25 27.0566C174.25 28.1751 173.131 29.2935 172.013 29.2935C171.144 29.2935 170.395 28.8652 169.717 28.5439C168.729 28.1037 167.539 27.6158 166.421 27.6158C164.374 27.6158 164.184 28.9841 164.184 30.7213V34.0766C164.184 37.8007 164.374 41.4654 164.374 45.1895C164.374 47.9856 164.374 50.9007 163.815 53.6373C163.565 54.8152 162.947 55.7433 161.638 55.7433C159.282 55.7433 159.091 53.328 159.091 51.6503C159.091 47.4859 159.282 43.3929 159.282 39.2285C159.282 36.3729 159.032 33.5174 159.032 30.6618C159.032 25.8192 162.197 22.7138 167.039 22.7138C169.586 22.7138 172.441 24.3914 174.059 26.3189C174.119 26.4379 174.25 26.9376 174.25 27.0685V27.0566Z" fill="#231F20"/>
<path d="M194.132 47.5335C195.75 47.5335 196.238 48.7114 196.238 50.1392C196.238 54.1132 192.883 56.7784 189.099 56.7784C186.672 56.7784 183.757 55.1008 182.519 53.0543C181.591 51.4361 181.532 49.2706 181.532 47.4621C181.532 41.2512 181.413 35.0403 181.413 28.8414C179.795 28.8414 177.07 28.7224 177.07 26.4855C177.07 25.6764 178.188 23.6894 179.057 23.6894C179.866 23.6894 180.675 23.7489 181.484 23.7489C181.115 21.4525 181.044 19.0967 181.044 16.7289C181.044 15.8604 181.484 14.3731 181.912 13.6235C181.972 13.0048 182.781 12.6359 183.531 12.6359C184.708 12.6359 186.267 13.3141 186.267 14.6824V20.4531C186.267 21.5715 186.327 22.6305 186.386 23.7489C187.564 23.6894 188.742 23.5585 189.92 23.5585C191.229 23.5585 192.966 24.7365 192.966 26.1642C192.966 27.4731 192.157 28.0918 190.919 28.1513L186.945 28.3416L186.136 28.4011C186.386 28.5915 186.386 38.4551 186.386 41.0014C186.386 45.7845 186.136 45.7845 186.267 47.3907C186.458 49.8775 187.136 51.9834 189.123 51.9834C190.8 51.9834 191.3 50.6152 191.919 49.3182L192.109 49.0089C192.538 48.1998 193.168 47.5216 194.156 47.5216L194.132 47.5335Z" fill="#231F20"/>
<path d="M207.565 53.4945C207.565 52.4356 207.815 51.3885 207.815 50.3296C207.815 46.2366 207.565 42.0722 207.565 37.9792C207.565 33.5769 207.006 29.1626 207.006 24.7603C207.006 22.9636 207.125 21.1551 207.125 19.3585V12.5289C207.125 11.5413 208.493 10.9107 209.361 10.9107C210.23 10.9107 211.789 11.8388 211.789 12.7787V22.2735C211.789 24.7008 211.729 27.1161 211.729 29.5315C214.894 29.5315 218.059 29.3411 221.295 29.3411H221.795C221.986 26.7949 221.986 24.3081 221.986 21.7619C221.986 19.2157 221.736 16.7289 221.736 14.2541C221.736 12.4575 221.855 11.1487 224.092 11.1487C224.901 11.1487 225.46 11.5889 225.96 12.2076C226.769 14.5635 226.959 17.1097 226.959 19.5964C226.959 22.6424 226.769 25.7478 226.769 28.7819C226.769 30.0193 227.018 30.519 227.018 31.3876C227.137 36.0398 227.209 40.7634 227.209 45.4156C227.209 47.8429 227.399 50.2582 227.399 52.6854C227.399 54.4821 227.518 56.1597 225.162 56.1597C224.234 56.1597 222.426 55.7909 222.426 54.613C222.426 47.7239 222.545 41.0133 221.926 34.1837C221.176 34.0647 220.439 33.9933 219.689 33.9933C217.512 33.9933 215.156 33.9338 212.36 34.2432C212.55 35.8613 212.55 37.4081 212.55 39.0263V51.3766C212.55 52.7449 212.241 53.9824 212.05 55.2912C211.682 56.0408 210.504 56.719 209.635 56.719C207.957 56.719 207.589 54.7914 207.589 53.4945H207.565Z" fill="#231F20"/>
<path d="M259.905 35.4925C260.464 37.1701 260.583 38.9668 260.583 40.7753C260.583 49.342 257.288 56.6714 247.602 56.6714C238.536 56.6714 232.206 49.0922 232.206 40.347V38.6098C232.206 31.4709 239.036 22.8446 246.543 22.8446C253.563 22.8446 258.335 29.3054 259.893 35.5044L259.905 35.4925ZM246.305 51.567C246.674 51.6265 247.055 51.6265 247.424 51.6265C249.042 51.6265 251.029 51.567 252.326 50.4486C254.753 48.2712 255.741 44.1187 255.741 40.9538C255.741 38.1577 254.872 33.1961 252.885 31.1496C252.326 30.5309 251.707 29.9717 251.089 29.4125C249.911 28.294 248.233 27.485 246.555 27.485C242.641 27.485 239.845 30.8403 238.179 33.9457C237.12 35.9327 236.87 38.2291 236.87 40.4659C236.87 46.427 240.535 50.5914 246.305 51.5789V51.567Z" fill="#231F20"/>
<path d="M279.347 22.9517C284.868 25.2481 285.058 30.0312 285.118 35.2426C285.177 38.1577 285.367 41.0847 285.367 43.9997C285.367 50.3891 283.69 56.6 275.992 56.6C274.373 56.6 272.767 56.3501 271.268 55.7909C271.268 59.3961 271.518 62.9298 271.518 66.535C271.518 68.641 271.827 73.9238 270.59 75.542L269.602 76.1012C267.246 76.1012 266.497 74.9233 266.497 72.6864C266.497 69.0812 266.747 65.5475 266.747 61.9423C266.747 57.7184 266.437 53.4945 266.306 49.2825C266.247 46.6173 266.187 43.9402 265.938 41.275C265.628 38.4789 265.188 35.6234 265.188 32.8273C265.188 30.7808 265.307 28.6629 266.366 26.8662C267.913 23.7013 272.196 22.2735 275.551 22.2735C276.86 22.2735 278.157 22.4639 279.335 22.9517H279.347ZM270.411 38.9668C271.03 42.8099 269.293 51.6265 275.623 51.6265C279.656 51.6265 280.525 48.7709 280.525 43.4881C280.525 39.7045 280.465 39.1452 280.465 38.6455C280.275 35.2307 280.906 26.8543 275.742 26.8543C274.195 26.8543 272.018 27.6634 270.899 28.7819C270.031 29.6504 270.031 32.4465 270.031 33.6245C270.031 35.4211 270.15 37.2296 270.399 38.9668H270.411Z" fill="#231F20"/>
<path d="M307.903 49.5205C307.903 54.4226 305.107 56.5405 300.395 56.5405C296.48 56.5405 293.375 55.3031 291.388 51.7574C289.591 48.4616 289.651 40.3351 289.651 36.48C289.651 30.0193 290.151 22.5115 298.277 22.5115C304.857 22.5115 306.166 25.7359 306.975 31.6969C307.225 33.6244 307.534 35.7304 307.534 37.7174C307.534 38.9549 305.797 40.1328 304.238 40.1328C303.37 40.1328 302.56 39.8234 301.692 39.8234C299.336 39.8234 296.909 39.7045 294.612 40.0138C294.612 41.751 294.731 43.4286 294.731 45.1657C294.731 49.5681 296.469 51.686 301.002 51.686C303.667 51.686 302.679 50.2582 303.298 49.0803C303.608 47.8429 304.666 46.5935 306.035 46.5935C307.403 46.5935 307.903 48.4616 307.903 49.5086V49.5205ZM294.612 35.3021C296.159 35.3021 297.718 35.3616 299.265 35.3616H302.239C302.18 33.8743 302.18 28.532 300.871 27.7824C300.252 27.4731 299.443 27.2827 298.694 27.2827C297.884 27.2827 296.457 27.4017 295.957 28.1513C294.779 29.8289 294.529 31.3162 294.529 33.3032C294.529 33.9814 294.529 34.612 294.589 35.2902L294.612 35.3021Z" fill="#231F20"/>
<path d="M337.113 20.81C336.447 20.81 334.448 20.0842 333.008 20.0842C330.616 20.0842 328.284 20.5245 325.905 20.5245C325.798 20.5245 325.738 20.465 325.631 20.465V31.0187C325.631 31.8516 325.631 32.6845 325.691 33.5174H331.58C332.354 33.5174 333.472 34.0171 333.472 34.9095C333.472 35.8494 333.079 37.0155 332.306 37.5747C330.081 37.6818 327.808 37.6818 325.583 37.9078C325.476 40.1804 325.417 42.5124 325.417 44.7969C325.417 49.9013 325.75 51.8526 325.75 52.733C325.75 54.3988 325.75 55.1246 324.358 56.2311C321.693 56.2311 321.086 54.4583 321.086 50.0083C321.419 44.0116 321.752 38.122 321.586 32.1253C321.479 27.6872 321.586 25.2957 321.586 21.8571C321.586 20.7981 321.526 19.6321 321.086 18.6327C321.026 18.4661 320.86 18.0734 320.86 17.9069C320.86 17.3001 321.859 15.6343 322.526 15.6343C324.358 16.3006 326.357 16.3006 328.082 16.3006C330.081 16.3006 332.02 15.9675 334.019 15.9675C335.852 15.9675 338.791 16.1935 339.409 18.359C339.243 19.4655 338.41 20.7981 337.137 20.7981L337.113 20.81Z" fill="#231F20"/>
<path d="M352.938 44.7374C353.104 46.7958 353.104 48.7947 353.104 50.8412C353.104 55.5648 349.547 56.7309 345.442 56.7309C341.337 56.7309 337.72 53.5659 337.72 49.4015C337.72 45.844 339.493 42.1317 342.991 40.9062C344.656 40.2399 346.762 40.2399 348.547 39.7402C348.547 37.9673 348.714 32.3037 347.274 31.1853C347 31.1258 346.774 31.0782 346.501 31.0782C343.562 31.0782 342.396 34.3027 340.444 34.3027C339.052 34.3027 338.779 33.2437 338.779 32.0777C338.779 28.9127 343.609 26.6878 346.334 26.6878C352.105 26.6878 352.938 32.744 352.938 37.2415C352.938 39.7402 352.771 42.2388 352.938 44.7374ZM345.608 52.3404C347.833 52.3404 348.833 52.4475 348.833 50.2344C348.833 48.2355 348.559 46.2366 348.559 44.2377C345.394 44.4638 342.122 45.5108 342.122 49.2944C342.122 51.1863 343.847 52.3523 345.62 52.3523L345.608 52.3404Z" fill="#231F20"/>
<path d="M359.993 15.8604C362.552 15.8604 362.932 19.7987 362.932 21.631C362.932 22.797 362.706 24.3557 361.207 24.3557C358.601 24.3557 358.209 22.5234 358.209 20.1913C358.209 19.0848 358.316 15.8604 359.982 15.8604H359.993ZM358.601 54.2203C358.601 45.7845 358.494 37.3962 358.494 28.9603C358.494 27.5207 359.268 26.1286 360.886 26.1286C362.111 26.1286 362.885 27.128 362.885 28.294C362.885 32.1848 362.825 36.016 362.825 39.8948C362.825 44.3924 362.992 48.9494 362.992 53.4469C362.992 54.9461 362.218 56.2787 360.553 56.2787C359.446 56.2787 358.613 55.3388 358.613 54.2203H358.601Z" fill="#231F20"/>
<path d="M381.922 30.2453C381.922 31.2448 380.923 32.2443 379.923 32.2443C379.15 32.2443 378.483 31.8516 377.865 31.578C376.972 31.1853 375.925 30.7451 374.926 30.7451C373.093 30.7451 372.927 31.9706 372.927 33.5174V36.5157C372.927 39.8472 373.093 43.1193 373.093 46.4508C373.093 48.9494 373.093 51.5551 372.594 54.0062C372.368 55.0651 371.82 55.898 370.654 55.898C368.548 55.898 368.382 53.7325 368.382 52.2333C368.382 48.5092 368.548 44.8445 368.548 41.1322C368.548 38.5741 368.322 36.0279 368.322 33.4698C368.322 29.1388 371.154 26.3665 375.485 26.3665C377.758 26.3665 380.316 27.8657 381.755 29.5909C381.815 29.698 381.922 30.1502 381.922 30.2572V30.2453Z" fill="#231F20"/>
<path d="M256.574 65.1786H120.791C117.459 65.1786 114.187 65.3452 110.856 65.3452C108.357 65.3452 105.752 65.3452 103.301 64.8455C102.242 64.6194 101.409 64.0721 101.409 62.906C101.409 60.8001 103.562 61.6091 105.061 61.6091C108.786 61.6091 112.45 61.7757 116.163 61.7757C118.625 61.7757 244.378 60.8952 255.812 60.8714C256.348 60.8714 256.836 61.1332 257.121 61.5853C257.894 62.7633 259.013 64.7027 256.562 65.1786H256.574Z" fill="#231F20"/>
<path d="M43.5 0C19.4774 0 0 19.4774 0 43.5C0 67.5226 19.4774 87 43.5 87C67.5226 87 87 67.5226 87 43.5C87 19.4774 67.5345 0 43.5 0ZM24.3795 80.9914C24.3319 79.6588 24.5937 78.3262 25.1648 76.9817C26.6759 73.4241 29.4601 71.4252 33.446 71.0444C33.6958 71.0207 33.9338 71.0088 34.1718 70.9968C36.3967 70.9017 38.2886 71.33 38.9311 71.4966C38.6812 72.151 38.4194 72.8411 38.1339 73.5669C36.8846 76.827 35.3735 80.7534 33.9338 84.4895C30.5785 83.7042 27.3779 82.5263 24.3795 80.9914ZM43.5 85.5841C40.6563 85.5841 37.8721 85.2985 35.1831 84.7631C38.3243 76.6247 41.7867 67.594 42.1317 66.7016C42.5719 66.071 46.9148 60.1338 52.9234 60.8833C52.971 60.8833 53.0067 60.8833 53.0543 60.8833L70.9493 59.3247C71.0207 59.3247 71.0801 59.3009 71.1396 59.2771C71.2229 59.2414 79.3494 55.66 75.4944 45.606C75.4706 45.5346 75.4349 45.4751 75.3873 45.4156C75.3159 45.3204 73.4836 43.2263 70.9136 43.5476C70.6518 43.5833 70.39 43.6428 70.1283 43.7142L47.9499 23.4277C50.627 20.6554 53.7682 18.0258 56.0883 17.8117C56.7309 17.8474 57.1116 17.895 57.1354 17.895C57.4685 17.9307 57.7779 17.7165 57.8374 17.3833C57.8969 17.0502 57.6946 16.7289 57.3734 16.6457C57.0045 16.5505 56.6 16.5148 56.1835 16.5386C52.9948 16.3363 43.7023 16.3363 38.0625 22.2497C37.9554 22.3568 37.9078 22.4996 37.8959 22.6305C37.884 22.8208 37.9435 23.0112 38.0863 23.1421C38.2648 23.3206 38.5265 23.3563 38.7407 23.273C38.824 23.2373 38.9073 23.1897 38.9787 23.1183C42.798 19.1086 48.6162 18.0377 52.626 17.8117C51.1506 18.704 49.4967 20.0604 47.6882 21.869C44.7493 24.8197 42.3935 27.9609 42.3697 27.9966C42.1555 28.2821 42.215 28.6748 42.5005 28.889C42.6314 28.9841 42.7861 29.0198 42.9289 29.0079C43.1074 28.996 43.2739 28.9008 43.3929 28.7581C44.202 27.6634 45.5227 26.0334 47.0695 24.3557L68.879 44.3091C67.5702 45.1539 66.3565 46.6768 65.2738 48.8661C65.1191 49.1755 65.25 49.5681 65.5593 49.7228C65.8806 49.8775 66.2614 49.7466 66.416 49.4372C67.82 46.6173 69.4144 45.0111 71.0444 44.8088C72.7102 44.5946 74.0309 45.8559 74.3403 46.1771C77.4814 54.5535 71.5442 57.6827 70.7113 58.0754L52.9948 59.6221C45.9391 58.8011 41.2155 65.7616 41.0133 66.0591C40.9895 66.0948 40.9657 66.1424 40.9538 66.19C40.93 66.2376 40.3232 67.8557 39.3713 70.3186C38.7407 70.1402 36.2421 69.5215 33.3508 69.7951C31.9706 69.926 30.7094 70.2354 29.579 70.7232C27.0447 71.8059 25.141 73.7691 23.975 76.5057C23.4396 77.7789 23.1421 79.052 23.1064 80.337C22.1902 79.8253 21.2979 79.2899 20.4293 78.7188C13.6592 74.2808 8.25739 67.939 4.96157 60.455C2.67711 55.2793 1.41589 49.5443 1.41589 43.5238C1.41589 43.4167 1.41589 43.3215 1.41589 43.2144C2.34396 43.1312 3.23632 43.0598 4.1049 42.9765C23.5823 41.2036 27.9847 39.288 29.3411 37.5866C30.1026 36.6347 29.936 35.671 29.817 34.9571C29.7932 34.8381 29.7813 34.731 29.7694 34.6239C30.1978 34.7786 30.6499 34.9214 31.1258 35.0522C31.1972 35.076 31.2686 35.076 31.34 35.076C31.6018 35.0522 31.8397 34.8738 31.9111 34.6001C32.0063 34.2551 31.804 33.91 31.459 33.8148C27.3541 32.7202 24.558 30.3167 23.1659 26.6759C22.333 24.5104 22.2735 22.5234 22.2735 21.7619C28.9008 18.2757 37.5628 30.4833 37.6461 30.6142C37.8483 30.8998 38.241 30.9711 38.5384 30.7689C38.824 30.5666 38.8954 30.174 38.6931 29.8765C38.5622 29.6861 37.4438 28.1037 35.7185 26.2475C35.4806 25.9977 35.2426 25.7359 34.9809 25.4742C31.4828 21.9166 26.081 17.9426 21.3217 20.8219C21.1432 20.929 21.0361 21.1075 21.0123 21.3217C21.0123 21.4287 20.81 24.0583 21.9523 27.0685C22.8327 29.3768 24.6651 32.2799 28.4725 34.0647C28.4487 34.4454 28.5082 34.8143 28.5677 35.1474C28.6867 35.8613 28.7343 36.2897 28.3535 36.7656C26.7116 38.8359 18.0496 40.5016 1.45159 41.9056C2.28446 19.4179 20.7981 1.42779 43.5 1.42779C66.2019 1.42779 85.5841 20.2627 85.5841 43.5119C85.5841 66.7611 66.7492 85.596 43.5 85.596V85.5841Z" fill="#221F1F"/>
<path d="M43.5001 1.42779C20.7982 1.42779 2.28454 19.4179 1.45166 41.9175C18.0497 40.5135 26.6997 38.8478 28.3536 36.7775C28.7343 36.3016 28.6868 35.8732 28.5678 35.1593C28.5083 34.8262 28.4488 34.4573 28.4726 34.0766C24.6532 32.2918 22.8209 29.3887 21.9523 27.0804C20.8101 24.0702 21.0005 21.4406 21.0124 21.3336C21.0243 21.1313 21.1433 20.9409 21.3217 20.8338C26.0929 17.9545 31.4828 21.9285 34.9809 25.486L37.896 22.6305C37.9079 22.4877 37.9674 22.3568 38.0626 22.2497C43.7142 16.3363 52.9949 16.3363 56.1836 16.5386C56.6 16.5148 56.9927 16.5505 57.3734 16.6456C57.6947 16.7289 57.8969 17.0502 57.8375 17.3833C57.778 17.7165 57.4686 17.9307 57.1355 17.895C57.1117 17.895 56.7428 17.8474 56.0884 17.8117C53.7683 18.0258 50.6271 20.6554 47.95 23.4277L70.1283 43.7142C70.3901 43.6309 70.6519 43.5714 70.9136 43.5476C73.4837 43.2263 75.316 45.3323 75.3874 45.4156C75.435 45.4751 75.4707 45.5346 75.4945 45.606C79.3495 55.66 71.223 59.2414 71.1397 59.2771C71.0802 59.3009 71.0088 59.3247 70.9493 59.3247L53.0544 60.8833C53.0544 60.8833 52.9711 60.8833 52.9235 60.8833C46.903 60.1337 42.572 66.071 42.1318 66.7016C41.7867 67.594 38.3362 76.6247 35.1832 84.7631C37.8722 85.2985 40.6445 85.5841 43.5001 85.5841C66.7374 85.5841 85.5842 66.7492 85.5842 43.5C85.5842 20.2508 66.7492 1.42779 43.5001 1.42779Z" fill="#84D2F5"/>
<path d="M38.1337 73.5669C38.4074 72.8411 38.6811 72.151 38.9309 71.4966C38.2884 71.33 36.3966 70.9017 34.1716 70.9968C36.7179 71.5204 38.5621 72.4246 38.5621 72.4246L38.1337 73.5669Z" fill="white"/>
<path d="M35.7184 26.2475C37.4436 28.1037 38.5621 29.6861 38.6929 29.8765C38.8952 30.1621 38.8238 30.5666 38.5383 30.7689C38.2527 30.9711 37.8482 30.8998 37.6459 30.6142C37.5626 30.4833 28.9007 18.2757 22.2734 21.7619C22.2734 22.5234 22.3329 24.5104 23.1657 26.6759C24.5578 30.3167 27.3539 32.7083 31.4588 33.8148C31.8039 33.91 32.0061 34.2551 31.9109 34.6001C31.8396 34.8738 31.6016 35.0522 31.3398 35.076C31.2684 35.076 31.197 35.076 31.1257 35.0522C30.6497 34.9214 30.1976 34.7786 29.7693 34.6239C29.7812 34.731 29.805 34.8381 29.8169 34.9571C29.9358 35.6591 30.1024 36.6347 29.3409 37.5866C27.9845 39.288 23.5822 41.1917 4.10474 42.9765C5.19938 44.5589 7.94787 49.8775 4.96141 60.4431C8.25723 67.9271 13.659 74.2689 20.4291 78.7069C20.5243 78.3976 20.6314 78.0882 20.7623 77.767C22.7255 72.7578 26.2117 71.0326 29.5908 70.7113C30.7211 70.2235 31.9823 69.9141 33.3625 69.7832C36.2657 69.5096 38.7524 70.1283 39.383 70.3068C40.323 67.8438 40.9417 66.2257 40.9655 66.1781C40.9774 66.1305 41.0012 66.0948 41.025 66.0472C41.2273 65.7497 45.9509 58.7774 53.0065 59.6102L70.723 58.0635C71.5559 57.6708 77.4931 54.5416 74.352 46.1652C74.0426 45.844 72.7219 44.5946 71.0562 44.7969C69.4261 44.9992 67.8199 46.6054 66.4278 49.4253C66.2731 49.7347 65.8923 49.8656 65.5711 49.7109C65.2617 49.5562 65.1309 49.1755 65.2855 48.8542C66.3683 46.6649 67.5819 45.142 68.8907 44.2972L47.0812 24.3438C45.5344 26.0215 44.2137 27.6634 43.4047 28.7462C43.2857 28.9008 43.1191 28.9841 42.9406 28.996C42.7978 28.996 42.6432 28.9722 42.5123 28.8771C42.2267 28.6629 42.1672 28.2702 42.3814 27.9847C42.4052 27.949 44.7492 24.796 47.6999 21.8571C49.5085 20.0486 51.1623 18.6922 52.6377 17.7998C48.628 18.0258 42.8097 19.0967 38.9904 23.1064C38.919 23.1778 38.8357 23.2254 38.7524 23.2611C38.5264 23.3444 38.2765 23.2968 38.098 23.1302C37.9553 22.9874 37.8839 22.797 37.9077 22.6186L34.9926 25.4742C35.2425 25.7359 35.4923 25.9858 35.7303 26.2475H35.7184ZM48.0688 34.731C48.9373 34.6596 49.6988 35.314 49.7702 36.1826C49.8416 37.0511 49.1872 37.8126 48.3186 37.884C47.4501 37.9554 46.6886 37.301 46.6172 36.4205C46.5458 35.552 47.2002 34.7905 48.0807 34.7191L48.0688 34.731Z" fill="white"/>
<path d="M4.11674 42.9646C3.24817 43.0479 2.3558 43.1193 1.42773 43.2025C1.42773 43.3096 1.42773 43.4048 1.42773 43.5119C1.42773 49.5324 2.70085 55.2555 4.97341 60.4431C7.94797 49.8775 5.21138 44.5589 4.11674 42.9765V42.9646Z" fill="#C6C0B4"/>
<path d="M20.7624 77.767C20.6434 78.0882 20.5363 78.3976 20.4292 78.7069C21.2978 79.278 22.1901 79.8135 23.1063 80.3251C23.1539 79.052 23.4395 77.767 23.9749 76.4938C25.1409 73.7454 27.0446 71.794 29.579 70.7113C26.1999 71.0325 22.7137 72.7578 20.7505 77.767H20.7624Z" fill="#C6C0B4"/>
<path d="M38.5622 72.4246C38.5622 72.4246 36.718 71.5204 34.1718 70.9968C33.9338 70.9968 33.6958 71.0206 33.446 71.0444C29.4601 71.4252 26.6759 73.4241 25.1648 76.9817C24.5937 78.3262 24.3319 79.6588 24.3795 80.9914C27.3779 82.5263 30.5785 83.7042 33.9338 84.4895C35.3735 80.7534 36.8846 76.827 38.1339 73.5669L38.5622 72.4246Z" fill="#C6C0B4"/>
<path d="M48.3067 37.884C49.1753 37.8126 49.8297 37.0511 49.7583 36.1826C49.6869 35.314 48.9254 34.6596 48.0568 34.731C47.1883 34.8024 46.5339 35.5639 46.5934 36.4324C46.6647 37.301 47.4262 37.9554 48.2948 37.8959L48.3067 37.884Z" fill="#221F1F"/>
</svg>
